<?xml version="1.0" encoding="UTF-8"?>
<svg width="600px" height="400px" viewBox="0 0 600 400" version="1.1" xmlns="http://www.w3.org/2000/svg" xmlns:xlink="http://www.w3.org/1999/xlink">
    <!-- Generator: Sketch 53.2 (72643) - https://sketchapp.com -->
    <title>Artboard</title>
    <desc>Created with Sketch.</desc>
    <defs>
        <polygon id="path-1" points="0.648020319 0.76395056 496.387528 0.76395056 496.387528 86.7108657 0.648020319 86.7108657 0.648020319 0.76395056"></polygon>
    </defs>
    <g id="Artboard" stroke="none" stroke-width="1" fill="none" fill-rule="evenodd">
        <g id="bonnier" transform="translate(50.000000, 156.000000)">
            <g id="g12" transform="translate(250.187369, 44.223875) scale(-1, 1) rotate(-180.000000) translate(-250.187369, -44.223875) translate(1.109878, 0.404686)">
                <g id="g32" transform="translate(1.505622, 0.392395)">
                    <g id="g34-Clipped">
                        <mask id="mask-2" fill="white">
                            <use xlink:href="#path-1"></use>
                        </mask>
                        <g id="path38"></g>
                        <g id="g34" mask="url(#mask-2)">
                            <g transform="translate(11.890281, 4.954284)" id="g40">
                                <g transform="translate(233.097499, 37.729903) scale(-1, 1) rotate(-180.000000) translate(-233.097499, -37.729903) translate(0.409084, 0.180187)">
                                    <g id="g42" transform="translate(0.748515, 0.630045)" fill="#231F20" fill-rule="nonzero">
                                        <path d="M417.234399,15.8104069 L432.770363,15.8104069 C440.386897,15.8104069 445.056712,19.2116207 445.056712,25.8144418 L445.056712,26.0150364 C445.056712,31.9172589 440.689793,35.9192681 433.075265,35.9192681 L417.234399,35.9192681 L445.081787,71.9333987 L463.74099,71.9333987 L444.882196,47.5171897 C454.390326,44.1989806 460.896575,36.7671012 460.896575,25.2146345 L460.896575,25.01404 C460.896575,18.412207 458.765269,12.9091972 454.804552,9.00797932 C450.133733,4.40616277 443.127003,1.90614218 434.090268,1.90614218 L401.598139,1.90614218 L401.598139,71.9333987 L417.234399,71.9333987 L417.234399,15.8104069 Z M276.981457,1.90614218 L276.981457,45.0230981 L243.677928,1.90614218 L222.04292,1.90713033 L229.258267,11.2471282 L229.258267,71.9333987 L244.691928,71.9333987 L244.691928,28.3757278 L278.37157,71.9333987 L292.415118,71.9333987 L292.415118,1.90614218 L276.981457,1.90614218 Z M198.65974,1.90614218 L198.65974,45.0230981 L165.356211,1.90614218 L143.721203,1.90713033 L150.93655,11.2471282 L150.93655,71.9333987 L166.370211,71.9333987 L166.370211,28.3757278 L200.050856,71.9333987 L214.093401,71.9333987 L214.093401,1.90614218 L198.65974,1.90614218 Z M337.969893,1.90614218 L391.58351,1.90614218 L391.58351,15.6108005 L353.505857,15.6108005 L353.505857,29.8164511 L387.013991,29.8164511 L387.013991,43.5220976 L353.505857,43.5220976 L353.505857,58.2287404 L392.091012,58.2287404 L392.091012,71.9333987 L337.969893,71.9333987 L337.969893,1.90614218 Z M307.158737,1.90614218 L322.796001,1.90614218 L322.796001,71.9333987 L307.158737,71.9333987 L307.158737,1.90614218 Z M126.121133,37.1198709 L126.121133,36.9192764 C126.121133,24.9142368 117.184694,14.9102018 104.594445,14.9102018 C92.0031939,14.9102018 83.2703576,24.7146304 83.2703576,36.71967 L83.2703576,36.9192764 C83.2703576,48.924316 92.2067963,58.9293391 104.797045,58.9293391 C117.389299,58.9293391 126.121133,49.1249105 126.121133,37.1198709 L126.121133,37.1198709 Z M66.9229935,37.1198709 L66.9229935,36.9192764 C66.9229935,17.0110097 82.8651588,0.705539407 104.797045,0.705539407 C126.729934,0.705539407 142.468497,16.8114033 142.468497,36.71967 L142.468497,36.9192764 C142.468497,56.8285312 126.527335,73.1340015 104.594445,73.1340015 C82.6615565,73.1340015 66.9229935,57.0281376 66.9229935,37.1198709 L66.9229935,37.1198709 Z M34.7548231,58.4283468 C41.660253,58.4283468 45.8225673,56.0271412 45.8225673,50.8255174 L45.8225673,50.6249228 C45.8225673,45.9233031 42.2690541,43.0220934 34.2473216,43.0220934 L16.1728478,43.0220934 L16.1728478,58.4283468 L34.7548231,58.4283468 L34.7548231,58.4283468 Z M30.5925088,30.216652 C37.4969357,30.216652 41.8638553,28.016041 41.8638553,22.813429 L41.8638553,22.6138226 C41.8638553,18.012006 38.2080395,15.410206 31.6065087,15.410206 L16.1728478,15.410206 L16.1728478,30.216652 L30.5925088,30.216652 L30.5925088,30.216652 Z M0.9417863,1.90614218 L33.9434225,1.90614218 C42.0654518,1.90614218 48.4633802,4.10576504 52.5243948,8.10777428 C55.7740089,11.3083935 57.397813,15.2105996 57.397813,20.0120225 L57.397813,20.2126171 C57.397813,28.1158442 53.133196,32.5170662 48.0581814,35.3184727 C56.2815104,38.4202769 61.3585309,43.1218966 61.3585309,52.5261243 L61.3585309,52.7257307 C61.3585309,65.5301839 50.7982881,71.9333987 34.7548231,71.9333987 L0.9417863,71.9333987 L0.9417863,1.90614218 Z" id="path44"></path>
                                    </g>
                                </g>
                            </g>
                        </g>
                    </g>
                </g>
            </g>
        </g>
    </g>
</svg>