<?xml version="1.0" encoding="UTF-8"?>
<svg width="600px" height="400px" viewBox="0 0 600 400" version="1.1" xmlns="http://www.w3.org/2000/svg" xmlns:xlink="http://www.w3.org/1999/xlink">
    <!-- Generator: Sketch 53.2 (72643) - https://sketchapp.com -->
    <title>Artboard</title>
    <desc>Created with Sketch.</desc>
    <g id="Artboard" stroke="none" stroke-width="1" fill="none" fill-rule="evenodd">
        <g id="pearson" transform="translate(50.000000, 117.000000)" fill-rule="nonzero">
            <path d="M308.153917,111.429237 C307.976058,110.969272 307.485721,110.703723 307.004988,110.812788 L306.856038,110.855464 C305.433143,111.158946 304.337106,111.073598 303.567953,110.561463 C302.476742,109.835951 301.947943,108.195245 301.947943,105.549253 L301.947943,81.6357458 C301.947943,72.294161 296.304356,67.5569827 285.16138,67.5569827 C275.18654,67.5569827 267.370111,72.2135488 267.370111,78.1599171 C267.370111,81.2184563 269.259334,83.4281925 272.047479,83.760127 C273.86938,83.9782613 275.609579,83.162644 276.869045,81.8491323 C279.320703,79.2979782 279.008226,76.2584081 276.032619,73.0007087 C277.792024,71.1845524 280.907052,70.1128772 284.459549,70.1128772 C290.247358,70.1128772 292.718223,73.498608 292.718223,81.4365856 L292.718223,87.4825352 C291.362601,87.8950819 290.093508,88.2839189 287.766865,88.8244994 C283.079894,89.9103984 276.647922,91.3566844 271.797497,93.9979364 C267.793151,96.164994 265.75973,99.5839177 265.75973,104.159872 C265.75973,109.143632 269.076649,114.961969 278.421757,114.961969 C283.656734,114.961969 288.343705,112.515139 293.155668,107.26109 C293.573905,112.71904 295.669822,114.767551 300.755775,114.767551 C303.202607,114.767551 305.159127,114.203261 307.485795,113.093653 C308.115528,112.790168 308.413576,112.069397 308.15399,111.429237 L308.153917,111.429237 Z M292.71815,104.121938 C291.583651,105.682029 287.872551,110.324369 283.248075,110.324369 C277.003566,110.324369 275.691233,105.999738 275.691233,102.372168 C275.691233,96.4068305 280.325312,93.6470328 292.71815,90.6264295 L292.71815,104.121938 Z M412.473857,115.165872 C399.234964,115.165872 389.25052,104.932805 389.25052,91.3614273 C389.25052,78.0745644 399.667607,67.2629816 412.473857,67.2629816 C425.438734,67.2629816 435.601061,77.6714987 435.601061,90.9678473 C435.601061,105.914383 423.597601,115.165872 412.473857,115.165872 Z M411.973917,69.8141357 C406.253405,69.8141357 399.682037,72.2419989 399.682037,91.1622671 C399.682037,105.596674 403.998861,112.609977 412.877665,112.609977 C421.371892,112.609977 425.164743,105.999738 425.164743,91.1622671 C425.164743,76.7989862 420.847919,69.8141357 411.973917,69.8141357 L411.973917,69.8141357 Z M207.799851,68.1165274 C207.799851,79.1272705 205.050161,85.1874463 190.984441,85.1874463 L183.528554,85.1874463 L183.528554,51.9276093 L191.287293,51.9276093 C205.838534,51.9276093 207.799851,60.1121663 207.799851,68.1165274 Z M183.528554,105.549255 L183.528554,88.2459855 L190.282597,88.2459855 C200.358383,88.2459855 208.020979,86.1453139 213.06368,81.9961328 C218.337122,77.6572749 219.442767,72.1613867 219.442767,68.31569 C219.442767,52.4966398 203.968552,49.177295 190.984441,49.177295 L191.037333,49.1726403 L164.708563,49.1726403 C164.112476,49.1726403 163.626953,49.6563157 163.626953,50.2395725 L163.626953,50.3106915 L163.626953,50.2918277 C163.626953,50.8324058 163.958648,51.3160813 164.477819,51.5010177 C166.823708,52.3545635 173.193182,51.1595998 173.193182,57.8978684 L173.193182,105.539772 C173.193182,109.006117 171.635665,111.452947 164.516277,112.116816 C163.949032,112.168973 163.526003,112.624201 163.526003,113.174265 L163.526003,113.340242 C163.526003,113.928239 164.006719,114.402431 164.602805,114.402431 L192.734246,114.402431 C193.33033,114.402431 193.815853,113.928239 193.815853,113.340242 L193.815853,113.193251 C193.815853,112.64319 193.373597,112.178481 192.806352,112.131062 C185.071648,111.519355 183.518938,109.157878 183.518938,105.539791 L183.518938,88.2791785 L183.528554,105.549255 Z M240.733633,67.239272 C228.489824,67.239272 218.524601,78.1741433 218.524601,91.61749 C218.524601,105.226804 227.864893,115.104226 240.733633,115.104226 C251.544912,115.104226 256.808729,108.731085 259.822823,103.941745 C260.120871,103.467553 259.991127,102.84162 259.529576,102.514426 L259.38528,102.414839 C258.918977,102.087645 258.270013,102.182496 257.909493,102.628221 C253.933967,107.545593 250.453592,110.390745 244.444654,110.390745 C236.844552,110.390745 228.725276,105.226792 228.725276,90.7259961 L228.725276,90.6216817 C228.710822,89.9815223 228.725276,89.1042669 228.749284,88.283914 L259.846733,88.283914 C259.933213,88.283914 260.000584,88.2175232 260.005483,88.1321706 L260.025082,87.8855912 C260.467353,81.9439634 258.760815,76.5998186 255.222748,72.8489579 C251.766405,69.1787119 246.757355,67.2392646 240.733998,67.2392646 L240.733633,67.239272 Z M228.922466,85.2301226 C229.946389,75.3100239 233.869023,69.8710383 240.031789,69.8710383 C243.113173,69.8710383 245.401375,70.7151007 247.016578,72.4506449 C249.237481,74.8263459 250.179682,79.1272705 249.809532,85.2301226 L228.922466,85.2301226 Z M369.627722,85.7612173 L369.617923,85.7612173 C361.114068,83.4044829 357.80195,81.024039 357.80195,77.2636949 C357.80195,72.9817396 361.248687,69.8710383 365.998129,69.8710383 C371.584046,69.8710383 373.978011,72.5075474 379.876382,82.2332289 L379.953307,82.3612578 C379.982215,82.413415 380.035132,82.4418577 380.035132,82.4418577 L380.900417,82.4418577 C381.496514,82.4418577 381.982024,81.9629252 381.982024,81.3749255 L381.982024,67.3957412 C381.982024,67.3103885 381.909999,67.2392695 381.909999,67.2392695 L380.751467,67.2392695 C380.429386,67.2392695 380.121734,67.3815321 379.919842,67.628109 L378.035445,69.8852621 C375.660712,68.59546 371.79096,67.2392695 367.906779,67.2392695 C358.138656,67.2392695 351.317306,73.1903807 351.317306,81.7163555 C351.317306,89.7207191 356.696506,92.7176128 365.98392,95.1928977 C375.006922,97.6302442 378.208502,100.167172 378.208502,104.8759 C378.208502,110.115723 373.064856,112.467717 369.411401,112.467717 C362.614108,112.467717 359.744236,109.978209 353.230538,98.4363708 L353.153613,98.298861 C353.124704,98.2467038 353.071788,98.2135083 353.071788,98.2135083 L352.196874,98.2135083 C351.600802,98.2135083 351.115267,98.6971838 351.115267,99.2804406 L351.115267,114.943007 C351.115267,115.033112 351.187293,115.104231 351.278672,115.104231 L352.384312,115.104231 C352.667931,115.104231 352.946748,114.990436 353.148664,114.791266 L356.124271,111.856015 C359.60947,113.98988 364.820415,115.104231 368.204656,115.104231 C373.285807,115.104231 377.46321,113.515688 380.285016,110.514051 C382.803947,107.834866 384.188429,104.041329 384.188429,99.830502 C384.188429,92.5374291 380.241752,88.724923 369.627551,85.7612222 L369.627722,85.7612173 Z M318.167195,108.783245 C318.167195,111.196884 317.547066,111.988785 313.64848,112.230624 C313.081242,112.268547 312.638972,112.733266 312.638972,113.292813 C312.638972,113.88081 313.124507,114.355002 313.720579,114.355002 L332.963602,114.355002 C333.55007,114.355002 334.025977,113.885553 334.025977,113.31178 C334.025977,112.742749 333.578929,112.2733 333.002064,112.24959 C328.550646,112.036209 327.396915,111.324916 327.396915,108.783245 L327.396915,80.9481672 C330.564835,75.7510206 332.838611,73.0291588 336.684329,72.2088059 C336.496916,72.8679344 336.376678,73.6503514 336.376678,74.2905108 C336.376678,77.6714987 338.770642,80.032976 342.198148,80.032976 C345.563133,80.032976 347.918635,77.6714987 347.918635,74.2905108 C347.918635,71.0944544 345.894842,67.35782 340.183934,67.35782 C335.50659,67.35782 331.035941,70.0038125 327.195024,76.3342774 L327.195024,69.1739763 C327.195024,68.4437214 326.584522,67.8557217 325.844203,67.8746909 L313.720579,68.197142 C313.129308,68.2160058 312.672633,68.6808175 312.672633,69.2593314 L312.672633,69.4110748 C312.672633,69.9374291 313.057209,70.3879116 313.571554,70.4590404 C317.614363,71.0233281 318.171997,72.9200965 318.167195,74.8879939 L318.167195,108.783245 Z M451.262753,67.8462384 C451.54157,67.8462384 451.810759,67.9553055 452.007849,68.1497228 C452.22417,68.3488953 452.339558,68.6144291 452.34436,68.9084302 L452.382822,76.8464054 C452.382822,76.8464054 456.334301,67.533273 469.150154,67.533273 L469.265541,67.533273 C477.255027,67.533273 481.836238,72.5597096 481.836238,81.3227805 L481.836238,108.740569 C481.836238,111.154206 482.46117,111.946108 486.354954,112.187945 C486.922216,112.22114 487.364462,112.685847 487.364462,113.250137 C487.364462,113.833391 486.878952,114.312326 486.287657,114.312326 L468.996352,114.312326 C468.400256,114.312326 467.914746,113.833391 467.914746,113.245394 C467.914746,112.676363 468.35219,112.211654 468.900196,112.164235 C472.044083,111.898689 472.544023,111.116272 472.544023,108.740569 L472.544023,83.9972231 C472.544023,75.8221494 470.188521,72.6450646 464.145928,72.6450646 C460.059854,72.6450646 456.718877,76.1588268 454.632589,79.1083013 C454.632589,79.1083013 453.565387,80.4265559 452.411681,82.9113241 L452.536623,108.735826 C452.536623,111.111529 453.026936,111.893946 456.079492,112.159495 C456.627498,112.206924 457.060141,112.676363 457.060141,113.221684 C457.060141,113.833391 456.574631,114.312326 455.983336,114.312326 L438.797791,114.312326 C438.206496,114.312326 437.720986,113.833391 437.720986,113.245394 C437.720986,112.685847 438.168058,112.221138 438.730494,112.183204 C442.624278,111.941356 443.244408,111.154206 443.244408,108.740569 L443.244408,74.8927343 C443.244408,72.9200941 442.686774,71.0138423 438.624734,70.4448117 C438.110364,70.3736927 437.720986,69.9184575 437.720986,69.3921057 L437.720986,69.235634 C437.720986,68.6523772 438.182463,68.1876709 438.773758,68.1687018 L451.262753,67.8462384 Z" id="wordmark" fill="#3D3935"></path>
            <path d="M113.483576,19.6446088 C143.956097,36.772428 151.05145,75.1725067 129.847115,114.027811 C111.214603,148.179129 70.5268876,162.765278 40.2081957,145.381396 C9.88469684,127.988028 3.96709566,79.4734312 16.9992782,51.5577389 C35.9202186,11.0143119 79.8143015,0.714858696 113.483576,19.6446088" id="thumbprint" fill="#007FA3"></path>
            <path d="M112.776926,49.1061661 C118.742599,55.3892118 120.598158,64.9204735 119.56462,72.7399031 C118.377256,81.654715 112.897105,89.9056579 103.787555,95.3730936 C96.5624116,99.716692 87.0682896,101.44275 77.7279982,101.528105 C77.6510731,102.988618 77.3578486,108.019797 77.2088269,108.81644 C76.9925056,109.987694 76.5742826,110.623111 76.0647245,111.277496 C75.0600306,112.572041 73.3198415,113.401878 71.5892681,113.890296 C70.2192311,114.26965 68.8588073,114.440357 67.8925711,114.440357 C67.7339436,114.440357 67.5752989,114.426148 67.4166616,114.411915 C66.4023545,114.298095 65.2726743,113.823915 64.5756368,113.060467 C63.8785994,112.287534 63.4844144,111.32018 63.3930792,110.220055 L63.3161541,109.224251 C63.119064,108.370706 62.0374522,65.0485122 62.2441604,65.8214458 C62.4027879,60.6290421 70.8970299,59.7280771 75.5070858,60.6432683 C80.1267573,61.5584596 78.9586194,67.0970217 78.8336332,73.9016787 C78.8336332,73.9016787 78.6125101,82.849686 78.1846691,92.305076 C84.0686201,92.0822135 88.7411691,90.4272766 93.1108681,88.2886692 C101.941601,83.9640375 106.61415,77.3395716 106.61415,67.5854401 C106.61415,57.8313086 96.9902379,46.905923 79.2278182,46.905923 C61.465401,46.905923 53.8412633,51.3253931 45.2412713,58.3434365 C43.3039897,59.9272373 41.8089665,61.5205238 40.4004718,62.5684869 C38.9871705,63.6164525 35.232787,63.7776768 34.2328996,61.3213636 C33.0166907,58.3624033 35.2808579,55.0620275 36.6124396,53.4639981 C38.7035495,50.9555228 43.8520054,45.9053767 49.5628994,42.9701259 C56.1054303,39.6033619 64.1045266,35.9757921 75.2426935,35.6960197 C85.3184775,35.4494403 101.230142,36.250824 112.690387,49.0208184 M74.2524292,120.832468 C73.3246506,120.12118 72.2863055,119.632761 71.2335383,119.428861 C70.8778109,119.357717 70.5076588,119.319793 70.1471224,119.319793 C68.166579,119.319793 66.2196817,120.396209 64.9505955,122.202882 C63.8930217,123.701328 63.4555723,125.498515 63.7343868,127.234059 C63.9170473,128.34841 64.33528,129.311021 64.9602087,130.027052 C65.6572462,130.833179 66.7244332,131.454369 68.0512059,131.828982 C68.8155431,132.037635 69.599109,132.151431 70.382675,132.151431 L70.3875747,132.151431 C72.0989193,132.151431 73.6372068,131.639305 74.8341867,130.690921 C76.2234525,129.567084 76.9781764,127.97854 76.9637542,126.20032 C76.9446454,124.137584 75.9350248,122.122267 74.2525223,120.832465" id="interrobang" fill="#FFFFFF"></path>
        </g>
    </g>
</svg>