<?xml version="1.0" encoding="UTF-8"?>
<svg width="3000px" height="3000px" viewBox="0 0 3000 3000" version="1.1" xmlns="http://www.w3.org/2000/svg" xmlns:xlink="http://www.w3.org/1999/xlink">
    <!-- Generator: Sketch 53.2 (72643) - https://sketchapp.com -->
    <title>Artboard</title>
    <desc>Created with Sketch.</desc>
    <g id="Artboard" stroke="none" stroke-width="1" fill="none" fill-rule="evenodd">
        <g id="gulp" transform="translate(823.000000, 2.000000)" fill="#DA4648" fill-rule="nonzero">
            <path d="M670.637,2364.35221 C495.10469,2364.35221 359.470328,2337.99372 294.246397,2322.28434 C249.644052,2311.54195 213.828431,2300.42645 186.62069,2289.00781 L273.609259,2437.57457 L307.636431,2901.77479 C307.636431,2953.81553 473.013466,2996 677.013207,2996 C881.012948,2996 1046.38998,2953.81553 1046.38998,2901.77479 L1073.33334,2432.52208 L1155.64084,2288.57251 C1128.31647,2300.14662 1092.18203,2311.40981 1047.01983,2322.28434 C981.795897,2337.99372 846.161534,2364.35221 670.637,2364.35221 Z M1158.46348,853.826246 C1029.633,871.81314 858.649569,881.723809 677.013207,881.723809 C495.376845,881.723809 324.393414,871.81314 195.562931,853.826246 C131.746431,844.918303 81.2577586,834.409106 45.496569,822.60958 C36.9664483,819.787954 22.5111207,814.976421 8.60010345,807.31217 L88.4193276,1541.65781 C92.1284138,1529.01102 96.2573966,1516.37977 100.837379,1503.79517 C110.207293,1478.00411 121.046845,1452.78825 133.348259,1428.15538 C145.657448,1403.53028 159.055259,1380.24993 173.54169,1358.32208 C188.020345,1336.40201 203.439879,1316.21534 219.776966,1297.76983 C236.121828,1279.3321 252.886586,1263.47503 270.102345,1250.18307 C287.310328,1236.90666 304.681603,1226.52184 322.216172,1219.04414 C339.758517,1211.56644 357.129793,1207.81982 374.337776,1207.81982 C394.158448,1207.81982 413.333724,1213.23765 431.855828,1224.07332 C450.370155,1234.90121 467.679224,1252.44504 483.806362,1276.68926 C487.507672,1282.10709 489.855983,1287.58711 490.827966,1293.12931 C491.8155,1298.67928 492.297603,1303.90279 492.297603,1308.79983 C492.297603,1320.40503 489.521621,1329.56948 483.969655,1336.26987 C478.41769,1342.97803 471.823759,1346.32823 464.203414,1346.32823 C457.22069,1346.32823 450.743397,1342.65156 444.755983,1335.30601 C438.760793,1327.95268 432.065776,1317.44349 424.655379,1303.77065 C417.680431,1291.38814 410.005655,1282.43356 401.623276,1276.88358 C393.233121,1271.34138 384.143138,1268.56639 374.337776,1268.56639 C359.08931,1268.56639 342.806655,1274.8859 325.48981,1287.52492 C308.16519,1300.15617 291.011638,1316.8605 274.029155,1337.62239 C257.031121,1358.39204 240.748466,1382.11546 225.173414,1408.81597 C209.598362,1435.50871 195.811759,1462.84661 183.829155,1490.82968 C171.846552,1518.82829 162.328897,1546.43048 155.245086,1573.63624 C148.161276,1600.842 144.623259,1625.28054 144.623259,1646.9441 C144.623259,1654.17306 145.120914,1661.59635 146.092897,1669.19064 C147.080431,1676.80825 148.92331,1683.70297 151.652638,1689.89811 C154.366414,1696.09325 158.0755,1701.17684 162.756569,1705.16443 C167.445414,1709.17533 173.378397,1711.16524 180.563293,1711.16524 C188.626862,1711.16524 197.771276,1708.46021 208.019862,1703.04238 C218.252897,1697.64009 228.874724,1690.5355 239.869793,1681.77525 C250.872638,1672.99945 261.929914,1663.07323 273.041621,1651.97328 C284.161103,1640.88888 294.503,1629.67233 304.082862,1618.31587 C313.662724,1606.97495 322.161741,1596.06933 329.564362,1585.63009 C336.974759,1575.18308 342.526724,1566.08858 346.23581,1558.3466 L376.623879,1467.42495 C380.32519,1457.63088 385.169552,1450.6662 391.164741,1446.5387 C397.152155,1442.4112 403.310638,1440.34356 409.632414,1440.34356 C412.672776,1440.34356 415.720914,1440.86436 418.776828,1441.8904 C421.832741,1442.92422 424.546517,1444.54102 426.949259,1446.72526 C429.344224,1448.92504 431.24931,1451.75443 432.664517,1455.24455 C434.079724,1458.71911 434.787328,1462.78443 434.787328,1467.42495 C434.787328,1479.80746 433.698707,1491.40489 431.521466,1502.24833 C429.344224,1513.09176 426.568241,1523.65537 423.185741,1533.97801 C419.811017,1544.28511 416.0475,1554.66994 411.910741,1565.11695 C407.773983,1575.56396 403.73831,1586.46181 399.827052,1597.81827 C398.956155,1599.1086 397.377655,1603.15837 395.083776,1609.99091 C392.797672,1616.83899 390.029466,1625.42046 386.755828,1635.72756 C383.489966,1646.0502 379.944172,1657.58544 376.134,1670.3566 C372.316052,1683.12776 368.404793,1696.14766 364.376897,1709.43185 C360.341224,1722.71603 356.476621,1735.7437 352.77531,1748.51486 C349.066224,1761.27825 345.738155,1772.82127 342.806655,1783.14391 C339.867379,1793.451 337.417983,1802.08689 335.45069,1809.05934 C333.491172,1816.02401 332.29369,1820.14374 331.858241,1821.44962 C330.769621,1825.56157 329.020052,1830.14769 326.632862,1835.16909 C324.237897,1840.19827 321.407483,1844.97871 318.133845,1849.4871 C314.867983,1853.99548 311.275534,1857.74988 307.348724,1860.70364 C303.42969,1863.66518 299.401793,1865.15761 295.257259,1865.15761 C288.290086,1865.15761 283.220224,1862.83347 280.071,1858.20071 C276.906224,1853.55241 275.3355,1845.0409 275.3355,1832.66616 L275.3355,1827.24833 C275.3355,1825.43721 275.436586,1823.49394 275.65431,1821.44962 C275.864259,1817.31434 277.504966,1809.57236 280.560879,1798.2159 C283.609017,1786.87498 287.255897,1774.04941 291.509293,1759.73141 C295.754914,1745.41341 300.334897,1730.58238 305.23369,1715.23056 C310.124707,1699.88651 314.541397,1686.15926 318.468207,1674.03327 C306.9055,1686.93657 294.394138,1699.76214 280.887466,1712.5333 C267.373017,1725.29669 253.539759,1736.77752 239.38769,1746.96025 C225.220069,1757.15075 210.951362,1765.46794 196.581569,1771.91959 C182.204,1778.36347 168.370741,1781.59707 155.081793,1781.59707 C139.833328,1781.59707 126.707672,1778.2391 115.697052,1771.53094 C113.714207,1770.31056 111.840224,1768.95027 109.974017,1767.59776 L154.389741,2233.11163 C165.952448,2262.08188 383.629931,2333.25992 670.637,2333.25992 C957.776259,2333.25992 1175.53928,2262.01192 1186.89981,2233.06499 L1250.70076,1679.60656 C1245.42095,1684.44919 1240.2811,1689.18299 1235.36676,1693.7691 C1217.06238,1710.78436 1199.79219,1725.42106 1183.56397,1737.67142 C1167.34352,1749.92179 1151.48853,1759.41271 1136.02234,1766.10533 C1120.54838,1772.82127 1103.99357,1776.17146 1086.35014,1776.17146 C1069.79533,1776.17146 1056.98848,1772.55698 1047.95293,1765.3358 C1038.91738,1758.12238 1034.39183,1748.19617 1034.39183,1735.54938 L1034.39183,1732.65002 C1034.39183,1731.74834 1034.50069,1730.64457 1034.72619,1729.35423 C1035.58931,1721.6278 1038.97959,1712.71208 1044.85814,1702.6615 C1050.73669,1692.59537 1057.81272,1682.15613 1066.08624,1671.32824 C1074.36753,1660.49257 1083.18536,1649.52476 1092.55528,1638.43259 C1101.92519,1627.34818 1110.5875,1616.83899 1118.54221,1606.89722 C1126.48914,1596.98655 1133.07529,1587.89206 1138.30067,1579.62928 C1143.5416,1571.37427 1146.15429,1564.67388 1146.15429,1559.51256 C1146.15429,1556.41888 1145.0579,1553.97036 1142.88843,1552.15146 C1140.70341,1550.36365 1137.10319,1549.44643 1132.10331,1549.44643 C1123.38657,1549.44643 1114.39767,1551.7084 1105.15217,1556.21678 C1095.88334,1560.72516 1086.72338,1566.80371 1077.68783,1574.40577 C1068.65228,1582.01561 1059.82667,1590.72923 1051.21879,1600.5233 C1042.62647,1610.32515 1034.5629,1620.51565 1027.04364,1631.07926 C1019.52438,1641.66618 1012.67384,1652.30752 1006.46093,1663.01105 C1000.24802,1673.71457 994.968207,1683.5786 990.605948,1692.59537 C989.299603,1695.44031 987.448948,1699.44345 985.046207,1704.58922 C982.651241,1709.75054 980.038552,1715.5648 977.208138,1722.00868 C974.369948,1728.46033 971.376241,1735.10631 968.219241,1741.9233 C965.062241,1748.77137 962.177397,1755.22303 959.564707,1761.27825 C956.952017,1767.34125 954.611483,1772.74354 952.550879,1777.52398 C950.466948,1782.28887 948.99731,1785.58465 948.126414,1787.39578 C947.037793,1789.71216 945.241569,1794.0884 942.737741,1800.54005 C940.233914,1806.9917 937.341293,1814.53936 934.083207,1823.17524 C930.817345,1831.81113 927.380414,1840.90562 923.78019,1850.45873 C920.203293,1859.98852 916.813017,1869.02861 913.656017,1877.54012 C910.491241,1886.04387 907.715259,1893.52934 905.328069,1899.98099 C902.933103,1906.41709 901.393483,1910.80888 900.74031,1913.13303 C898.570845,1919.84119 896.00481,1926.14516 893.07331,1932.09933 C890.126259,1938.02241 886.75931,1943.24592 882.941362,1947.76985 C879.13119,1952.27823 874.776707,1955.88494 869.870138,1958.58997 C864.963569,1961.31054 859.466034,1962.65528 853.377534,1962.65528 C845.523914,1962.65528 839.054397,1960.7742 833.922328,1957.04313 C828.813586,1953.30428 826.247552,1946.1375 826.247552,1935.57389 C826.247552,1930.41257 826.900724,1925.12688 828.207069,1919.71682 C829.513414,1914.29899 831.154121,1908.93557 833.113638,1903.65765 C835.073155,1898.35641 837.094879,1893.21064 839.163259,1888.18146 C841.223862,1883.14451 843.136724,1878.31743 844.870741,1873.66913 C856.643397,1847.87807 868.626,1822.02483 880.818552,1796.09385 C893.011103,1770.17842 904.721552,1744.5195 915.949897,1719.10932 C918.282655,1713.80809 920.428793,1708.61567 922.707121,1703.34553 C922.022845,1704.01401 921.354121,1704.71359 920.685397,1705.36653 C906.517776,1719.04714 892.420138,1731.0954 878.369155,1741.54242 C864.310397,1751.98943 850.368276,1760.30662 836.550569,1766.50176 C822.709534,1772.68135 809.257293,1775.78281 796.178293,1775.78281 C787.251603,1775.78281 779.794552,1774.36811 773.807138,1771.53094 C767.811948,1768.68599 763.029793,1764.815 759.429569,1759.92574 C755.829345,1755.0287 753.26331,1749.22221 751.739241,1742.51405 C751.226034,1740.22099 750.907224,1737.82689 750.572862,1735.44055 C746.747138,1738.41764 742.89031,1741.317 739.002379,1744.06866 C725.495707,1753.59845 712.206759,1761.27825 699.135534,1767.07696 C686.072086,1772.88345 674.299431,1775.78281 663.856448,1775.78281 C653.390138,1775.78281 644.898897,1772.30047 638.351621,1765.3358 C631.819897,1758.37889 628.56181,1746.50941 628.56181,1729.75066 C628.56181,1717.8734 630.303603,1704.0762 633.779414,1688.35127 C628.118586,1698.40963 621.042552,1708.60013 612.55131,1718.90722 C604.044517,1729.22987 594.355793,1738.64306 583.469586,1747.16235 C572.560052,1755.66609 560.3675,1762.56858 546.868603,1767.85427 C533.354155,1773.13996 518.65,1775.78281 502.756138,1775.78281 C495.563466,1775.78281 488.650724,1774.88113 482.002362,1773.07778 C475.354,1771.26665 469.529879,1768.17297 464.522224,1763.78895 C459.506793,1759.41271 455.486672,1753.53627 452.430759,1746.19071 C449.382621,1738.84516 447.858552,1729.61075 447.858552,1718.52634 C447.858552,1718.26983 448.294,1714.33666 449.164897,1706.71904 C450.035793,1699.1092 452.811776,1687.11535 457.500621,1670.73748 C462.18169,1654.36739 469.428793,1633.1469 479.218603,1607.09155 C489.031741,1581.04398 502.865,1549.44643 520.726155,1512.31446 C525.298362,1502.50484 530.585948,1495.47798 536.565586,1491.22611 C542.568552,1486.96646 549.038069,1484.83664 556.005241,1484.83664 C559.061155,1484.83664 562.218155,1485.29525 565.484017,1486.18915 C568.765431,1487.0986 571.805793,1488.5133 574.643983,1490.4488 C577.466621,1492.38429 579.7605,1494.84059 581.510069,1497.80213 C583.23631,1500.76367 584.122759,1504.17605 584.122759,1508.04704 C584.122759,1510.6277 583.788397,1513.09176 583.135224,1515.39259 C582.038828,1519.79993 579.698293,1525.52091 576.121397,1532.60995 C572.521172,1539.71454 568.322207,1547.83741 563.5245,1556.99409 C558.742345,1566.15077 553.672483,1576.0148 548.338241,1586.60173 C542.996224,1597.16533 538.043,1608.12537 533.470793,1619.48183 C528.898586,1630.83829 524.971776,1642.37353 521.705914,1654.11088 C518.440052,1665.84822 516.581621,1677.26686 516.153948,1688.35127 C516.153948,1692.99179 517.234793,1697.24367 519.41981,1701.11466 C521.597052,1704.98565 525.197276,1706.91337 530.204931,1706.91337 C544.357,1706.91337 557.863672,1702.26507 570.724948,1692.99179 C583.570672,1683.70297 595.436638,1672.15995 606.338397,1658.36275 C617.232379,1644.56554 627.084397,1629.72674 635.91,1613.8619 C644.735603,1597.99705 652.083793,1583.50027 657.962345,1570.34046 C662.106879,1561.5802 665.753759,1552.15146 668.910759,1542.10088 C672.067759,1532.03475 675.50469,1522.76147 679.206,1514.24218 C682.915086,1505.72289 687.152931,1498.63385 691.950638,1492.9595 C696.732793,1487.29293 702.735759,1484.44799 709.912879,1484.44799 C717.7665,1484.44799 723.963862,1487.4173 728.551621,1493.34816 C733.123828,1499.28678 735.402155,1506.37583 735.402155,1514.62306 C735.402155,1519.26358 733.940293,1525.66082 730.993241,1533.78369 C728.04619,1541.90655 724.344879,1551.19537 719.881534,1561.64239 C715.410414,1572.0894 710.566052,1583.24376 705.348448,1595.0977 C700.123069,1606.97495 695.263155,1619.02322 690.815362,1631.28136 C686.32869,1643.53172 682.642931,1655.52558 679.695879,1667.26292 C676.748828,1678.99249 675.286966,1689.89811 675.286966,1699.9487 C675.286966,1709.23752 680.076897,1713.88582 689.656759,1713.88582 C696.413983,1713.88582 704.796362,1711.56167 714.819448,1706.91337 C724.842534,1702.26507 735.3555,1695.75901 746.350569,1687.37186 C749.095448,1685.2809 751.863655,1683.09667 754.608534,1680.80361 C757.68,1668.14128 761.280224,1656.43503 765.471414,1645.79369 C773.091759,1625.66142 780.828741,1605.68462 788.674586,1585.82442 C796.512655,1565.96421 803.697552,1547.77522 810.244828,1531.26521 L909.247103,1281.71844 C913.166138,1271.66008 918.453724,1264.56326 925.086534,1260.43576 C931.742672,1256.31603 938.43769,1254.24839 945.194914,1254.24839 C951.936586,1254.24839 958.087293,1256.4404 963.647034,1260.82441 C969.206776,1265.2162 971.990534,1272.30524 971.990534,1282.10709 C971.990534,1286.74762 971.057431,1291.65242 969.206776,1296.80597 C967.356121,1301.96729 965.015586,1307.5095 962.177397,1313.44035 C956.742069,1325.57412 950.257,1340.39737 942.737741,1357.93343 C935.218483,1375.47726 927.154914,1394.56793 918.55481,1415.19767 C909.946931,1435.83518 901.121328,1457.30441 892.085776,1479.61313 C883.050224,1501.92963 874.224621,1523.65537 865.616741,1544.80591 C857.024414,1565.96421 848.953069,1586.0032 841.43381,1604.9695 C833.922328,1623.92803 827.45281,1640.37585 821.994155,1654.29743 C819.59919,1660.22829 817.258655,1667.13855 814.980328,1675.0049 C812.686448,1682.86348 811.551172,1689.89811 811.551172,1696.09325 C811.551172,1699.9487 812.204345,1703.04238 813.51069,1705.36653 C814.817034,1707.69068 817.320862,1708.85664 821.022172,1708.85664 C825.594379,1708.85664 831.309638,1707.24761 838.175724,1704.01401 C845.034034,1700.79596 852.436655,1696.52854 860.391362,1691.24285 C868.353845,1685.96493 876.627362,1679.90194 885.21969,1673.06163 C893.835345,1666.2291 902.381017,1659.14006 910.872259,1651.78673 C919.379052,1644.42563 927.489276,1637.08007 935.218483,1629.72674 C942.94769,1622.38119 949.875983,1615.61084 955.980034,1609.4157 C957.410793,1607.93104 959.121483,1606.88168 961.003241,1606.0966 C964.681224,1595.11324 968.040397,1584.35531 971.003,1573.83057 C972.744793,1569.18227 975.147534,1562.61402 978.195672,1554.09473 C981.236034,1545.57544 984.727397,1537.19607 988.646431,1528.94106 C992.565466,1520.69383 996.989931,1513.52706 1001.87317,1507.47183 C1006.77974,1501.41661 1012.06733,1498.37733 1017.72816,1498.37733 C1026.4449,1498.37733 1032.76667,1500.38279 1036.68571,1504.37037 C1040.60474,1508.38128 1042.56426,1514.24218 1042.56426,1521.98416 C1042.56426,1523.531 1042.34653,1525.97952 1041.91109,1529.32972 C1041.46786,1532.68768 1040.9391,1536.23998 1040.28593,1539.97883 C1039.63276,1543.7099 1038.91738,1547.2622 1038.15534,1550.62017 C1037.38553,1553.97036 1036.68571,1556.41888 1036.03253,1557.96572 C1044.08055,1549.18992 1052.79729,1540.49185 1062.16721,1531.85596 C1071.53712,1523.21231 1081.22584,1515.39259 1091.24893,1508.44347 C1101.27979,1501.47102 1111.51283,1495.81222 1121.97914,1491.40489 C1132.42212,1487.03642 1142.88843,1484.83664 1153.33919,1484.83664 C1160.52409,1484.83664 1167.66233,1485.87046 1174.73836,1487.9381 C1181.8144,1489.99796 1188.14395,1493.02946 1193.68814,1497.02482 C1199.24788,1501.03573 1203.77343,1506.05713 1207.24924,1512.12013 C1210.73283,1518.17535 1212.47462,1525.20221 1212.47462,1533.20071 C1212.47462,1543.78763 1209.81528,1555.06636 1204.47326,1567.06022 C1199.13902,1579.05407 1192.444,1591.11011 1184.38043,1603.22056 C1176.31686,1615.35433 1167.60012,1627.14608 1158.24576,1638.62691 C1148.87584,1650.10774 1140.11245,1660.54698 1131.94002,1669.96017 C1123.76759,1679.38891 1116.9015,1687.37186 1111.34176,1693.94788 C1105.80534,1700.53945 1102.89717,1704.98565 1102.68722,1707.3098 C1102.68722,1710.40348 1103.67476,1712.91418 1105.63428,1714.85745 C1107.59379,1716.78517 1110.85966,1717.75681 1115.43186,1717.75681 C1119.13317,1717.75681 1124.59183,1715.68917 1131.76895,1711.56167 C1138.95384,1707.43417 1149.03914,1700.28294 1161.99372,1690.09244 C1174.94831,1679.90194 1191.40981,1666.2291 1211.33934,1649.07392 C1225.00931,1637.32104 1241.01203,1623.30618 1259.04426,1607.36361 L1345.46519,807.28885 C1331.5464,814.968648 1317.06774,819.787954 1308.52984,822.60958 C1272.77643,834.409106 1222.28776,844.918303 1158.46348,853.826246 Z M676.5,664 C302.881476,664 0,705.759915 0,757.276891 C0,808.793865 302.881476,850.553782 676.5,850.553782 C1050.11852,850.553782 1353,808.793865 1353,757.276891 C1353,705.759915 1050.11852,664 676.5,664 Z M946.617897,784.537062 C946.617897,796.624193 910.623431,806.426039 866.215483,806.426039 C821.81531,806.426039 785.820845,796.624193 785.820845,784.537062 C785.820845,772.442159 821.81531,762.640312 866.215483,762.640312 C910.623431,762.640312 946.617897,772.442159 946.617897,784.537062 Z" id="Cup"></path>
            <path d="M802.6054,774.872069 C802.206243,775.508272 802,776.157905 802,776.81805 C802,784.656263 831.018383,791 866.802791,791 C902.594985,791 931.605582,784.656263 931.605582,776.81805 L1016.24707,433.726944 L1352.85912,78.4405992 C1352.96902,78.3322038 1353.07533,78.2200285 1353.17798,78.1040389 C1360.30217,70.0478818 1345.84358,45.1166052 1321.85495,23.7347079 C1297.86632,2.35281069 1271.96233,-4.88605514 1263.91161,3.25572299 C1263.85144,3.31661372 1263.79275,3.37836463 1263.73552,3.4409688 L904.588198,381.249059 L802.6054,774.872069 Z" id="Straw"></path>
        </g>
    </g>
</svg>