<?xml version="1.0" encoding="UTF-8"?>
<svg width="3000px" height="3000px" viewBox="0 0 3000 3000" version="1.1" xmlns="http://www.w3.org/2000/svg" xmlns:xlink="http://www.w3.org/1999/xlink">
    <!-- Generator: Sketch 53.2 (72643) - https://sketchapp.com -->
    <title>Artboard</title>
    <desc>Created with Sketch.</desc>
    <g id="Artboard" stroke="none" stroke-width="1" fill="none" fill-rule="evenodd">
        <g id="invision" fill-rule="nonzero">
            <path d="M2728.04297,0 L271.957031,0 C121.757812,0 0,121.757812 0,271.957031 L0,2728.04297 C0,2878.24219 121.757812,3000 271.957031,3000 L2728.04297,3000 C2878.24219,3000 3000,2878.24219 3000,2728.04297 L3000,271.957031 C3000,121.757812 2878.24219,0 2728.04297,0" id="Path" fill="#DC395F"></path>
            <path d="M1002.38896,944.046124 C1102.10233,944.046124 1185.63425,865.90167 1185.63425,763.482057 C1185.63425,661.132739 1102.10233,583 1002.38896,583 C902.675594,583 819.167112,661.132739 819.167112,763.482057 C819.167112,865.889954 902.675594,944.046124 1002.38896,944.046124 M622.447048,1910.83479 C611.678942,1956.6436 606.277313,2006.10775 606.277313,2046.457 C606.277313,2205.45227 692.504185,2311 875.749469,2311 C1027.72155,2311 1150.9279,2220.76483 1239.63882,2075.0553 L1185.47021,2292.41872 L1487.24668,2292.41872 L1659.72386,1600.729 C1702.84316,1425.60107 1786.37507,1334.6981 1913.038,1334.6981 C2012.73965,1334.6981 2074.71192,1396.69817 2074.71192,1499.04749 C2074.71192,1528.7002 2072.01696,1561.00069 2061.23714,1596.04268 L1972.30359,1913.97462 C1958.82881,1959.78344 1953.46234,2005.61569 1953.46234,2048.69472 C1953.46234,2199.62951 2042.36073,2310.02759 2228.30097,2310.02759 C2387.29165,2310.02759 2513.93115,2207.68999 2584,1962.48979 L2465.44537,1916.72784 C2406.15634,2080.99521 2354.95218,2110.69479 2314.52784,2110.69479 C2274.1035,2110.69479 2252.54386,2083.77186 2252.54386,2029.91428 C2252.54386,2005.66255 2257.9572,1978.75134 2266.01864,1946.34541 L2352.26894,1636.60282 C2373.81687,1563.87107 2381.91346,1499.37553 2381.91346,1440.11696 C2381.91346,1208.40167 2241.77575,1087.47107 2072.01696,1087.47107 C1913.038,1087.47107 1751.34064,1230.86087 1670.5154,1381.77223 L1729.781,1110.90269 L1269.01384,1110.90269 L1204.3349,1349.48345 L1419.91965,1349.48345 L1287.16378,1880.91261 C1182.91586,2112.6279 991.421664,2116.38868 967.389687,2111.01112 C927.926159,2102.1071 902.687311,2087.12258 902.687311,2035.8542 C902.687311,2006.27178 908.077223,1963.77853 921.552003,1912.54529 L1123.6737,1110.90269 L611.678942,1110.90269 L547,1349.48345 L759.866365,1349.48345 L622.458765,1910.83479" id="Shape" fill="#FFFFFF"></path>
        </g>
    </g>
</svg>