<?xml version="1.0" encoding="UTF-8"?>
<svg width="3000px" height="3000px" viewBox="0 0 3000 3000" version="1.1" xmlns="http://www.w3.org/2000/svg" xmlns:xlink="http://www.w3.org/1999/xlink">
    <!-- Generator: Sketch 53.2 (72643) - https://sketchapp.com -->
    <title>Artboard</title>
    <desc>Created with Sketch.</desc>
    <g id="Artboard" stroke="none" stroke-width="1" fill="none" fill-rule="evenodd">
        <g id="jasmine" transform="translate(0.000000, 10.000000)" fill="#8A4182" fill-rule="nonzero">
            <path d="M1384.73685,1235.43933 L1617.25141,1235.43933 L1675.01885,1156.46424 L1675.01885,538 L1327.01639,538 L1327.01639,1156.53461 L1384.73685,1235.43933 M1234.87977,1511.28327 L1306.70733,1291.74119 L1248.92814,1212.80129 L656.524035,1021.67992 L549,1350.29513 L1141.47458,1541.43996 L1234.87977,1511.295 M1452.78215,1738.08594 L1264.70319,1602.37499 L1171.20403,1632.54341 L805.10078,2132.92622 L1086.63192,2336 L1452.78215,1835.61719 L1452.78215,1738.08594 M1737.33205,1602.3398 L1549.2061,1738.05075 L1549.25308,1835.64065 L1915.36808,2336 L2196.91097,2132.91449 L1830.7255,1632.49649 L1737.3438,1602.35153 M1695.24568,1291.69427 L1767.10848,1511.27154 L1860.58415,1541.40477 L2453,1350.29513 L2345.44073,1021.65646 L1753.01313,1212.81302 L1695.24568,1291.69427" id="Shape"></path>
            <path d="M1500.55871,6.39969636e-14 C673.164735,6.39969636e-14 0,668.768354 0,1490.75945 C0,2313.05564 673.164735,2982 1500.5822,2982 C2327.90572,2982 3001,2313.05564 3001,1490.75945 C3001,668.75662 2327.90572,0 1500.5822,0 L1500.55871,6.39969636e-14 Z M1500.55871,301.857492 C2161.32311,301.857492 2697.14467,834.077133 2697.14467,1490.74772 C2697.14467,2147.65298 2161.32311,2680.10731 1500.55871,2680.10731 C839.594693,2680.10731 303.831845,2147.65298 303.831845,1490.74772 C303.831845,834.077133 839.594693,301.857492 1500.57046,301.857492 L1500.55871,301.857492 Z" id="Shape"></path>
            <path d="M2409.2348,1822.68344 L1959.08169,1677.30226 L1988.84689,1586.16761 L2439,1731.54879 L2409.2348,1822.68344 L2409.2348,1822.68344 Z M1835.12462,1104.39219 L1757.10105,1048.08002 L2035.29704,667.474032 L2113.30886,723.797943 L1835.11287,1104.39219 L1835.12462,1104.39219 Z M1170.56815,1100.9299 L892.407391,720.312175 L970.419214,664 L1248.57997,1044.59425 L1170.56815,1100.9299 L1170.56815,1100.9299 Z M589.776939,1817.00293 L560,1725.86828 L1010.10614,1580.54578 L1039.89482,1671.68043 L589.776939,1817.00293 L589.776939,1817.00293 Z M1449.25729,2442 L1545.66835,2442 L1545.66835,1971.53866 L1449.26903,1971.53866 L1449.26903,2442 L1449.25729,2442 Z" id="Shape"></path>
        </g>
    </g>
</svg>