<?xml version="1.0" encoding="UTF-8"?>
<svg width="3000px" height="3000px" viewBox="0 0 3000 3000" version="1.1" xmlns="http://www.w3.org/2000/svg" xmlns:xlink="http://www.w3.org/1999/xlink">
    <!-- Generator: Sketch 53.2 (72643) - https://sketchapp.com -->
    <title>Artboard</title>
    <desc>Created with Sketch.</desc>
    <g id="Artboard" stroke="none" stroke-width="1" fill="none" fill-rule="evenodd">
        <g id="npm" transform="translate(0.000000, 917.000000)" fill-rule="nonzero">
            <path d="M0,0 L3000,0 L3000,999.428571 L1500,999.428571 L1500,1166 L833.333333,1166 L833.333333,999.428571 L0,999.428571 L0,0 Z M166.666667,832.857143 L500,832.857143 L500,333.142857 L666.666667,333.142857 L666.666667,832.857143 L833.333333,832.857143 L833.333333,166.571429 L166.666667,166.571429 L166.666667,832.857143 Z M1000,166.571429 L1000,999.428571 L1333.33333,999.428571 L1333.33333,832.857143 L1666.66667,832.857143 L1666.66667,166.571429 L1000,166.571429 Z M1333.33333,333.142857 L1500,333.142857 L1500,666.285714 L1333.33333,666.285714 L1333.33333,333.142857 Z M1833.33333,166.571429 L1833.33333,832.857143 L2166.66667,832.857143 L2166.66667,333.142857 L2333.33333,333.142857 L2333.33333,832.857143 L2500,832.857143 L2500,333.142857 L2666.66667,333.142857 L2666.66667,832.857143 L2833.33333,832.857143 L2833.33333,166.571429 L1833.33333,166.571429 Z" id="Shape" fill="#CB3837"></path>
            <polygon id="Path" fill="#FFFFFF" points="166 833 499.5 833 499.5 333.5 666.25 333.5 666.25 833 833 833 833 167 166 167"></polygon>
            <path d="M1000,167 L1000,1000 L1333.5,1000 L1333.5,833.4 L1667,833.4 L1667,167 L1000,167 Z M1500.25,666.8 L1333.5,666.8 L1333.5,333.6 L1500.25,333.6 L1500.25,666.8 Z" id="Shape" fill="#FFFFFF"></path>
            <polygon id="Path" fill="#FFFFFF" points="1833 167 1833 833 2166.33333 833 2166.33333 333.5 2333 333.5 2333 833 2499.66667 833 2499.66667 333.5 2666.33333 333.5 2666.33333 833 2833 833 2833 167"></polygon>
        </g>
    </g>
</svg>