<?xml version="1.0" encoding="UTF-8"?>
<svg width="3000px" height="3000px" viewBox="0 0 3000 3000" version="1.1" xmlns="http://www.w3.org/2000/svg" xmlns:xlink="http://www.w3.org/1999/xlink">
    <!-- Generator: Sketch 53.2 (72643) - https://sketchapp.com -->
    <title>Artboard</title>
    <desc>Created with Sketch.</desc>
    <g id="Artboard" stroke="none" stroke-width="1" fill="none" fill-rule="evenodd">
        <g id="react" transform="translate(4.000000, 168.000000)" fill="#61DAFB" fill-rule="nonzero">
            <path d="M2991,1332.30488 C2991,1134.13596 2742.86771,946.332799 2362.43885,829.870451 C2450.23013,442.069123 2411.21178,133.535363 2239.2872,34.7557794 C2199.65919,11.5852598 2153.32491,0.609750515 2102.72299,0.609750515 L2102.72299,136.584115 C2130.76743,136.584115 2153.32491,142.07187 2172.22442,152.437629 C2255.1384,199.998169 2291.10844,381.094072 2263.064,614.018769 C2256.35773,671.335317 2245.38382,731.700618 2231.97126,793.28542 C2112.47758,764.017395 1982.00999,741.456626 1844.83612,726.822614 C1762.5318,614.018769 1677.17917,511.580682 1591.21688,421.947356 C1789.96657,237.19295 1976.52303,135.974365 2103.33265,135.974365 L2103.33265,0 C2103.33265,0 2103.33265,0 2103.33265,0 C1935.6757,0 1716.19751,119.511101 1494.28068,326.826276 C1272.36384,120.730602 1052.88565,2.43900206 885.2287,2.43900206 L885.2287,138.413367 C1011.42866,138.413367 1198.59478,239.022202 1397.34448,422.557107 C1311.99185,512.190433 1226.63922,614.018769 1145.55422,726.822614 C1007.77069,741.456626 877.303098,764.017395 757.809417,793.895171 C743.787199,732.920119 733.422951,673.774319 726.107012,617.067521 C697.452915,384.142824 732.81329,203.046921 815.117611,154.876631 C833.40746,143.901122 857.184264,139.023117 885.2287,139.023117 L885.2287,3.04875257 C885.2287,3.04875257 885.2287,3.04875257 885.2287,3.04875257 C834.017122,3.04875257 787.682837,14.0242618 747.445169,37.1947814 C576.130249,135.974365 537.721565,443.898375 626.122503,830.480201 C246.912964,947.5523 0,1134.74571 0,1332.30488 C0,1530.47379 248.132287,1718.27695 628.56115,1834.7393 C540.769874,2222.54063 579.788219,2531.07439 751.712801,2629.85397 C791.340807,2653.02449 837.675092,2664 888.886669,2664 C1056.54362,2664 1276.02181,2544.4889 1497.93865,2337.17372 C1719.85548,2543.2694 1939.33367,2661.561 2106.99062,2661.561 C2158.2022,2661.561 2204.53649,2650.58549 2244.77415,2627.41497 C2416.08907,2528.63539 2454.49776,2220.71138 2366.09682,1834.12955 C2744.08704,1717.6672 2991,1529.86404 2991,1332.30488 Z M2197.22055,925.601282 C2174.66307,1004.2591 2146.61863,1085.35592 2114.91623,1166.45274 C2089.9201,1117.67269 2063.70465,1068.89265 2035.05055,1020.11261 C2007.00611,971.33257 1977.13269,923.77203 1947.25927,877.430991 C2033.83123,890.235752 2117.35487,906.089265 2197.22055,925.601282 Z M1917.99552,1574.98558 C1870.44191,1657.3019 1821.66898,1735.34997 1771.06706,1807.91028 C1680.22748,1815.83703 1588.16857,1820.10529 1495.5,1820.10529 C1403.44109,1820.10529 1311.38219,1815.83703 1221.15226,1808.52003 C1170.55035,1735.95972 1121.16775,1658.5214 1073.61415,1576.81483 C1027.27986,1496.93751 985.213208,1415.8407 946.804525,1334.13413 C984.603547,1252.42756 1027.27986,1170.72099 1073.00448,1090.84367 C1120.55809,1008.52735 1169.33102,930.479286 1219.93294,857.918975 C1310.77252,849.992218 1402.83143,845.723964 1495.5,845.723964 C1587.55891,845.723964 1679.61781,849.992218 1769.84774,857.309224 C1820.44965,929.869535 1869.83225,1007.30785 1917.38585,1089.01442 C1963.72014,1168.89174 2005.78679,1249.98856 2044.19547,1331.69512 C2005.78679,1413.40169 1963.72014,1495.10826 1917.99552,1574.98558 Z M2114.91623,1495.71801 C2147.83795,1577.42458 2175.88239,1659.13115 2199.04953,1738.39872 C2119.18386,1757.91073 2035.05055,1774.374 1947.86894,1787.17876 C1977.74236,1740.22797 2007.61578,1692.05768 2035.66021,1642.66789 C2063.70465,1593.88785 2089.9201,1544.49805 2114.91623,1495.71801 Z M1496.71932,2146.32181 C1440.02079,2087.78576 1383.32226,2022.54246 1327.23339,1951.20165 C1382.10294,1953.64065 1438.19181,1955.4699 1494.89034,1955.4699 C1552.19853,1955.4699 1608.89706,1954.2504 1664.37627,1951.20165 C1609.50673,2022.54246 1552.80819,2087.78576 1496.71932,2146.32181 Z M1043.13106,1787.17876 C956.559111,1774.374 873.035467,1758.52049 793.169792,1739.00847 C815.727273,1660.35065 843.771708,1579.25383 875.474113,1498.15702 C900.470241,1546.93706 926.685691,1595.7171 955.339788,1644.49714 C983.993885,1693.27718 1013.25764,1740.83772 1043.13106,1787.17876 Z M1493.67102,518.287938 C1550.36955,576.823987 1607.06808,642.067292 1663.15695,713.408103 C1608.2874,710.9691 1552.19853,709.139849 1495.5,709.139849 C1438.19181,709.139849 1381.49327,710.35935 1326.01406,713.408103 C1380.88361,642.067292 1437.58214,576.823987 1493.67102,518.287938 Z M1042.5214,877.430991 C1012.64798,924.381781 982.774562,972.552071 954.730126,1021.94186 C926.685691,1070.7219 900.470241,1119.50195 875.474113,1168.28199 C842.552385,1086.57542 814.507949,1004.86885 791.340807,925.601282 C871.206482,906.699016 955.339788,890.235752 1042.5214,877.430991 Z M490.777619,1640.83864 C274.957399,1548.76631 135.344884,1428.03571 135.344884,1332.30488 C135.344884,1236.57404 274.957399,1115.23369 490.777619,1023.77111 C543.20852,1001.21035 600.516714,981.088579 659.653893,962.186313 C694.404607,1081.69741 740.12923,1206.08652 796.827762,1333.52438 C740.738891,1460.35248 695.62393,1584.13184 661.482878,1703.03319 C601.126376,1684.13092 543.818182,1663.3994 490.777619,1640.83864 Z M818.775581,2512.17212 C735.861598,2464.61158 699.891561,2283.51568 727.935997,2050.59098 C734.642275,1993.27443 745.616184,1932.90913 759.02874,1871.32433 C878.522422,1900.59236 1008.99001,1923.15312 1146.16388,1937.78714 C1228.4682,2050.59098 1313.82083,2153.02907 1399.78312,2242.66239 C1201.03343,2427.4168 1014.47697,2528.63539 887.667346,2528.63539 C860.232572,2528.02564 837.06543,2522.53788 818.775581,2512.17212 Z M2264.89299,2047.54223 C2293.54709,2280.46693 2258.18671,2461.56283 2175.88239,2509.73312 C2157.59254,2520.70863 2133.81574,2525.58663 2105.7713,2525.58663 C1979.57134,2525.58663 1792.40522,2424.9778 1593.65552,2241.44289 C1679.00815,2151.80957 1764.36078,2049.98123 1845.44578,1937.17739 C1983.22931,1922.54337 2113.6969,1899.9826 2233.19058,1870.10483 C2247.2128,1931.68963 2258.18671,1990.83543 2264.89299,2047.54223 Z M2499.61272,1640.83864 C2447.18182,1663.3994 2389.87362,1683.52117 2330.73645,1702.42344 C2295.98573,1582.91234 2250.26111,1458.52323 2193.56258,1331.08537 C2249.65145,1204.25727 2294.76641,1080.47791 2328.90746,961.576562 C2389.26396,980.478828 2446.57216,1001.21035 2500.22238,1023.77111 C2716.0426,1115.84344 2855.65512,1236.57404 2855.65512,1332.30488 C2855.04545,1428.03571 2715.43294,1549.37606 2499.61272,1640.83864 Z" id="Shape"></path>
            <circle id="Oval" cx="1495.5" cy="1332.5" r="278.5"></circle>
        </g>
    </g>
</svg>