<?xml version="1.0" encoding="UTF-8"?>
<svg width="3000px" height="3000px" viewBox="0 0 3000 3000" version="1.1" xmlns="http://www.w3.org/2000/svg" xmlns:xlink="http://www.w3.org/1999/xlink">
    <!-- Generator: Sketch 53.2 (72643) - https://sketchapp.com -->
    <title>Artboard</title>
    <desc>Created with Sketch.</desc>
    <g id="Artboard" stroke="none" stroke-width="1" fill="none" fill-rule="evenodd">
        <g id="redux" transform="translate(7.000000, 87.000000)" fill="#764ABC" fill-rule="nonzero">
            <path d="M2067.06146,1979.75949 C2177.15365,1968.36709 2260.67186,1873.43038 2256.87558,1759.50633 C2253.07929,1645.58228 2158.17224,1554.44304 2044.28376,1554.44304 L2036.6912,1554.44304 C1919.00645,1558.24051 1827.89567,1656.97468 1831.69195,1774.6962 C1835.48823,1831.65823 1858.26593,1881.02532 1892.43247,1915.20253 C1763.35887,2169.63291 1565.95219,2355.70886 1269.84216,2511.40506 C1068.6392,2617.73418 859.843667,2655.70886 651.048136,2629.12658 C480.21543,2606.34177 347.345547,2530.39241 263.827335,2405.07595 C142.346299,2219 130.957452,2017.73418 233.457076,1816.46835 C305.586441,1672.16456 419.474912,1565.83544 491.604277,1512.67089 C476.419148,1463.3038 453.641453,1379.75949 442.252606,1319 C-108.208337,1717.73418 -51.2641012,2256.97468 115.772323,2511.40506 C241.049641,2701.27848 495.400559,2819 776.325454,2819 C852.251102,2819 928.176749,2811.40506 1004.1024,2792.41772 C1490.02654,2697.48101 1858.26593,2408.87342 2067.06146,1979.75949 L2067.06146,1979.75949 Z" id="Path"></path>
            <path d="M2734.994,1508.20503 C2446.49321,1170.10832 2021.33414,983.965184 1535.43807,983.965184 L1474.70106,983.965184 C1440.53649,915.586074 1368.41129,870 1288.69397,870 L1281.10184,870 C1163.42389,873.798839 1072.31837,972.568665 1076.11443,1090.33269 C1079.9105,1204.29787 1174.81207,1295.47002 1288.69397,1295.47002 L1296.28609,1295.47002 C1379.79948,1291.67118 1451.92468,1238.48743 1482.29318,1166.30948 L1550.62232,1166.30948 C1839.12311,1166.30948 2112.43966,1249.88395 2359.18376,1413.23404 C2548.98691,1538.59574 2685.64518,1701.94584 2761.56644,1899.48549 C2826.09951,2059.03675 2822.30345,2214.78917 2753.97432,2347.74855 C2647.68455,2549.08704 2469.26959,2659.25338 2233.91367,2659.25338 C2082.07115,2659.25338 1937.82075,2613.66731 1861.89949,2579.47776 C1820.1428,2617.46615 1744.22154,2678.24758 1691.07665,2716.23598 C1854.30737,2792.21277 2021.33414,2834 2180.76879,2834 C2545.19085,2834 2814.71133,2632.66151 2917.20503,2431.32302 C3027.29086,2210.99033 3019.69873,1831.10638 2734.994,1508.20503 Z" id="Path"></path>
            <path d="M806.778366,2043.85473 C810.574223,2157.82432 905.470656,2249 1019.34637,2249 L1026.93809,2249 C1144.60967,2245.20101 1235.71024,2146.42736 1231.91438,2028.65878 C1228.11853,1914.68919 1133.22209,1823.51351 1019.34637,1823.51351 L1011.75466,1823.51351 C1004.16295,1823.51351 992.775374,1823.51351 985.183659,1827.3125 C829.553509,1568.98142 765.023935,1287.85642 787.799079,983.9375 C802.982508,755.998311 878.899654,558.451014 1011.75466,395.094595 C1121.83452,254.532095 1334.40253,186.150338 1478.64511,182.351351 C1881.00598,174.753378 2051.81956,676.219595 2063.20713,877.565878 C2112.55328,888.962838 2196.06214,915.555743 2253,934.550676 C2207.44971,319.114865 1827.86398,0 1463.46168,0 C1121.83452,0 806.778366,246.934122 681.515074,611.636824 C506.905638,1097.90709 620.781357,1565.18243 833.349367,1933.68412 C814.37008,1960.27703 802.982508,2002.06588 806.778366,2043.85473 L806.778366,2043.85473 Z" id="Path"></path>
        </g>
    </g>
</svg>