<?xml version="1.0" encoding="UTF-8"?>
<svg width="3000px" height="3000px" viewBox="0 0 3000 3000" version="1.1" xmlns="http://www.w3.org/2000/svg" xmlns:xlink="http://www.w3.org/1999/xlink">
    <!-- Generator: Sketch 53.2 (72643) - https://sketchapp.com -->
    <title>Artboard</title>
    <desc>Created with Sketch.</desc>
    <g id="Artboard" stroke="none" stroke-width="1" fill="none" fill-rule="evenodd">
        <g id="sass" transform="translate(6.000000, 380.000000)" fill="#CD6799" fill-rule="nonzero">
            <path d="M2575.48525,1288.83821 C2471.13856,1289.38426 2380.44981,1314.50288 2304.51163,1351.63474 C2276.64943,1296.483 2248.78722,1247.33788 2243.87036,1211.29813 C2238.40718,1169.25175 2231.85137,1143.58708 2238.40718,1093.34985 C2244.963,1043.11262 2274.46416,971.579173 2273.91784,966.118605 C2273.37152,960.658036 2267.36203,934.993364 2207.26707,934.447307 C2147.17211,933.90125 2095.27193,945.914501 2089.26243,961.75015 C2083.25293,977.585799 2071.78026,1013.62555 2064.13181,1050.75742 C2053.75177,1105.3631 1943.9419,1300.3054 1881.11536,1402.41803 C1860.9016,1362.55588 1843.41943,1327.60824 1839.5952,1299.75934 C1834.13203,1257.71297 1827.57621,1232.04829 1834.13203,1181.81106 C1840.68784,1131.57383 1870.189,1060.04038 1869.64268,1054.57982 C1869.09636,1049.11925 1863.08687,1023.45457 1802.99191,1022.90852 C1742.89696,1022.36246 1690.99677,1034.37571 1684.98727,1050.21136 C1678.97778,1066.04701 1672.42196,1103.17888 1659.85665,1139.21863 C1647.29135,1175.25838 1501.4245,1500.70827 1463.18225,1584.80102 C1443.51481,1627.93951 1426.57896,1662.34109 1414.55997,1685.82154 C1414.55997,1685.82154 1414.55997,1685.82154 1414.55997,1685.82154 C1414.55997,1685.82154 1414.01365,1687.45971 1412.3747,1690.18999 C1401.99466,1710.3941 1395.98517,1721.31523 1395.98517,1721.31523 C1395.98517,1721.31523 1395.98517,1721.31523 1395.98517,1721.86129 C1387.7904,1736.60483 1379.04932,1750.25625 1374.67877,1750.25625 C1371.40087,1750.25625 1365.39137,1710.94015 1375.77141,1657.42658 C1397.62412,1544.39281 1449.52431,1368.56251 1448.97799,1362.55588 C1448.97799,1359.27954 1458.81171,1328.70036 1415.10629,1312.86471 C1372.4935,1297.02906 1357.1966,1323.23979 1353.37238,1323.23979 C1349.54816,1323.23979 1346.81657,1332.52275 1346.81657,1332.52275 C1346.81657,1332.52275 1394.34621,1134.85017 1256.12782,1134.85017 C1169.80961,1134.85017 1050.71233,1229.31801 991.71001,1314.50288 C954.560401,1334.70698 875.344323,1377.84547 790.665068,1424.26031 C758.432319,1442.28018 725.106934,1460.30006 693.966821,1477.22782 C691.781549,1475.04359 689.596278,1472.31331 687.411007,1470.12908 C520.237767,1291.56849 211.021903,1165.42936 224.13353,925.710397 C229.05039,838.341301 259.097868,608.997422 817.980957,330.508426 C1277.98053,103.894831 1644.01344,166.691369 1707.3863,305.935867 C1798.07505,504.700562 1511.25822,873.834996 1035.96175,927.348568 C854.584248,947.552672 759.524954,877.657394 735.486972,851.446665 C710.356354,824.143822 706.53213,822.505652 697.244727,827.96622 C681.947829,836.157073 691.781549,860.729632 697.244727,874.92711 C711.44899,912.058976 769.904992,977.585799 868.78851,1009.80315 C956.199355,1038.19811 1168.71697,1054.03376 1426.03265,954.651411 C1713.94211,843.255812 1939.02504,533.641576 1872.92059,274.26457 C1806.81614,11.0651656 1369.76191,-75.7578744 956.199355,71.1314196 C710.356354,158.500516 443.753278,296.106844 251.995737,475.213492 C24.1812229,688.175666 -11.8757506,873.288939 2.87482947,950.829013 C55.8676541,1226.04167 435.558511,1405.14832 587.434854,1537.84013 C579.786405,1542.20859 572.684274,1546.03098 566.674778,1549.30733 C490.736607,1586.98525 201.188183,1738.243 129.074237,1898.23766 C47.1265696,2079.52853 142.185863,2209.49006 205.012408,2226.96388 C400.047855,2281.02351 600.54648,2183.82539 708.171083,2023.28468 C815.795685,1862.74396 802.684059,1654.15024 752.969141,1558.59029 C752.422823,1557.49818 751.876505,1556.40606 750.78387,1555.31395 C770.45131,1543.84676 790.665068,1531.83351 810.332508,1520.36631 C849.12107,1497.43192 887.363315,1476.13571 920.142381,1458.66189 C901.567577,1509.44518 887.909632,1570.05749 881.353819,1657.42658 C873.159052,1760.08527 915.225521,1893.32314 970.403617,1945.7446 C994.987917,1968.67899 1023.94276,1969.22505 1042.51756,1969.22505 C1106.98306,1969.22505 1135.9379,1915.71148 1168.17065,1852.36888 C1207.50553,1774.82881 1243.01619,1684.72943 1243.01619,1684.72943 C1243.01619,1684.72943 1198.76445,1928.27078 1318.95436,1928.27078 C1362.65978,1928.27078 1406.91152,1871.48087 1426.57896,1842.53986 C1426.57896,1843.08591 1426.57896,1843.08591 1426.57896,1843.08591 C1426.57896,1843.08591 1427.6716,1841.44774 1429.85687,1837.62534 C1434.22741,1830.52661 1436.959,1826.15815 1436.959,1826.15815 C1436.959,1826.15815 1436.959,1825.61209 1436.959,1825.06604 C1454.44117,1794.48685 1493.77605,1725.13763 1552.23205,1609.91964 C1627.62391,1461.39217 1700.28417,1275.73284 1700.28417,1275.73284 C1700.28417,1275.73284 1706.83998,1321.05556 1729.23901,1396.41141 C1742.35064,1440.64201 1769.66653,1489.24107 1791.51924,1536.20196 C1774.03707,1560.77452 1763.11072,1574.42594 1763.11072,1574.42594 C1763.11072,1574.42594 1763.11072,1574.42594 1763.65703,1574.972 C1749.45277,1593.53793 1734.15587,1613.74203 1717.22002,1633.40008 C1657.67138,1704.38747 1586.65007,1785.74994 1576.81635,1809.23039 C1565.34368,1837.07929 1568.07527,1857.28339 1589.92798,1873.6651 C1605.77119,1885.67835 1634.17972,1887.31652 1663.13456,1885.67835 C1716.6737,1881.85595 1754.36963,1868.75059 1772.94444,1860.55973 C1801.89928,1850.18465 1835.77098,1834.349 1867.45741,1810.86856 C1925.91341,1767.73007 1961.42407,1706.02564 1958.14616,1624.66317 C1956.50721,1579.88651 1941.75663,1535.10985 1923.72814,1493.06347 C1929.19132,1485.41867 1934.10818,1477.77388 1939.57136,1470.12908 C2031.89906,1335.25304 2103.46669,1187.27163 2103.46669,1187.27163 C2103.46669,1187.27163 2110.02251,1232.59435 2132.42153,1307.9502 C2143.34789,1346.17418 2165.74692,1387.6745 2185.41436,1428.0827 C2098.54983,1498.52404 2045.01069,1580.43257 2025.88957,1633.94614 C1991.47155,1733.32849 2018.24112,1778.10515 2069.04867,1788.48023 C2091.99402,1793.39474 2124.77309,1782.4736 2148.81107,1772.09852 C2179.40486,1762.2695 2215.46184,1745.34174 2249.87986,1720.22312 C2308.33586,1677.08463 2364.60659,1617.01838 2361.32868,1535.6559 C2359.68973,1498.52404 2349.85601,1461.93823 2336.19807,1426.44453 C2409.95097,1395.86535 2505.01026,1378.93759 2626.29281,1393.13507 C2886.34007,1423.71425 2937.69394,1585.89313 2927.86022,1654.15024 C2918.0265,1722.40735 2863.39472,1759.53921 2845.36624,1771.00641 C2827.33775,1782.4736 2821.32825,1786.296 2822.96721,1794.48685 C2825.15248,1806.5001 2833.89356,1805.95405 2849.19046,1803.76982 C2870.49685,1799.94742 2985.76991,1748.61808 2990.68677,1623.025 C2998.88153,1462.48429 2845.91255,1287.20004 2575.48525,1288.83821 Z M569.406367,1964.85659 C483.088158,2058.77837 362.898246,2094.27207 310.998057,2064.23894 C255.273644,2032.02159 277.126355,1893.32314 383.112004,1793.9408 C447.577502,1733.32849 530.617805,1677.08463 585.7959,1642.68305 C598.361209,1635.03825 616.936014,1624.11711 639.335043,1610.46569 C643.159267,1608.28147 645.344538,1607.18935 645.344538,1607.18935 L645.344538,1607.18935 C649.71508,1604.45907 654.085623,1601.72878 658.456165,1598.9985 C697.244727,1740.97328 660.095118,1866.0203 569.406367,1964.85659 Z M1197.67181,1537.84013 C1167.62434,1611.01175 1104.79779,1798.30925 1066.55555,1787.93417 C1033.77648,1779.19726 1013.56272,1637.22248 1059.99973,1496.88587 C1083.4914,1426.44453 1133.20632,1342.35178 1162.16116,1309.58837 C1209.14449,1257.16691 1261.04468,1239.69309 1273.60998,1260.98931 C1289.4532,1288.83821 1216.24662,1491.97136 1197.67181,1537.84013 Z M1716.12739,1785.74994 C1703.56208,1792.30263 1691.54309,1796.67108 1686.07991,1793.39474 C1682.25568,1791.21051 1691.54309,1782.4736 1691.54309,1782.4736 C1691.54309,1782.4736 1756.5549,1712.57833 1782.23184,1680.90703 C1796.98242,1662.34109 1814.46459,1640.49882 1833.03939,1615.92626 C1833.03939,1618.11049 1833.03939,1620.84077 1833.03939,1623.025 C1833.03939,1706.5717 1752.18436,1762.81556 1716.12739,1785.74994 Z M2116.032,1694.55845 C2106.7446,1688.00577 2108.38355,1666.16349 2139.52367,1597.90639 C2151.54266,1571.1496 2179.95118,1526.37294 2228.57346,1483.23445 C2234.03664,1500.70827 2237.86087,1517.63603 2237.31455,1533.47168 C2236.76823,1638.86065 2161.37638,1678.17674 2116.032,1694.55845 Z" id="Shape"></path>
        </g>
    </g>
</svg>