<?xml version="1.0" encoding="UTF-8"?>
<svg width="3000px" height="3000px" viewBox="0 0 3000 3000" version="1.1" xmlns="http://www.w3.org/2000/svg" xmlns:xlink="http://www.w3.org/1999/xlink">
    <!-- Generator: Sketch 53.2 (72643) - https://sketchapp.com -->
    <title>Artboard</title>
    <desc>Created with Sketch.</desc>
    <g id="Artboard" stroke="none" stroke-width="1" fill="none" fill-rule="evenodd">
        <g id="webpack" transform="translate(175.000000, 1.000000)" fill-rule="nonzero">
            <polygon id="Path" fill="#FFFFFF" points="1325 0 2650 749.664383 2650 2249.33562 1325 2999 0 2249.33562 0 749.664383"></polygon>
            <path d="M2413.4449,2197.92295 L1368.87743,2789 L1368.87743,2328.7407 L2019.72068,1970.53294 L2413.4449,2197.92295 Z M2485,2133.19899 L2485,897.27949 L2102.91632,1118.16286 L2102.91632,1912.65808 L2485,2133.19899 L2485,2133.19899 Z M232.555097,2197.92295 L1277.12257,2789 L1277.12257,2328.7407 L625.936948,1970.53294 L232.555097,2197.92295 Z M161,2133.19899 L161,897.27949 L543.083677,1118.16286 L543.083677,1912.65808 L161,2133.19899 Z M205.850324,817.145058 L1277.12257,211 L1277.12257,655.848831 L590.672952,1033.57651 L585.19505,1036.65861 L205.850324,817.145058 Z M2440.14968,817.145058 L1368.87743,211 L1368.87743,655.848831 L2055.32705,1033.23406 L2060.80495,1036.31615 L2440.14968,817.145058 Z" id="Shape" fill="#8ED6FB"></path>
            <path d="M1277.13333,2223 L635,1869.65992 L635,1170.16981 L1277.13333,1540.97147 L1277.13333,2223 Z M1368.86667,2223 L2011,1870.0023 L2011,1170.16981 L1368.86667,1540.97147 L1368.86667,2223 Z M678.470647,1089.36723 L1323,735 L1967.52935,1089.36723 L1323,1461.53843 L678.470647,1089.36723 Z" id="Shape" fill="#1C78C0"></path>
        </g>
    </g>
</svg>