<?xml version="1.0" encoding="UTF-8"?>
<svg width="3000px" height="3000px" viewBox="0 0 3000 3000" version="1.1" xmlns="http://www.w3.org/2000/svg" xmlns:xlink="http://www.w3.org/1999/xlink">
    <!-- Generator: Sketch 53.2 (72643) - https://sketchapp.com -->
    <title>Artboard</title>
    <desc>Created with Sketch.</desc>
    <defs>
        <polygon id="path-1" points="7.43550072e-14 0 3000 0 3000 3000 7.43550072e-14 3000"></polygon>
    </defs>
    <g id="Artboard" stroke="none" stroke-width="1" fill="none" fill-rule="evenodd">
        <g id="git">
            <mask id="mask-2" fill="white">
                <use xlink:href="#path-1"></use>
            </mask>
            <g id="Clip-2"></g>
            <path d="M2943.35012,1366.39668 L1632.66004,56.5886812 C1557.22488,-18.8628937 1434.81017,-18.8628937 1359.24432,56.5886812 L1087.10273,328.619197 L1432.32724,673.652621 C1512.56491,646.554046 1604.59646,664.739475 1668.53177,728.633345 C1732.85911,792.95165 1750.86031,885.674485 1723.09076,966.153988 L2055.83531,1298.68289 C2136.367,1270.93134 2229.21531,1288.85557 2293.54266,1353.23918 C2383.38532,1442.99096 2383.38532,1588.50705 2293.54266,1678.32413 C2203.63465,1768.17387 2058.05687,1768.17387 1968.1162,1678.32413 C1900.52185,1610.74094 1883.82745,1511.48833 1918.06567,1428.29897 L1607.70012,1118.1672 L1607.70012,1934.25875 C1629.58906,1945.09818 1650.2692,1959.56163 1668.53177,1977.74706 C1758.37443,2067.5315 1758.37443,2213.01493 1668.53177,2302.92997 C1578.68911,2392.68175 1433.01331,2392.68175 1343.23599,2302.92997 C1253.39333,2213.01493 1253.39333,2067.5315 1343.23599,1977.74706 C1365.41896,1955.57847 1391.16297,1938.79694 1418.57315,1927.56573 L1418.57315,1103.89964 C1391.16297,1092.70107 1365.4843,1076.05014 1343.23599,1053.75095 C1275.18426,985.775969 1258.81656,885.935676 1293.70818,802.419827 L953.351515,462.218437 L54.5982061,1360.32399 C-20.869629,1435.84086 -20.869629,1558.17623 54.5982061,1633.62781 L1365.35362,2943.43581 C1440.82146,3018.85473 1563.2035,3018.85473 1638.80201,2943.43581 L2943.35012,1639.7005 C3018.88329,1564.24893 3018.88329,1441.8156 2943.35012,1366.39668" id="Fill-1" fill="#DE4C36" mask="url(#mask-2)"></path>
        </g>
    </g>
</svg>