<?xml version="1.0" encoding="UTF-8"?>
<svg width="3000px" height="3000px" viewBox="0 0 3000 3000" version="1.1" xmlns="http://www.w3.org/2000/svg" xmlns:xlink="http://www.w3.org/1999/xlink">
    <!-- Generator: Sketch 53.2 (72643) - https://sketchapp.com -->
    <title>Artboard</title>
    <desc>Created with Sketch.</desc>
    <g id="Artboard" stroke="none" stroke-width="1" fill="none" fill-rule="evenodd">
        <g id="grunt" transform="translate(391.000000, -0.312500)" fill-rule="nonzero">
            <path d="M144.164697,726.792694 C144.164697,726.792694 195.385215,924.371804 202.691223,990.243135 C210.014667,1056.09702 71,1202.45451 71,1275.63325 C71,1348.82071 100.22403,1480.53721 261.209031,1546.40854 C422.194031,1612.27115 444.120772,1780.5683 444.120772,1883.04644 C444.120772,1985.4897 385.594246,2183.05137 385.594246,2183.05137 C385.594246,2183.05137 349.029335,2673.34544 546.553091,2761.15644 C744.076848,2848.95872 700.197211,2848.95872 744.076848,2848.95872 C787.965204,2848.95872 1109.90033,2980.71882 1300.11808,2929.47975 C1490.35327,2878.25812 1541.53019,2819.72036 1541.53019,2819.72036 C1541.53019,2819.72036 1731.7741,2834.3439 1790.30062,2666.01187 C1848.85331,2497.71472 1885.41822,2146.47072 1863.4566,1985.47226 C1841.50371,1824.45636 1812.25352,1612.27987 1943.92731,1539.09241 C2075.66212,1465.90495 2214.65063,1378.12011 2192.69774,1304.92393 C2170.74484,1231.73647 2053.71794,1129.28448 2053.71794,1129.28448 C2053.71794,1129.28448 2024.4416,946.355075 2046.37706,902.440855 C2068.31252,858.535354 2200.02118,748.741084 2126.84777,668.263654 C2053.72666,587.777504 1921.99185,587.777504 1921.99185,587.777504 L1753.72699,602.392324 C1753.72699,602.392324 1468.39165,346.284173 1095.25344,360.916433 C722.13267,375.548693 487.991692,602.392324 487.991692,602.392324 C487.991692,602.392324 363.623913,558.486824 253.86815,602.392324 C144.112386,646.315264 122.229237,602.383604 144.164697,726.792694 Z" id="Path" fill="#FBA919"></path>
            <path d="M812.948085,1816.31875 C812.948085,1816.31875 667.905899,2037.98099 561.517774,2195.29052 C545.057725,2219.62888 667.905899,2221.3125 667.905899,2221.3125 L812.948085,1816.31002 L812.948085,1816.31875 Z M882,1356.74252 C882,1356.74252 838.275266,1465.76789 814.327029,1523.56059 C788.336558,1586.39542 689.209707,1617.65146 689.209707,1617.65146 C689.209707,1617.65146 740.588451,1563.7843 740.588451,1427.32376 C740.588451,1370.08064 814.536489,1347.3125 814.536489,1347.3125 L882,1356.7338 L882,1356.74252 Z" id="Shape" fill="#E78724"></path>
            <path d="M836.96418,1419.27801 C836.96418,1419.27801 747.428231,1525.83679 581.197031,1466.15585 C414.922214,1406.50107 397.876887,1193.36608 397.876887,1133.69386 C397.876887,1074.02164 713.346299,1193.36608 755.994512,1218.94611 C798.634001,1244.52615 879.586223,1346.80269 836.955457,1419.27801 L836.96418,1419.27801 Z M209,280.691635 C209,280.691635 362.469013,250.829362 464.767149,331.825545 C567.117625,412.804284 596.925141,476.750016 596.925141,476.750016 L424.474228,613.415267 C424.474228,613.415267 341.149268,574.79665 315.572553,463.964359 C289.995838,353.140788 307.049889,302.006879 209,280.691635 Z" id="Shape" fill="#E78724"></path>
            <path d="M792.716257,1111.22198 C726.666581,1017.4665 617.807576,976.570554 530.889551,969.795255 C382.692008,958.206617 312.334366,1010.59528 312.334366,1010.59528 C312.334366,1010.59528 555.045559,1020.86723 625.002055,1112.73923 C755.235202,1283.73485 945.230487,1297.62552 975.612989,1260.06927 C940.477771,1261.82195 901.836879,1244.41719 860.466446,1205.30881 C834.627366,1180.841 813.680532,1140.98272 792.716257,1111.22198 L792.716257,1111.22198 Z M382.988508,1442.73201 C382.988508,1442.73201 113.696985,1350.16242 164.878072,1256.4331 C216.006835,1162.6689 175.307886,1111.57949 175.307886,1111.57949 C175.307886,1111.57949 24.9389183,1223.82098 63.2484279,1343.14297 C86.8027155,1416.372 126.306945,1469.39721 343.240102,1571.05284 C447.294068,1764.31016 364.727613,2112.16113 369.672182,2113.79173 C377.91313,2116.52976 515.768065,2045.6638 506.358559,1720.22276 C503.480767,1620.29365 495.492716,1483.86339 382.988508,1442.74073 L382.988508,1442.73201 Z M735.875514,447.32122 C622.961439,504.68018 468.267064,584.56243 468.267064,584.56243 L529.154156,615.020753 C523.337529,624.429437 520.538222,630.044999 520.538222,630.044999 L583.029901,658.454165 C583.029901,658.454165 735.579014,768.951695 829.037474,840.000769 C797.878841,744.030456 706.399952,593.290968 706.399952,593.290968 C706.399952,593.290968 680.482387,524.029456 735.875514,447.3125 L735.875514,447.32122 Z M1111,2785.48801 C763.9209,2785.48801 646.367477,2609.31281 646.367477,2609.31281 L700.609487,2741.38317 C721.102851,2798.51542 939.815007,2976.3125 1110.47677,2976.3125 L1111,2785.48801 Z" id="Shape" fill="#E78724"></path>
            <path d="M684.602111,2490.14649 C684.602111,2490.14649 716.530394,2685.3125 844.36559,2685.3125 C952.993248,2685.3125 985,2520.45313 985,2486.37888 L684.602111,2490.14649 L684.602111,2490.14649 Z M471.871859,2195.80148 C483.232469,2164.52678 522.998963,2038.08488 535.77202,1923.0156 C551.082251,1785.19236 545.502212,1583.6249 545.502212,1583.6249 C545.502212,1583.6249 511.394226,1715.7531 481.567176,1737.10293 C451.757564,1758.40043 396.349525,1903.30539 396.349525,1903.30539 C396.349525,1903.30539 366.670695,2119.0363 352.546222,2191.54547 C391.641367,2199.3685 424.546157,2176.33546 471.871859,2195.80148 L471.871859,2195.80148 Z M163.173663,1340.69215 C163.173663,1340.69215 235.592101,1315.09503 256.918311,1157.41332 C278.218364,999.705439 231.337322,863.3125 231.337322,863.3125 C231.337322,863.3125 235.592101,1080.68302 210.037268,1123.32162 C184.456279,1165.92534 163.173663,1178.71954 133.329175,1234.14361 C103.484688,1289.57641 146.102232,1323.63322 163.173663,1340.69215 L163.173663,1340.69215 Z" id="Shape" fill="#E78724"></path>
            <path d="M249,317.3125 L234.190543,308.3125 C190.530588,309.728701 249,317.3125 249,317.3125 Z" id="Path" fill="#FDC168"></path>
            <path d="M794.248628,400.649005 C794.248628,400.649005 726.08883,389.282225 691.974049,338.088062 C657.859268,286.885169 561.279207,184.470653 407.300503,183.335721 C253.33052,182.183328 101,224.306766 101,224.306766 L233.970905,308.422686 C248.037148,307.959983 272.629091,308.152048 313.293003,309.513967 C480.178117,315.066403 505.868849,480.3125 505.868849,480.3125 L1094,399.234705" id="Path" fill="#FBA919"></path>
            <path d="M851,1312.28656 C851,1312.28656 771.472589,1391.82178 649.339964,1366.24288 C527.216054,1340.69013 453.362947,1286.71637 447.688644,1192.97065 C442.01434,1099.23365 473.270948,1062.3125 473.270948,1062.3125 C473.270948,1062.3125 609.567542,1104.94401 674.922269,1161.75986 C740.24213,1218.55827 788.512932,1309.45318 850.991284,1312.28656 L851,1312.28656 Z" id="Path" fill="#FFFFFF"></path>
            <path d="M755.473982,1283.3393 C755.473982,1283.3393 686.488082,1314.90173 609.385681,1289.19067 C508.45686,1255.46236 501.735246,1150.3125 501.735246,1150.3125 C501.735246,1150.3125 439.810964,1332.34228 613.413419,1367.38059 C752.649335,1395.47587 835,1314.64846 835,1314.64846 L755.473982,1283.33057 L755.473982,1283.3393 Z" id="Path" fill="#C9C9C9"></path>
            <path d="M804.201196,362.218786 C796.781708,206.346184 924.534657,82.1992475 968.807467,76.905823 C971.248662,103.320622 966.331398,206.354905 1010.58677,238.036966 C1023.47279,153.882854 1067.0394,61.0953147 1239.08259,0.3125 C1202.23799,98.0620796 1234.15661,179.940106 1249.37049,217.892303 C1366.84426,111.238957 1446,128.854636 1446,128.854636 C1446,128.854636 1364.36819,269.745189 1396.30425,362.192624 C1160.46741,343.69616 805.352045,387.255724 804.201196,362.227506 L804.201196,362.218786 Z M304.227085,599.664191 C247.948829,552.9652 289.893785,509.632372 285.447323,456.576039 C283.032284,428.347348 280.800335,401.714534 271.497639,387.020267 C219.709437,305.238167 97.5537985,280.419244 96.3332011,280.157625 L39,268.92545 L76.951859,224.519984 C81.8691226,218.764366 237.721967,70.0165227 478.920721,147.90922 C647.642149,202.334693 772.544132,386.898178 777.19112,394.35432 L692.595006,434.14657 C691.601091,432.576856 592.854765,259.088575 448.109357,212.407025 C331.106382,174.646682 223.257888,210.575692 177.075716,234.121402 C226.178603,253.725386 290.373305,289.436379 329.057523,350.524416 C347.305453,379.380992 350.391821,415.70243 353.364847,450.881465 C357.288196,497.449647 360.949988,541.41036 395.213899,569.883228 L304.227085,599.664191 L304.227085,599.664191 Z M153.936677,1281.3125 C153.936677,1281.3125 224.827228,1193.37363 245.830221,1022.27481 C254.077971,954.87303 239.422085,821.944416 215.977897,770.806622 C220.241269,896.531993 188.287774,1022.27481 188.287774,1022.27481 C188.287774,1022.27481 166.744231,1255.73488 153.936677,1281.3125 Z" id="Shape" fill="#463014"></path>
            <path d="M527.495727,510.186717 C527.452176,510.003653 504.762446,410.76527 441.858327,360.666624 C353.120143,290.021169 244.775593,327.601692 243.730385,327.932951 L228,279.290104 C233.243462,277.590219 357.083224,238.536464 471.21126,318.832031 C586.027391,399.580902 599.806721,472.780542 601,480.861531 L527.487017,510.186717 L527.495727,510.186717 Z M376.471838,1217.3125 C376.471838,1217.3125 339.314683,1164.07561 345.995306,1105.52984 C349.322553,1076.61437 362.718639,1046.93177 386.610359,1036.40121 C431.031711,1016.87433 450.716467,1067.26065 450.716467,1067.26065 C450.716467,1067.26065 388.204301,1082.69909 376.471838,1217.3125 L376.471838,1217.3125 Z" id="Shape" fill="#463014"></path>
            <path d="M784.671426,1298.69004 C786.225026,1301.58272 787.028011,1303.21203 787.028011,1303.21203 C787.028011,1303.21203 670.883286,1390.21892 551.867018,1301.92252 C488.151944,1254.61154 494.174328,1137.60618 513.690342,1087.98628 C564.452927,1099.46987 607.499879,1120.16298 643.477076,1144.33252 C598.003714,1103.8176 558.203613,1073.99338 558.30835,1073.30507 L506.620588,1058.70227 L406.160245,1024.3125 C404.877215,1031.96242 368.236683,1203.41461 474.003706,1320.23701 C520.873562,1372.04384 740.646928,1488.04722 845,1289.68963 L784.671426,1298.68133 L784.671426,1298.69004 Z" id="Path" fill="#463014"></path>
            <path d="M773.710041,1311.62908 C839.014583,1411.07355 1003.79718,1354.24315 1000.96392,1249.11216 C1000.96392,1249.11216 890.858944,1309.90219 793.577756,1197.96829 C736.781722,1132.62555 554.799035,952.444597 308,1012.31885 C478.43169,1049.82203 704.072786,1205.59103 773.701324,1311.62908 L773.710041,1311.62908 Z" id="Path" fill="#463014"></path>
            <path d="M284.829527,1592.91598 C300.546305,1601.99619 355.982398,1659.41693 356.017285,1745.282 C356.017285,1788.34538 351.734856,2004.66535 330.418649,2136.82115 C362.471456,2157.65067 384.799397,2162.08174 416.721376,2183.3125 C432.69981,2030.2574 444.160324,1808.42475 438.82255,1718.87003 C432.717253,1616.78968 378.057406,1548.28254 327.374722,1519.07062 C311.500951,1509.93808 294.92071,1500.96255 278.218363,1491.93468 C191.409768,1445.02464 101.635744,1396.49221 101.635744,1313.63643 C101.635744,1248.81022 126.841897,1228.53894 153.513321,1207.04651 L156.391532,1204.71758 C174.096892,1190.41255 194.122265,1174.18855 205.992705,1147.55851 C238.376943,1074.74242 243.671107,889.23932 205.992705,842.154836 C187.205836,818.691097 136.880748,739.786642 151.350301,686.762081 C156.862512,666.525697 169.605138,651.52286 190.354424,640.898758 C212.307326,629.64663 241.970346,623.950786 278.480019,623.950786 C350.191088,623.950786 429.73438,645.783403 470.770695,658.780046 C617.411196,705.262673 794.360133,839.276385 845.077704,879.243244 C846.534253,880.359734 847.388995,881.013928 847.545988,881.118599 L880,903.692635 L859.70425,869.72691 C858.448303,867.607323 729.896924,656.206885 500.032509,578.698043 C455.315572,563.616703 367.460355,538.3125 281.114018,538.3125 C229.716143,538.3125 186.089439,547.296757 151.559626,564.977426 C109.459245,586.513475 80.9562322,620.871715 69.1119569,664.310162 C40.0856327,770.78669 134.621789,889.335269 137.840152,893.129591 C148.864573,912.80773 153.539486,1055.74464 128.071678,1112.94732 C124.582937,1120.84998 114.971456,1128.60435 102.821916,1138.41725 C99.0104662,1141.49632 94.7542023,1144.69751 90.2450048,1148.11676 C54.3196955,1175.23526 0,1216.20521 0,1310.64458 C0,1439.86088 130.949889,1509.92064 236.187758,1566.25105 C253.457025,1575.5406 269.932604,1584.33296 284.829527,1592.91598 Z" id="Path" fill="#463014"></path>
            <path d="M304.158417,599.3125 C247.894731,552.640189 289.828828,509.33212 285.383517,456.3061 C282.969103,428.093537 280.737732,401.47594 271.437445,386.790068 C219.662651,305.054693 97.5386387,280.249951 96.3183574,279.988481 L39,268.762723 L76.9420331,224.382628 C81.8580236,218.630299 237.670517,69.9674407 478.806824,147.815635 C647.484569,202.210012 772.354215,386.668049 777,394.11993 L692.425787,433.889445 C691.43213,432.320628 592.71137,258.931469 448.003437,212.276589 C331.030755,174.537821 223.210183,210.446302 177.039967,233.97856 C226.130142,253.571343 290.308224,289.261934 328.982426,350.315069 C347.225632,379.155157 350.3112,415.455844 353.283457,450.614779 C357.20579,497.156355 360.866634,541.091952 395.121674,569.548552 L304.158417,599.3125 L304.158417,599.3125 Z" id="Path" fill="#463014"></path>
            <path d="M302.559443,608.3125 L298.921436,605.297356 C257.167239,570.684203 264.574116,536.593908 271.745439,503.601612 C275.008303,488.377751 278.445653,472.639746 277.049775,456.49217 C274.772749,429.347162 272.582966,403.735869 264.399631,390.81258 C215.064073,312.993986 95.8212043,288.071121 94.6434324,287.827121 L23,273.788403 L70.494745,218.321958 C71.3671687,217.276244 171.503958,116.3125 341.094397,116.3125 C387.332852,116.3125 434.696733,123.998502 481.816336,139.204935 C658.02847,195.95238 783.727274,387.178722 784.91377,389.069722 L790,397.191439 L689.86321,444.231167 L685.850061,437.869736 C675.066905,419.517445 580.121036,263.1134 445.802687,219.838244 C412.816347,209.206813 378.058988,203.830097 342.533896,203.830097 C278.183926,203.830097 226.004265,221.345816 198.23502,233.110105 C244.639235,253.980826 300.919287,289.108122 336.514173,345.201995 C355.881978,375.75429 359.022703,413.095015 362.093635,449.180882 C365.862505,494.042038 369.421994,536.236622 400.933937,562.362058 L412.825072,572.209204 L302.568167,608.3125 L302.559443,608.3125 Z" id="Path" fill="#463014"></path>
            <path d="M527.495727,510.3125 C527.452176,510.12934 504.762446,410.83935 441.858327,360.714651 C353.120143,290.032458 244.775593,327.632524 243.730385,327.963956 L228,279.295813 C233.243462,277.595044 357.083224,238.520979 471.21126,318.858303 C586.027391,399.649166 599.806721,472.886872 601,480.972064 L527.487017,510.3125 L527.495727,510.3125 Z" id="Path" fill="#463014"></path>
            <path d="M521.608689,522.452347 L519.392718,512.684027 C519.165887,511.724638 496.875318,415.838111 436.616627,367.938455 C402.269085,340.604603 360.854867,326.719633 313.586647,326.719633 C276.691612,326.719633 249.27116,335.528565 246.278727,336.566449 L238.138962,339.27018 L217,274.35446 L225.104868,271.737946 C228.734174,270.577958 261.659656,260.3125 308.229932,260.3125 C369.666403,260.3125 427.752745,278.340284 476.277263,312.4073 C594.168633,395.219978 608.563717,471.805352 609.785118,480.256693 L610.823309,486.937526 L521.608689,522.452347 Z M313.595372,309.703568 C364.091579,309.703568 410.347781,325.22822 447.25154,354.568067 C500.757629,397.173642 525.927214,472.380985 533.534797,499.348526 L591.533897,476.235983 C586.281873,455.766119 563.162496,394.330363 466.462433,326.370765 C420.197507,293.864935 366.97932,277.398338 308.238656,277.398338 C276.002393,277.398338 250.963673,282.526707 238.592625,285.64908 L249.053052,317.971754 C261.17982,314.709833 284.526028,309.703568 313.595372,309.703568 Z M838.780359,2639.2037 C813.584601,2639.2037 787.87411,2630.06335 770.059104,2614.64336 C756.41431,2602.88648 710.280248,2560.52512 689.935197,2508.63092 C682.345062,2489.2251 684.046299,2473.70045 695.065081,2462.52794 C702.655216,2454.87027 718.420014,2445.72119 750.411996,2445.72119 L773.173676,2445.6863 C800.297503,2445.65142 845.960453,2445.65142 884.992939,2445.65142 L922.420156,2445.65142 C946.760933,2445.65142 964.209519,2450.91933 974.233732,2461.17607 C987.119513,2474.40691 982.992922,2491.23982 979.381065,2500.10108 C973.117022,2515.62573 947.162251,2566.13318 903.226712,2613.09089 C887.496811,2629.9238 864.604267,2639.2037 838.780359,2639.2037 L838.780359,2639.2037 Z M865.188794,1318.11691 L774.229316,1312.27336 C774.229316,1312.27336 797.479557,1353.24797 812.546411,1406.24111 C829.558782,1466.18545 796.990996,1553.79507 796.990996,1553.79507 C796.990996,1553.79507 918.276117,1416.51529 865.188794,1318.11691 L865.188794,1318.11691 Z M751.642121,2879.3125 C427.892334,2854.43817 313.987965,2548.61126 313.987965,2484.91658 L398.535088,2484.95146 L356.265889,2484.91658 L398.535088,2484.91658 C398.962578,2512.45103 484.992831,2774.05885 758.115547,2795.06074 L751.642121,2879.3125 L751.642121,2879.3125 Z" id="Shape" fill="#463014"></path>
            <path d="M660.977451,2330.65864 C655.921079,2301.45386 655.398006,2273.74811 661.561549,2246.53041 C636.97712,2228.05409 592.864632,2221.1952 559.762831,2210.46674 C532.693805,2193.34128 394.175364,2228.01923 293.693047,2106.44161 C167.780665,1954.20376 194.274311,1863.3125 194.274311,1863.3125 C161.99199,1899.16701 130.703509,1885.50151 81.499778,2052.69471 C32.2175862,2219.92277 104.628321,2336.49785 239.581148,2453.53484 C303.335025,2508.81562 393.460498,2531.59726 470.98863,2540.3125 C445.018057,2514.25393 515.345218,2511.63935 563.816647,2493.51165 C559.954625,2454.38021 566.432012,2416.39919 595.610766,2385.8174 C613.203453,2367.37595 635.843795,2356.35989 659.338489,2347.57492 C660.646172,2344.54202 661.753343,2341.73571 663,2338.82482 C662.173025,2336.14287 661.497773,2333.41649 660.977451,2330.65864 L660.977451,2330.65864 Z" id="Path" fill="#FFFFFF"></path>
            <path d="M563.011968,2493.28668 C560.202797,2485.05756 558.082832,2476.6801 556.006488,2468.24154 C553.764386,2459.03506 542.597494,2432.92529 556.355454,2462.73511 C552.822179,2455.09939 550.510284,2447.23679 548.809078,2439.31311 C330.095029,2439.03386 139.821658,2288.82416 176.585161,1973.03734 C147.952552,1935.01586 107.85643,2049.7086 107.85643,2049.7086 C107.85643,2049.7086 -1.64018026,2367.72068 281.143911,2490.97415 C375.364562,2532.07609 458.636425,2561.54557 478.283175,2549.65131 C519.20809,2557.96769 556.146075,2529.43195 570,2510.66119 C567.408932,2504.90168 565.035968,2499.12472 563.011968,2493.28668 Z" id="Path" fill="#C9C9C9"></path>
            <path d="M656.432834,2284.79054 C656.772955,2258.14758 662.214893,2232.3334 675.095889,2206.62391 C675.994158,2204.85295 677.031963,2203.15178 678,2201.42444 C593.867995,2200.70035 496.977087,2192.64814 414.467198,2159.61052 C323.77696,2123.31888 210.333493,1999.17701 190.841938,1853.3125 C190.841938,1853.3125 20.0488213,1985.14889 70.2297646,2267.34263 C117.340897,2532.31528 339.00392,2618.69988 591.801105,2633.3125 C591.940642,2631.60261 563.37047,2572.57633 572.39676,2536.43299 C428.848216,2546.86684 268.3285,2491.39122 190.841938,2363.84701 C119.896166,2247.10306 139.79761,2047.79561 168.952093,2018.58781 C240.072286,2243.07259 495.982887,2288.70759 656.432834,2284.79054 L656.432834,2284.79054 Z" id="Path" fill="#463014"></path>
            <path d="M683.600554,2124.87043 C638.046648,2258.31041 545,2366.3125 545,2366.3125 C545,2366.3125 672.998092,2360.49787 680.063489,2337.89319 C685.294852,2321.22518 795.642553,2063.37662 838,1761.3125 C798.157799,1826.65076 687.504426,2113.44168 683.600554,2124.87043 L683.600554,2124.87043 Z" id="Path" fill="#463014"></path>
            <path d="M1407.06571,1816.31875 C1407.06571,1816.31875 1552.0653,2037.98099 1658.4827,2195.29052 C1674.94188,2219.62888 1552.0653,2221.3125 1552.0653,2221.3125 L1407.06571,1816.31002 L1407.06571,1816.31875 Z M1338,1356.74252 C1338,1356.74252 1381.72242,1465.76789 1405.63448,1523.56059 C1431.64103,1586.39542 1530.74517,1617.65146 1530.74517,1617.65146 C1530.74517,1617.65146 1479.37788,1563.7843 1479.37788,1427.32376 C1479.37788,1370.08064 1405.44248,1347.3125 1405.44248,1347.3125 L1338,1356.7338 L1338,1356.74252 Z" id="Shape" fill="#E78724"></path>
            <path d="M1382.03657,1419.27801 C1382.03657,1419.27801 1471.56244,1525.83679 1637.84348,1466.15585 C1804.12451,1406.48363 1821.15213,1193.36608 1821.15213,1133.69386 C1821.15213,1074.02164 1505.68748,1193.36608 1463.03991,1218.94611 C1420.40106,1244.52615 1339.41517,1346.80269 1382.03657,1419.27801 Z M2010,280.691635 C2010,280.691635 1856.5333,250.829362 1754.19309,331.825545 C1651.8965,412.804284 1622.03709,476.750016 1622.03709,476.750016 L1794.49413,613.415267 C1794.49413,613.415267 1877.85272,574.779207 1903.42905,463.955637 C1928.99666,353.140788 1911.95159,301.998157 2010,280.691635 L2010,280.691635 Z" id="Shape" fill="#E78724"></path>
            <path d="M1427.27666,1111.21555 C1493.32848,1017.45974 1602.15615,976.563659 1689.11188,969.788337 C1837.32297,958.199659 1907.64802,1010.5885 1907.64802,1010.5885 C1907.64802,1010.5885 1664.92893,1020.86049 1594.95271,1112.7328 C1464.70661,1283.72901 1274.77491,1297.61973 1244.39142,1260.06335 C1279.51906,1261.81604 1318.18737,1244.41122 1359.52427,1205.3027 C1385.35546,1180.83481 1406.32042,1140.97639 1427.27666,1111.21555 L1427.27666,1111.21555 Z M1837.01774,1442.72672 C1837.01774,1442.72672 2106.29186,1350.15682 2055.144,1256.42717 C2004.01357,1162.66265 2044.67896,1111.57306 2044.67896,1111.57306 C2044.67896,1111.57306 2195.0877,1223.81494 2156.74206,1343.12862 C2133.18701,1416.3579 2093.68149,1469.38329 1876.74128,1571.03928 C1772.68393,1764.29726 1855.25307,2112.14943 1850.3345,2113.78004 C1842.08456,2116.51807 1704.24258,2045.65187 1713.6524,1720.20971 C1716.51284,1620.28026 1724.50987,1483.84952 1837.01774,1442.72672 Z M1484.12797,447.3125 C1597.01084,504.671658 1751.73641,584.554184 1751.73641,584.554184 L1690.86478,615.012612 C1696.67287,624.421327 1699.48099,630.036909 1699.48099,630.036909 L1636.98728,658.446173 C1636.98728,658.446173 1484.42448,768.944084 1390.95426,839.993403 C1422.08774,744.031479 1513.56961,593.291471 1513.56961,593.291471 C1513.56961,593.291471 1539.54034,524.02972 1484.12797,447.3125 L1484.12797,447.3125 Z M1109,2785.48735 C1456.02935,2785.48735 1573.59532,2609.31155 1573.59532,2609.31155 L1519.38643,2741.38236 C1498.8924,2798.5148 1280.14696,2976.3125 1109.53197,2976.3125 L1109,2785.48735 Z" id="Shape" fill="#E78724"></path>
            <path d="M1535.39415,2490.14649 C1535.39415,2490.14649 1503.43046,2685.3125 1375.62802,2685.3125 C1267.02472,2685.3125 1235,2520.45313 1235,2486.37888 L1535.39415,2490.14649 Z M1748.12792,2195.80148 C1736.76713,2164.52678 1696.99997,2038.08488 1684.19183,1923.0156 C1668.88134,1785.19236 1674.49635,1583.6249 1674.49635,1583.6249 C1674.49635,1583.6249 1708.58746,1715.7531 1738.38885,1737.10293 C1768.24255,1758.40043 1823.61663,1903.30539 1823.61663,1903.30539 C1823.61663,1903.30539 1853.28724,2119.0363 1867.41194,2191.54547 C1828.33359,2199.3685 1795.46313,2176.33546 1748.12792,2195.80148 L1748.12792,2195.80148 Z M2056.85739,1340.69215 C2056.85739,1340.69215 1984.40288,1315.09503 1963.11119,1157.41332 C1941.81078,999.705439 1988.68389,863.3125 1988.68389,863.3125 C1988.68389,863.3125 1984.40288,1080.68302 2009.98429,1123.32162 C2035.56571,1165.94278 2056.85739,1178.71954 2086.69366,1234.14361 C2116.49504,1289.55897 2073.88551,1323.63322 2056.85739,1340.69215 L2056.85739,1340.69215 Z" id="Shape" fill="#E78724"></path>
            <path d="M1970,317.3125 L1984.82359,308.3125 C2028.45679,309.728701 1970,317.3125 1970,317.3125 Z" id="Path" fill="#FDC168"></path>
            <path d="M1424.70777,400.657735 C1424.70777,400.657735 1492.91117,389.290955 1526.99107,338.096792 C1561.08841,286.893899 1657.71207,184.479383 1811.6995,183.335721 C1965.66948,182.183328 2118,224.306766 2118,224.306766 L1985.02037,308.422686 C1970.95413,307.959983 1946.36219,308.152048 1905.66339,309.513967 C1738.80444,315.066403 1713.11371,480.3125 1713.11371,480.3125 L1125,399.234705" id="Path" fill="#FBA919"></path>
            <path d="M1368,1312.28656 C1368,1312.28656 1447.5311,1391.82178 1569.64325,1366.24288 C1691.78154,1340.69013 1765.62936,1286.71637 1771.31264,1192.97065 C1776.97849,1099.23365 1745.7553,1062.3125 1745.7553,1062.3125 C1745.7553,1062.3125 1609.4088,1104.94401 1544.09462,1161.75986 C1478.77173,1218.57571 1430.49868,1309.45318 1368,1312.28656 L1368,1312.28656 Z" id="Path" fill="#FFFFFF"></path>
            <path d="M1464.523,1283.3393 C1464.523,1283.3393 1533.53243,1314.90173 1610.60576,1289.19067 C1711.5569,1255.46236 1718.27826,1150.3125 1718.27826,1150.3125 C1718.27826,1150.3125 1780.16532,1332.34228 1606.56945,1367.38059 C1467.36497,1395.47587 1385,1314.64846 1385,1314.64846 L1464.523,1283.33057 L1464.523,1283.3393 Z" id="Path" fill="#C9C9C9"></path>
            <path d="M1914.79555,599.61659 C1971.05791,552.914337 1929.15967,509.578484 1933.60487,456.518445 C1935.97565,428.287784 1938.20697,401.653109 1947.51575,386.957816 C1999.28932,305.170005 2121.41045,280.349349 2122.66556,280.087712 L2180,268.854752 L2142.04143,224.446186 C2137.12556,218.690166 1981.31674,69.9319347 1740.14255,147.830072 C1571.50366,202.259345 1446.64568,386.835719 1442,394.292381 L1526.54607,434.08741 C1527.56585,432.517586 1626.29299,259.01719 1770.99751,212.33238 C1887.96743,174.569401 1995.76802,210.500919 2041.91971,234.048274 C1992.85685,253.653626 1928.65413,289.367114 1889.98084,350.459417 C1871.73807,379.318008 1868.67872,415.641982 1865.71525,450.823474 C1861.79301,497.394908 1858.09739,541.358691 1823.83444,569.833547 L1914.79555,599.61659 L1914.79555,599.61659 Z M2065.01735,1281.3125 C2065.01735,1281.3125 1994.18169,1193.36749 1973.18463,1022.25672 C1964.93921,954.850234 1979.56481,821.912337 2002.99366,770.770972 C1998.73149,896.505123 2030.71082,1022.25672 2030.71082,1022.25672 C2030.71082,1022.25672 2052.24828,1255.7331 2065.01735,1281.3125 Z" id="Shape" fill="#463014"></path>
            <path d="M1691.52354,510.186717 C1691.55837,510.003653 1714.24598,410.76527 1777.15294,360.666624 C1865.87412,290.021169 1974.21726,327.601692 1975.22754,327.932951 L1991,279.290104 C1985.73961,277.590219 1861.92883,238.536464 1747.77662,318.832031 C1632.97121,399.580902 1619.22801,472.780542 1618,480.861531 L1691.52354,510.186717 L1691.52354,510.186717 Z M1842.52461,1217.3125 C1842.52461,1217.3125 1879.67829,1164.07561 1872.96346,1105.52984 C1869.67136,1076.61437 1856.28523,1046.93177 1832.37833,1036.40121 C1787.96983,1016.87433 1768.27821,1067.26065 1768.27821,1067.26065 C1768.27821,1067.26065 1830.79324,1082.69909 1842.52461,1217.3125 Z" id="Shape" fill="#463014"></path>
            <path d="M1434.36332,1298.67213 C1432.80973,1301.56481 1432.00674,1303.19411 1432.00674,1303.19411 C1432.00674,1303.19411 1548.09878,1390.20085 1667.12345,1301.90461 C1730.87326,1254.59371 1724.8509,1137.58855 1705.30002,1087.96874 C1654.56376,1099.45231 1611.52566,1120.14538 1575.52237,1144.31489 C1621.00434,1103.80003 1660.81306,1073.97587 1660.67341,1073.28755 L1712.39594,1058.68478 L1812.83855,1024.3125 C1814.13031,1031.9624 1850.76201,1203.4143 1744.96037,1320.2452 C1698.09064,1372.04323 1478.31787,1488.04641 1374,1289.68916 L1434.36332,1298.66342 L1434.36332,1298.67213 Z" id="Path" fill="#463014"></path>
            <path d="M1445.24352,1311.62908 C1379.93736,1411.07355 1215.19426,1354.24315 1218.03631,1249.11216 C1218.03631,1249.11216 1328.10915,1309.90219 1425.39275,1197.96829 C1482.18148,1132.62555 1664.21227,952.444597 1911,1012.31885 C1740.5728,1049.82203 1514.91738,1205.59103 1445.24352,1311.62908 L1445.24352,1311.62908 Z" id="Path" fill="#463014"></path>
            <path d="M1934.21716,1592.91598 C1918.48263,1601.99619 1863.01927,1659.41693 1863.01927,1745.282 C1862.98438,1788.34538 1867.27562,2004.66535 1888.61841,2136.82115 C1856.55625,2157.65067 1834.22786,2162.08174 1802.30525,2183.3125 C1786.3265,2030.2574 1774.83087,1808.42475 1780.21236,1718.87003 C1786.30906,1616.78968 1840.94382,1548.28254 1891.61879,1519.07062 C1907.49287,1509.93808 1924.08217,1500.96255 1940.81973,1491.93468 C2027.63005,1445.02464 2117.40585,1396.49221 2117.40585,1313.63643 C2117.40585,1248.81022 2092.18176,1228.53894 2065.5098,1207.04651 L2062.66642,1204.71758 C2044.96071,1190.41255 2024.89133,1174.18855 2013.05554,1147.55851 C1980.66194,1074.74242 1975.35023,889.23932 2013.02066,842.154836 C2031.8079,818.691097 2082.16887,739.786642 2067.69903,686.762081 C2062.15182,666.525697 2049.40022,651.52286 2028.65925,640.898758 C2006.69719,629.64663 1977.08591,623.950786 1940.5319,623.950786 C1868.86302,623.950786 1789.27455,645.783403 1748.27231,658.780046 C1601.6289,705.262673 1424.68517,839.276385 1373.92299,879.243244 C1372.47513,880.359734 1371.63782,881.013928 1371.48082,881.118599 L1339,903.692635 L1359.29615,869.72691 C1360.58701,867.607323 1489.11477,656.206885 1718.97502,578.698043 C1763.70157,563.616703 1851.5498,538.3125 1937.89785,538.3125 C1989.30547,538.3125 2032.88071,547.296757 2067.45481,564.977426 C2109.56475,586.513475 2138.05089,620.871715 2149.91284,664.310162 C2178.93974,770.78669 2084.39299,889.335269 2081.16584,893.129591 C2070.14992,912.80773 2065.48364,1055.74464 2090.90834,1112.94732 C2094.41459,1120.84998 2104.01754,1128.60435 2116.20221,1138.41725 C2120.00502,1141.49632 2124.22648,1144.69751 2128.77065,1148.11676 C2164.70539,1175.23526 2219,1216.20521 2219,1310.64458 C2219,1439.86088 2088.04752,1509.92064 1982.84245,1566.25105 C1965.56412,1575.5406 1949.06205,1584.33296 1934.20844,1592.91598 L1934.21716,1592.91598 Z" id="Path" fill="#463014"></path>
            <path d="M1778.11883,584.124752 C1757.30602,548.876005 1704.07127,480.818475 1581.3995,421.013246 C1444.48648,354.297695 1286.03726,320.434498 1110.37477,320.356071 L1110.37477,320.3125 L1109.69495,320.3125 L1109.69495,320.329928 C934.006321,320.41707 775.52224,354.288981 638.652793,420.995818 C515.972308,480.80976 462.772417,548.858577 441.942184,584.107324 L433,595.932429 L538.057585,619.3125 L541.386936,615.103564 L543.147483,611.251909 C544.76858,604.306729 558.852955,566.82716 675.972901,509.723318 C801.189619,448.663252 947.236569,417.701868 1110.00872,417.649583 C1272.81572,417.701868 1418.80167,448.663252 1544.00095,509.723318 C1661.13833,566.82716 1675.26628,604.306729 1676.86995,611.243195 L1678.62178,615.103564 L1681.91627,619.3125 L1787,595.932429 L1778.11011,584.124752 L1778.11883,584.124752 Z" id="Path" fill="#463014"></path>
            <path d="M1914.79555,599.3125 C1971.05791,552.640189 1929.15967,509.33212 1933.60487,456.3061 C1935.97565,428.093537 1938.20697,401.47594 1947.51575,386.790068 C1999.28932,305.054693 2121.41045,280.249951 2122.66556,279.988481 L2180,268.762723 L2142.04143,224.382628 C2137.12556,218.630299 1981.31674,69.9674407 1740.14255,147.815635 C1571.50366,202.210012 1446.64568,386.668049 1442,394.11993 L1526.54607,433.889445 C1527.56585,432.320628 1626.29299,258.931469 1770.99751,212.276589 C1887.96743,174.537821 1995.76802,210.446302 2041.91971,233.97856 C1992.85685,253.571343 1928.65413,289.261934 1889.98084,350.315069 C1871.73807,379.155157 1868.67872,415.455844 1865.71525,450.614779 C1861.79301,497.156355 1858.09739,541.091952 1823.83444,569.548552 L1914.79555,599.3125 L1914.79555,599.3125 Z" id="Path" fill="#463014"></path>
            <path d="M1807.17936,572.209204 L1819.02674,562.353344 C1850.5645,536.227908 1854.09777,494.033324 1857.91022,449.172168 C1860.96367,413.077586 1864.11308,375.728147 1883.47195,345.193281 C1919.04898,289.116836 1975.36329,253.980826 2021.74953,233.083962 C1993.9806,221.337102 1941.7928,203.821383 1877.43484,203.821383 C1841.89271,203.821383 1807.20553,209.189384 1774.20212,219.82953 C1639.8504,263.104685 1544.91434,419.508731 1534.1662,437.861022 L1530.13565,444.222452 L1430,397.182724 L1435.0949,389.061008 C1436.27265,387.170007 1561.94386,195.95238 1738.15399,139.196221 C1785.27305,123.989788 1832.6364,116.3125 1878.90922,116.3125 C2048.49773,116.3125 2148.64211,217.302386 2149.49707,218.321958 L2197,273.788403 L2125.33121,287.818407 C2124.14473,288.062407 2004.91194,312.976557 1955.54205,390.81258 C1947.3588,403.744583 1945.21267,429.329734 1942.89205,456.49217 C1941.5398,472.648461 1944.93349,488.386465 1948.23994,503.601612 C1955.40246,536.593908 1962.80925,570.719061 1921.02936,605.297356 L1917.40012,608.3125 L1807.17936,572.209204 L1807.17936,572.209204 Z" id="Path" fill="#463014"></path>
            <path d="M1691.52354,510.3125 C1691.55837,510.12934 1714.24598,410.83935 1777.15294,360.714651 C1865.87412,290.032458 1974.21726,327.632524 1975.22754,327.963956 L1991,279.295813 C1985.73961,277.595044 1861.92883,238.520979 1747.77662,318.858303 C1632.97121,399.649166 1619.22801,472.886872 1618,480.972064 L1691.52354,510.3125 L1691.52354,510.3125 Z" id="Path" fill="#463014"></path>
            <path d="M1609.20292,486.94 L1610.19749,480.258836 C1611.44506,471.807078 1625.84887,395.235365 1743.71405,312.401151 C1792.20366,278.332452 1850.30745,260.3125 1911.74391,260.3125 C1958.34035,260.3125 1991.26583,270.552298 1994.91258,271.729788 L2003,274.346432 L1981.87849,339.265359 L1973.72128,336.561494 C1970.66777,335.53228 1943.26477,326.714192 1906.38719,326.714192 C1859.1277,326.714192 1817.73966,340.582403 1783.39213,367.93505 C1723.12472,415.854516 1700.82543,511.745781 1700.61605,512.687772 L1698.40008,522.439131 L1609.20292,486.94 Z M1970.9295,317.96588 L1981.42483,285.64161 C1969.04506,282.501637 1943.98017,277.39046 1911.74391,277.39046 C1853.01198,277.39046 1799.77635,293.875315 1753.5376,326.365306 C1656.80266,394.345706 1633.68328,455.767052 1628.43998,476.237927 L1686.4827,499.351612 C1694.07283,472.365295 1719.21624,397.154237 1772.74849,354.564001 C1809.68714,325.213983 1855.89099,309.697286 1906.37847,309.697286 C1935.41291,309.697286 1958.80274,314.703798 1970.93823,317.96588 L1970.9295,317.96588 Z M1316.78211,2613.1984 C1272.8553,2566.24709 1246.86563,2515.7197 1240.58414,2500.20301 C1236.98974,2491.35875 1232.90677,2474.50757 1245.78382,2461.26735 C1255.82548,2451.01883 1273.23044,2445.75065 1297.56249,2445.75065 L1335.01588,2445.75065 C1374.04836,2445.75065 1419.68513,2445.75065 1446.8264,2445.78554 L1469.5968,2445.82043 C1501.56261,2445.82043 1517.31868,2454.96124 1524.90009,2462.628 C1535.92759,2473.78363 1537.64628,2489.30032 1530.04742,2508.73326 C1509.71982,2560.63875 1463.56832,2603.00221 1449.93225,2614.75094 C1432.0649,2630.17169 1406.41548,2639.3125 1381.21973,2639.3125 C1355.39582,2639.3125 1332.51201,2630.03214 1316.78211,2613.1984 L1316.78211,2613.1984 Z M1354.80257,1318.16044 L1445.70969,1312.3166 C1445.70969,1312.3166 1422.49435,1353.29324 1407.4275,1406.289 C1390.41513,1466.2363 1422.98291,1553.85025 1422.98291,1553.85025 C1422.98291,1553.85025 1301.68908,1416.56368 1354.80257,1318.16044 L1354.80257,1318.16044 Z" id="Shape" fill="#463014"></path>
            <path d="M1110.00436,993.603231 C1052.11445,993.603231 976.635411,992.017547 920,951.3125 C920,951.3125 994.154841,1081.3125 1109.90853,1081.3125 L1110.00436,1064.8632 L1110.10019,1081.3125 C1225.86258,1081.3125 1300,951.321213 1300,951.321213 C1243.3733,992.008834 1167.842,993.603231 1110.00436,993.603231 Z" id="Path" fill="#E78724"></path>
            <path d="M1269.01625,992.3125 C1210.90947,1027.48709 1159.01005,1039.677 1109.50813,1040.75822 C1059.98877,1039.677 1008.1155,1027.48709 950,992.3125 C950,992.3125 1034.62754,1095.59536 1109.08094,1096.38884 L1109.08094,1096.44988 C1109.21171,1096.44988 1109.34248,1096.415 1109.49941,1096.415 C1109.63018,1096.415 1109.76095,1096.44988 1109.91788,1096.44988 L1109.91788,1096.38884 C1184.35385,1095.59536 1269.01625,992.3125 1269.01625,992.3125 L1269.01625,992.3125 Z M1467.69524,2878.3125 L1461.21762,2794.06438 C1734.07974,2773.07646 1820.05859,2511.53409 1820.50322,2483.9978 L1904.99999,2483.9978 C1905.03486,2547.67655 1791.17521,2853.44439 1467.69524,2878.3125 Z" id="Shape" fill="#463014"></path>
            <path d="M1558.99638,2330.65864 C1564.07887,2301.45386 1564.57578,2273.74811 1558.41229,2246.53041 C1583.0314,2228.05409 1627.10867,2221.1952 1660.21022,2210.46674 C1687.27903,2193.34128 1825.83127,2228.01923 1926.32153,2106.44161 C2052.22422,1954.20376 2025.6959,1863.3125 2025.6959,1863.3125 C2058.00413,1899.16701 2089.26621,1885.50151 2138.50443,2052.69471 C2187.78624,2219.92277 2115.3412,2336.49785 1980.38942,2453.53484 C1916.64475,2508.81562 1826.51126,2531.59726 1748.98373,2540.3125 C1774.9541,2514.25393 1704.62748,2511.63935 1656.18258,2493.51165 C1660.05329,2454.38021 1653.5498,2416.39919 1624.37128,2385.8174 C1606.8136,2367.37595 1584.13856,2356.35989 1560.6702,2347.57492 C1559.34509,2344.54202 1558.21178,2341.73571 1557,2338.82482 C1557.77589,2336.16667 1558.50818,2333.48238 1559.0051,2330.65864 L1558.99638,2330.65864 Z" id="Path" fill="#FFFFFF"></path>
            <path d="M1656.97931,2493.28668 C1659.82338,2485.05756 1661.89972,2476.6801 1663.98479,2468.24154 C1666.26179,2459.03506 1677.42868,2432.92529 1663.64455,2462.73511 C1667.18654,2455.09939 1669.48972,2447.23679 1671.19965,2439.31311 C1889.9137,2439.03386 2080.18707,2288.82416 2043.38867,1973.03734 C2072.02128,1935.01586 2112.14357,2049.7086 2112.14357,2049.7086 C2112.14357,2049.7086 2221.64018,2367.72068 1938.85609,2490.97415 C1844.63544,2532.07609 1761.38102,2561.54557 1741.72555,2549.65131 C1700.76574,2557.96769 1663.81903,2529.43195 1650,2510.66119 C1652.58234,2504.90168 1655.00765,2499.12472 1656.97931,2493.28668 L1656.97931,2493.28668 Z" id="Path" fill="#C9C9C9"></path>
            <path d="M1562.53228,2284.79054 C1562.22704,2258.14758 1556.75022,2232.3334 1543.91283,2206.62391 C1542.99712,2204.85295 1541.95932,2203.15178 1541,2201.42444 C1625.12328,2200.70035 1722.02291,2192.64814 1804.5328,2159.61052 C1895.21432,2123.31888 2008.65779,1999.17701 2028.15806,1853.3125 C2028.15806,1853.3125 2198.95118,1985.14889 2148.77024,2267.34263 C2101.62422,2532.31528 1879.98736,2618.69988 1627.1989,2633.3125 C1627.05936,2631.60261 1655.63825,2572.57633 1646.60324,2536.43299 C1790.10818,2546.86684 1950.63662,2491.39122 2028.16678,2363.84701 C2099.06895,2247.10306 2079.18495,2047.79561 2050.02174,2018.58781 C1978.92771,2243.07259 1722.99095,2288.70759 1562.53228,2284.79054 L1562.53228,2284.79054 Z" id="Path" fill="#463014"></path>
            <path d="M1664.93177,2351.11536 C1634.74759,2318.45073 1579.25159,2279.52189 1451.28917,2279.52189 L1110.44245,2279.3125 L1109.60569,2279.3125 C1011.3742,2279.3823 768.715396,2279.52189 768.715396,2279.52189 C640.779119,2279.52189 585.28312,2318.45946 555.081512,2351.11536 C511.090888,2398.65532 504.187663,2464.77851 534.624608,2547.43469 C615.493444,2767.44111 729.143881,2990.96352 1109.58826,2991.2776 L1109.58826,2991.3125 C1109.72772,2991.3125 1109.84975,2991.2776 1110.00664,2991.2776 C1110.13738,2991.2776 1110.26813,2991.3125 1110.42502,2991.3125 L1110.42502,2991.2776 C1490.83453,2990.94607 1604.48497,2767.44111 1685.37995,2547.43469 C1715.8169,2464.77851 1708.89624,2398.65532 1664.93177,2351.11536 Z M1605.70524,2532.00973 C1567.17967,2642.48842 1463.62258,2909.89521 1109.99792,2910.35761 C756.329687,2909.89521 652.816182,2642.49715 614.281893,2532.00973 C592.962086,2470.71119 594.583298,2425.35237 619.267556,2397.18087 C636.133389,2377.91711 674.868149,2354.92798 763.145749,2354.92798 L855.371785,2354.89309 C923.410385,2354.83201 1008.83779,2354.76222 1110.00664,2354.71859 C1211.14062,2354.76222 1296.61161,2354.83201 1364.63278,2354.89309 L1456.82395,2354.92798 C1545.1277,2354.92798 1583.85374,2377.90839 1600.72829,2397.18087 C1625.3864,2425.37855 1627.02504,2470.71119 1605.69652,2532.00973 L1605.70524,2532.00973 Z" id="Shape" fill="#463014"></path>
            <path d="M1535.86013,2124.87043 C1581.26262,2258.31041 1674,2366.3125 1674,2366.3125 C1674,2366.3125 1546.42735,2360.49787 1539.37674,2337.89319 C1534.19758,2321.22518 1424.21666,2063.37662 1382,1761.3125 C1421.67495,1826.65076 1531.96053,2113.44168 1535.86013,2124.87043 L1535.86013,2124.87043 Z" id="Path" fill="#463014"></path>
        </g>
    </g>
</svg>