<?xml version="1.0" encoding="UTF-8"?>
<svg width="3000px" height="3000px" viewBox="0 0 3000 3000" version="1.1" xmlns="http://www.w3.org/2000/svg" xmlns:xlink="http://www.w3.org/1999/xlink">
    <!-- Generator: Sketch 53.2 (72643) - https://sketchapp.com -->
    <title>Artboard</title>
    <desc>Created with Sketch.</desc>
    <g id="Artboard" stroke="none" stroke-width="1" fill="none" fill-rule="evenodd">
        <g id="html-5" transform="translate(178.000000, 0.000000)" fill-rule="nonzero">
            <polygon id="Path" fill="#E44D26" points="2645 0 2404.03553 2699.691 1320.88258 3000 240.715632 2700.10576 0 0"></polygon>
            <polygon id="Path" fill="#F16529" points="1323 2770 2198.11893 2527.39754 2404 221 1323 221"></polygon>
            <path d="M853.743316,883.107999 L1322,883.107999 L1322,552 L492,552 L499.918285,640.829049 L581.277624,1553.2759 L1322,1553.2759 L1322,1222.1679 L883.996554,1222.1679 L853.743316,883.107999 L853.743316,883.107999 Z M928.345167,1718.83508 L596.067405,1718.83508 L642.437047,2238.72555 L1320.47646,2427 L1322,2426.5853 L1322,2082.09281 L1320.54901,2082.47641 L951.913465,1982.90659 L928.345167,1718.83508 L928.345167,1718.83508 Z" id="Shape" fill="#EBEBEB"></path>
            <path d="M1322.01036,1553.35895 L1729.52112,1553.35895 L1691.09841,1982.81791 L1322,2082.49967 L1322,2427 L2000.43852,2238.86545 L2005.41233,2182.91759 L2083.19034,1311.14285 L2091.26243,1222.22349 L1322.01036,1222.22349 L1322.01036,1553.35895 Z M1322.01036,882.326729 L1322.01036,883.135464 L2121.37472,883.135464 L2128.00647,808.711117 L2143.09371,640.836417 L2151,552 L1322.01036,552 L1322.01036,882.337097 L1322.01036,882.326729 Z" id="Shape" fill="#FFFFFF"></path>
        </g>
    </g>
</svg>