<?xml version="1.0" encoding="UTF-8"?>
<svg width="3000px" height="3000px" viewBox="0 0 3000 3000" version="1.1" xmlns="http://www.w3.org/2000/svg" xmlns:xlink="http://www.w3.org/1999/xlink">
    <!-- Generator: Sketch 53.2 (72643) - https://sketchapp.com -->
    <title>Artboard</title>
    <desc>Created with Sketch.</desc>
    <g id="Artboard" stroke="none" stroke-width="1" fill="none" fill-rule="evenodd">
        <g id="javascript" fill-rule="nonzero">
            <polygon id="Path" fill="#F7DF1E" points="0 0 3000 0 3000 3000 0 3000"></polygon>
            <path d="M789.011721,2507.15379 L1018.62874,2368.17917 C1062.93463,2446.72749 1103.23189,2513.19056 1199.89608,2513.19056 C1292.55165,2513.19056 1350.9815,2476.9465 1350.9815,2335.95572 L1350.9815,1377.12931 L1632.95682,1377.12931 L1632.95682,2339.94116 C1632.95682,2632.01526 1461.75794,2764.96483 1211.98057,2764.96483 C986.407342,2764.96483 855.470552,2648.13285 789,2507.13034 M1786.11689,2476.93478 L2015.71046,2343.99693 C2076.15635,2442.70689 2154.71139,2515.21844 2293.67716,2515.21844 C2410.52515,2515.21844 2485.02467,2456.79659 2485.02467,2376.22038 C2485.02467,2279.5383 2408.48567,2245.28697 2279.57663,2188.90472 L2209.09745,2158.66227 C2005.65373,2072.07274 1870.70831,1963.29368 1870.70831,1733.66204 C1870.70831,1522.15242 2031.83874,1361 2283.62043,1361 C2462.88345,1361 2591.79249,1423.45418 2684.43633,1586.61104 L2464.87605,1727.62527 C2416.52637,1641.01229 2364.17978,1606.77268 2283.6087,1606.77268 C2201.02159,1606.77268 2148.65157,1659.14604 2148.65157,1727.62527 C2148.65157,1812.22208 2201.02159,1846.48514 2321.86649,1898.8585 L2392.35739,1929.06579 C2632.05458,2031.80808 2767,2136.54308 2767,2372.19977 C2767,2626.02538 2567.60007,2765 2299.71354,2765 C2037.87513,2765 1868.68055,2640.11508 1786.10516,2476.9465" id="Shape" fill="#000000"></path>
        </g>
    </g>
</svg>