<?xml version="1.0" encoding="UTF-8"?>
<svg width="3000px" height="3000px" viewBox="0 0 3000 3000" version="1.1" xmlns="http://www.w3.org/2000/svg" xmlns:xlink="http://www.w3.org/1999/xlink">
    <!-- Generator: Sketch 53.2 (72643) - https://sketchapp.com -->
    <title>Artboard</title>
    <desc>Created with Sketch.</desc>
    <g id="Artboard" stroke="none" stroke-width="1" fill="none" fill-rule="evenodd">
        <g id="jest" transform="translate(135.000000, 0.000000)">
            <path d="M1799.63221,829 L1620,1191.73252 C1679.00962,1246.40274 1720.66346,1318.42857 1737.15144,1400 L1872.52644,1400 C1888.14663,1322.76748 1926.32933,1253.34498 1981,1199.54255 L1799.63221,829 Z" id="Path"></path>
            <path d="M1469.15029,1103.46351 L1799.49711,435.749715 L2128.97688,1107.79932 C2141.98266,1103.46351 2154.98844,1099.99487 2167.99422,1096.52623 L2481,173 L1117.12717,173 L1429.2659,1093.92474 C1442.27168,1096.52623 1456.14451,1099.99487 1469.15029,1103.46351 Z M1355.56647,1694 C1476.08671,1694 1574.06358,1596.01083 1574.06358,1475.47548 C1574.06358,1431.25029 1561.0578,1390.49373 1538.51445,1355.8073 C1531.57803,1344.53421 1522.90751,1334.12828 1514.23699,1324.58951 L1513.36994,1323.72235 C1504.69942,1314.18358 1494.2948,1305.51197 1483.89017,1298.57469 L1483.02312,1297.70753 C1480.42197,1295.9732 1476.95376,1293.37172 1473.48555,1291.6374 C1472.6185,1291.6374 1472.6185,1290.77024 1471.75145,1290.77024 C1468.28324,1289.03592 1464.81503,1286.43444 1461.34682,1284.70011 L1460.47977,1284.70011 C1457.01156,1282.96579 1452.6763,1280.36431 1449.20809,1278.62999 L1448.34104,1278.62999 C1444.87283,1276.89567 1441.40462,1275.16135 1437.93642,1274.29418 C1437.06936,1274.29418 1436.20231,1273.42702 1435.33526,1273.42702 C1432.7341,1272.55986 1429.2659,1270.82554 1426.66474,1269.95838 C1425.79769,1269.95838 1424.93064,1269.09122 1423.19653,1269.09122 C1419.72832,1268.22406 1416.26012,1266.48974 1412.79191,1265.62258 L1411.92486,1265.62258 C1407.5896,1264.75542 1404.12139,1263.88826 1399.78613,1263.02109 C1398.91908,1263.02109 1398.05202,1263.02109 1396.31792,1262.15393 C1392.84971,1261.28677 1390.24855,1261.28677 1386.78035,1260.41961 C1385.04624,1260.41961 1384.17919,1260.41961 1382.44509,1259.55245 C1379.84393,1259.55245 1376.37572,1258.68529 1373.77457,1258.68529 L1339.95954,1258.68529 C1336.49133,1258.68529 1333.89017,1259.55245 1330.42197,1259.55245 L1326.95376,1259.55245 C1323.48555,1260.41961 1320.01734,1260.41961 1316.54913,1261.28677 L1313.94798,1261.28677 C1309.61272,1262.15393 1306.14451,1263.02109 1301.80925,1263.88826 C1206.43353,1287.3016 1135.33526,1374.01767 1135.33526,1476.34265 C1137.06936,1595.14367 1235.04624,1694 1355.56647,1694 L1355.56647,1694 Z M2274.64162,1256.95097 L2272.90751,1256.95097 C2269.43931,1256.95097 2266.83815,1256.08381 2263.36994,1256.08381 L2252.09827,1256.08381 C2247.76301,1256.08381 2243.42775,1256.08381 2238.22543,1256.95097 L2233.89017,1256.95097 C2230.42197,1256.95097 2226.95376,1257.81813 2223.48555,1257.81813 C2222.6185,1257.81813 2220.88439,1257.81813 2220.01734,1258.68529 L2207.01156,1261.28677 L2206.14451,1261.28677 C2201.80925,1262.15393 2198.34104,1263.02109 2194.00578,1263.88826 C2193.13873,1263.88826 2191.40462,1264.75542 2190.53757,1264.75542 C2187.06936,1265.62258 2183.60116,1266.48974 2180.13295,1268.22406 C2179.2659,1268.22406 2178.39884,1269.09122 2177.53179,1269.09122 C2173.19653,1270.82554 2168.86127,1272.55986 2165.39306,1274.29418 C2161.0578,1276.02851 2157.5896,1277.76283 2153.25434,1279.49715 C2152.38728,1279.49715 2151.52023,1280.36431 2150.65318,1280.36431 C2147.18497,1282.09863 2143.71676,1283.83295 2140.24855,1286.43444 C2140.24855,1286.43444 2139.3815,1286.43444 2139.3815,1287.3016 C2131.57803,1291.6374 2123.77457,1296.84036 2116.83815,1302.91049 L2115.9711,1303.77765 C2104.69942,1312.44926 2095.16185,1321.98803 2085.62428,1332.39396 C2076.08671,1342.79989 2068.28324,1354.94014 2061.34682,1367.08039 C2043.13873,1399.16534 2032.7341,1436.45325 2032.7341,1475.47548 C2032.7341,1596.01083 2130.71098,1694 2251.23121,1694 C2371.75145,1694 2469.72832,1596.01083 2469.72832,1475.47548 C2469.72832,1369.68187 2393.42775,1280.36431 2293.71676,1260.41961 C2288.51445,1258.68529 2281.57803,1257.81813 2274.64162,1256.95097 L2274.64162,1256.95097 Z M449.49711,1694 C570.017341,1694 667.99422,1596.01083 667.99422,1475.47548 C667.99422,1354.94014 570.017341,1256.95097 449.49711,1256.95097 C328.976879,1256.95097 231,1354.94014 231,1475.47548 C231,1596.01083 328.976879,1694 449.49711,1694 L449.49711,1694 Z" id="Shape"></path>
            <path d="M2253.78477,1863.39528 C2073.42965,1863.39528 1921.68856,1739.43551 1878.33397,1573 L1732.66253,1573 C1689.30793,1739.43551 1537.56685,1863.39528 1357.21173,1863.39528 C1336.40152,1863.39528 1316.45841,1861.66158 1297.38239,1859.06103 C1247.09106,1936.21082 1187.26171,2007.29265 1117.02727,2073.17337 C993.033127,2190.19834 852.564237,2276.8835 700.823153,2331.49515 L665.272384,2344.49792 L632.322892,2327.16089 C450.23359,2233.54092 356.587664,2043.70042 389.537157,1859.92788 C368.726951,1856.46047 348.783837,1851.25936 329.707815,1844.32455 C326.239447,1850.39251 323.638171,1857.32732 320.169804,1864.26214 C264.675921,1978.68655 206.580763,2096.57836 185.770557,2223.1387 C163.226168,2358.36755 153.688157,2605.42025 344.448377,2737.18169 C427.689201,2794.3939 515.265484,2823 613.24687,2823 C801.405814,2823 1004.30532,2722.44521 1219.34412,2615.82247 C1387.55995,2532.60472 1560.97833,2445.91956 1741.33345,2401.71012 C1809.83371,2385.23994 1879.20106,2374.83773 1945.96714,2365.30236 C2068.2271,2347.96533 2184.41741,2330.62829 2278.93043,2276.01664 C2379.51309,2217.93759 2448.01335,2120.85021 2467.08938,2009.8932 C2479.22866,1942.27878 2472.29193,1873.7975 2449.74754,1810.51734 C2392.51947,1843.4577 2325.75339,1863.39528 2253.78477,1863.39528 L2253.78477,1863.39528 Z" id="Path"></path>
            <path d="M2640.63256,1474.95512 C2640.63256,1294.59612 2516.64788,1142.85177 2350.17894,1099.49624 L2723,0 L875.368176,0 L1249.05626,1102.96468 C1087.78948,1149.78865 969.006955,1298.93167 969.006955,1475.82224 C969.006955,1605.88882 1034.03388,1721.21453 1132.87482,1792.3176 C1093.85866,1847.81268 1048.77332,1898.97221 997.618804,1947.5304 C901.378948,2037.7099 794.734784,2107.07875 679.420362,2153.03561 C575.377275,2082.79965 530.291937,1958.80284 571.042146,1847.81268 C729.707854,1799.25449 845.022276,1650.97858 845.022276,1476.68935 C845.022276,1262.51303 670.750105,1089.09091 457.461776,1089.09091 C243.306422,1089.09091 69.0342506,1263.38014 69.0342506,1477.55646 C69.0342506,1583.34395 112.385537,1680.46034 181.747595,1749.82918 C175.678415,1761.96873 169.609235,1774.10828 163.540055,1787.11494 C105.449331,1906.7762 39.5553759,2042.04545 14.4116299,2193.78981 C-35.8758623,2497.27852 46.4915818,2740.9366 245.040473,2878.80718 C356.886792,2955.98002 480.004445,2995 612.659381,2995 C840.687147,2995 1072.18302,2880.5414 1295.87565,2769.55124 C1455.40839,2690.64418 1620.14328,2608.26867 1782.27709,2568.38159 C1842.10186,2553.64071 1904.52771,2544.9696 1970.42167,2535.43138 C2103.94363,2516.35495 2241.80072,2496.41141 2365.7854,2424.44123 C2510.5787,2340.3315 2609.41963,2199.85958 2638.03148,2038.57701 C2659.70712,1914.5802 2638.03148,1789.71627 2582.54183,1680.46034 C2619.82394,1620.6297 2640.63256,1550.39375 2640.63256,1474.95512 Z M2471.56254,1474.95512 C2471.56254,1595.4835 2373.58863,1693.46699 2253.07206,1693.46699 C2132.55548,1693.46699 2034.58157,1595.4835 2034.58157,1474.95512 C2034.58157,1435.93515 2044.98588,1398.64939 2063.19342,1366.5663 C2070.12963,1354.42675 2078.79989,1342.2872 2087.47014,1331.88188 C2096.1404,1321.47655 2106.54471,1311.93833 2117.81604,1303.26723 L2118.68307,1302.40012 C2125.61927,1297.19745 2133.42251,1291.99479 2141.22574,1286.79213 C2141.22574,1286.79213 2142.09276,1286.79213 2142.09276,1285.92501 C2145.56087,1284.19079 2149.02897,1281.58946 2152.49707,1279.85524 C2153.3641,1279.85524 2154.23112,1278.98813 2155.09815,1278.98813 C2158.56625,1277.25391 2162.90138,1275.51969 2167.23651,1273.78547 C2171.57164,1272.05124 2175.90677,1270.31702 2179.37487,1268.5828 C2180.2419,1268.5828 2181.10892,1267.71569 2181.97595,1267.71569 C2185.44405,1266.84858 2188.91215,1265.11436 2192.38026,1264.24725 C2193.24728,1264.24725 2194.98133,1263.38014 2195.84836,1263.38014 C2200.18349,1262.51303 2203.65159,1261.64592 2207.98672,1260.77881 L2208.85374,1260.77881 L2221.85913,1258.17748 C2222.72616,1258.17748 2224.46021,1258.17748 2225.32723,1257.31036 C2228.79534,1257.31036 2232.26344,1256.44325 2235.73154,1256.44325 L2240.06667,1256.44325 C2244.4018,1256.44325 2248.73693,1255.57614 2253.93908,1255.57614 L2265.21042,1255.57614 C2268.67852,1255.57614 2271.2796,1255.57614 2274.7477,1256.44325 L2276.48175,1256.44325 C2283.41796,1257.31036 2290.35416,1258.17748 2297.29037,1259.9117 C2396.1313,1280.72235 2471.56254,1369.16763 2471.56254,1474.95512 L2471.56254,1474.95512 Z M1117.26835,173.422119 L2481.09982,173.422119 L2168.10353,1096.8949 C2155.09815,1099.49624 2142.09276,1103.83179 2129.08738,1108.16734 L1799.6176,436.15663 L1469.2808,1103.83179 C1456.27541,1099.49624 1442.403,1096.8949 1428.53059,1094.29357 L1117.26835,173.422119 Z M1737.19175,1399.5165 C1720.71826,1318.00811 1679.10103,1245.17082 1620.14328,1191.40996 L1799.6176,828.95773 L1980.82598,1199.21395 C1927.07038,1252.97481 1888.05423,1321.47655 1872.44776,1399.5165 L1737.19175,1399.5165 Z M1302.81186,1262.51303 C1307.14699,1261.64592 1310.61509,1260.77881 1314.95022,1259.9117 L1317.5513,1259.9117 C1321.0194,1259.04459 1324.4875,1259.04459 1327.95561,1258.17748 L1331.42371,1258.17748 C1334.89181,1258.17748 1337.49289,1257.31036 1340.96099,1257.31036 L1374.775,1257.31036 C1378.2431,1257.31036 1380.84418,1258.17748 1383.44525,1258.17748 C1385.1793,1258.17748 1386.04633,1258.17748 1387.78038,1259.04459 C1391.24848,1259.9117 1393.84956,1259.9117 1397.31766,1260.77881 C1398.18469,1260.77881 1399.05172,1260.77881 1400.78577,1261.64592 C1405.1209,1262.51303 1409.45602,1263.38014 1412.92413,1264.24725 L1413.79115,1264.24725 C1417.25926,1265.11436 1420.72736,1265.98147 1424.19546,1267.71569 C1425.06249,1267.71569 1425.92951,1268.5828 1427.66356,1268.5828 C1430.26464,1269.44991 1433.73274,1270.31702 1436.33382,1272.05124 C1437.20085,1272.05124 1438.06787,1272.91836 1438.9349,1272.91836 C1442.403,1274.65258 1445.8711,1275.51969 1449.33921,1277.25391 L1450.20623,1277.25391 C1454.54136,1278.98813 1458.00946,1280.72235 1461.47757,1283.32368 L1462.34459,1283.32368 C1465.8127,1285.0579 1469.2808,1287.65924 1472.7489,1289.39346 C1473.61593,1289.39346 1473.61593,1290.26057 1474.48295,1290.26057 C1477.95106,1291.99479 1480.55213,1294.59612 1484.02024,1296.33034 L1484.88726,1297.19745 C1495.29157,1305.00145 1504.82885,1313.67255 1514.36614,1322.34366 L1515.23316,1323.21077 C1523.90342,1332.74899 1532.57368,1343.15431 1539.50988,1354.42675 C1562.05255,1389.11118 1575.05794,1429.86537 1575.05794,1474.08801 C1575.05794,1594.61639 1477.08403,1692.59988 1356.56745,1692.59988 C1236.05088,1692.59988 1138.07697,1594.61639 1138.07697,1474.08801 C1137.20995,1372.63607 1207.43903,1286.79213 1302.81186,1262.51303 L1302.81186,1262.51303 Z M449.658545,1256.44325 C570.175121,1256.44325 668.149028,1354.42675 668.149028,1474.95512 C668.149028,1595.4835 570.175121,1693.46699 449.658545,1693.46699 C329.141969,1693.46699 231.168062,1595.4835 231.168062,1474.95512 C231.168062,1354.42675 329.141969,1256.44325 449.658545,1256.44325 Z M2466.36038,2008.22814 C2447.28582,2119.2183 2378.79079,2216.33468 2278.2158,2274.43109 C2183.71,2329.05906 2067.52855,2346.40127 1945.27792,2363.74349 C1878.51694,2373.2817 1808.28786,2383.68703 1740.65985,2400.16213 C1560.3185,2444.38477 1386.91336,2531.09583 1218.71036,2614.33845 C1003.68798,2720.99305 800.803964,2821.57788 612.659381,2821.57788 C514.685474,2821.57788 427.115876,2793.83034 343.881406,2735.73393 C153.135746,2603.93312 162.673029,2356.8066 185.215698,2221.53735 C206.024315,2094.9392 264.115039,1976.14505 319.604686,1862.55356 C323.072789,1855.61668 325.673866,1849.5469 329.141969,1842.61002 C348.216535,1849.5469 368.158126,1854.74957 388.966744,1858.21801 C356.019766,2042.04545 449.658545,2231.94268 631.733947,2325.59062 L664.680925,2342.93283 L700.22898,2329.92617 C851.958482,2276.16532 992.41665,2188.58715 1116.40133,2071.52721 C1186.63041,2005.62681 1246.45519,1934.52374 1296.74268,1857.3509 C1316.68427,1860.81934 1336.62586,1861.68645 1356.56745,1861.68645 C1536.90881,1861.68645 1688.63831,1737.68964 1731.98959,1571.2044 L1877.64992,1571.2044 C1921.0012,1738.55675 2072.7307,1861.68645 2253.07206,1861.68645 C2325.03519,1861.68645 2391.79617,1841.74291 2449.01987,1807.92559 C2471.56254,1872.95889 2478.49875,1940.59351 2466.36038,2008.22814 L2466.36038,2008.22814 Z" id="Shape" fill="#000000" fill-rule="nonzero"></path>
        </g>
    </g>
</svg>