<?xml version="1.0" encoding="UTF-8"?>
<svg width="3000px" height="3000px" viewBox="0 0 3000 3000" version="1.1" xmlns="http://www.w3.org/2000/svg" xmlns:xlink="http://www.w3.org/1999/xlink">
    <!-- Generator: Sketch 53.2 (72643) - https://sketchapp.com -->
    <title>Artboard</title>
    <desc>Created with Sketch.</desc>
    <g id="Artboard" stroke="none" stroke-width="1" fill="none" fill-rule="evenodd">
        <g id="yarn" fill-rule="nonzero">
            <path d="M1500,0 C2328.18533,0 3000,671.814672 3000,1500 C3000,2328.18533 2328.18533,3000 1500,3000 C671.814672,3000 0,2328.18533 0,1500 C0,671.814672 671.814672,0 1500,0 Z" id="Path" fill="#2C8EBB"></path>
            <path d="M2519.75198,1954.37761 C2509.33003,1872.14408 2439.8503,1815.39136 2350.68466,1816.54958 C2217.51519,1818.28691 2105.76863,1887.20092 2031.65693,1932.95056 C2002.70704,1950.90295 1977.81014,1964.22247 1956.38723,1974.06733 C1961.01921,1906.89064 1956.96623,1818.86602 1922.22636,1722.15476 C1879.95953,1606.33288 1823.21776,1535.10243 1782.68792,1493.98567 C1829.58673,1425.65076 1893.85548,1326.04395 1923.96336,1172.00087 C1950.01825,1040.54304 1941.91229,836.117437 1882.27552,721.453784 C1870.11657,698.28941 1849.85165,681.495238 1824.37575,674.545926 C1813.9538,671.650379 1794.26787,665.859286 1755.47503,676.862363 C1696.99626,555.828507 1676.73134,543.088101 1661.0984,532.664133 C1628.67453,511.816196 1590.46069,507.183321 1554.56283,520.502837 C1506.50602,537.876117 1465.39718,584.204866 1426.60434,666.438395 C1420.81436,678.599691 1415.60338,690.181879 1410.9714,701.764066 C1337.43869,706.97605 1221.63916,733.615081 1123.78854,839.592093 C1111.62959,852.911608 1087.89069,862.756468 1062.99379,872.022217 L1063.57278,872.022217 C1012.62099,889.974607 989.46108,931.670481 961.090193,1006.9547 C921.71835,1112.3526 962.248188,1216.01318 1002.19903,1283.18986 C947.773246,1331.83505 875.398534,1409.4357 837.184687,1500.35587 C789.706876,1612.70309 784.495896,1722.73387 786.23289,1782.38213 C745.703051,1825.23622 683.1713,1905.73242 676.223328,1996.07348 C666.959365,2122.31932 712.700183,2208.02751 732.965102,2239.29941 C738.755079,2248.56516 745.124053,2256.09358 752.072026,2263.62201 C749.756035,2279.25796 749.177037,2296.05213 752.651023,2313.42541 C760.177993,2353.96307 785.653892,2386.9723 824.446737,2407.82024 C900.874433,2448.35789 1007.41001,2465.73117 1089.62768,2424.61441 C1119.15656,2455.88631 1173.00335,2486 1270.85396,2486 L1276.64394,2486 C1301.54084,2486 1617.67358,2469.20583 1709.73421,2446.62056 C1750.84305,2436.7757 1779.21393,2419.40242 1797.74186,2403.76647 C1856.79962,2385.23497 2020.07697,2329.64047 2174.09036,2230.03366 C2282.94193,2159.38232 2320.57678,2144.32548 2401.63645,2124.63576 C2480.38014,2105.52515 2529.59494,2033.71559 2519.75198,1954.37761 L2519.75198,1954.37761 Z M2381.95053,2039.50668 C2289.3109,2061.51284 2242.41209,2081.78167 2127.77055,2156.48677 C1948.86026,2272.30865 1753.15904,2326.16582 1753.15904,2326.16582 C1753.15904,2326.16582 1736.9471,2350.48841 1690.04829,2361.49149 C1608.98861,2381.18121 1303.85683,2397.97538 1276.06494,2398.55449 C1201.37424,2399.1336 1155.63342,2379.44388 1142.89547,2348.75108 C1104.10262,2256.09358 1198.47925,2215.55593 1198.47925,2215.55593 C1198.47925,2215.55593 1177.63533,2202.81552 1165.47638,2191.23334 C1154.47542,2180.23026 1142.89547,2158.2241 1139.42148,2166.33163 C1124.94654,2201.6573 1117.41957,2287.9446 1078.62672,2326.74493 C1025.35894,2380.6021 924.613338,2362.64971 864.976576,2331.3778 C799.549837,2296.63124 869.608557,2214.97682 869.608557,2214.97682 C869.608557,2214.97682 834.289698,2235.82476 805.918811,2192.97066 C780.442913,2153.59123 756.704007,2086.41454 763.072982,2003.6019 C770.020954,1909.20708 875.398534,1817.7078 875.398534,1817.7078 C875.398534,1817.7078 856.870608,1678.14244 917.665366,1535.10243 C972.670147,1404.80283 1120.89356,1299.98403 1120.89356,1299.98403 C1120.89356,1299.98403 996.409052,1162.15601 1042.72887,1038.2266 C1072.83675,957.151293 1084.9957,957.730402 1094.83866,954.255746 C1129.57852,940.936231 1163.16039,926.458497 1188.05729,899.240357 C1312.54179,764.886986 1471.18716,790.367798 1471.18716,790.367798 C1471.18716,790.367798 1546.45686,561.619601 1615.93658,606.211022 C1637.3595,620.109646 1714.36619,791.526016 1714.36619,791.526016 C1714.36619,791.526016 1796.58386,743.45994 1805.84783,761.41233 C1855.64163,858.123593 1861.43161,1042.85948 1839.42969,1155.20669 C1802.37384,1340.52169 1709.73421,1440.1285 1672.67836,1502.67231 C1663.99339,1517.15004 1772.26596,1562.89968 1840.58769,1752.26844 C1903.69844,1925.42214 1847.53566,2070.77859 1857.37862,2086.99365 C1859.11562,2089.8892 1859.69461,2091.04742 1859.69461,2091.04742 C1859.69461,2091.04742 1932.06933,2096.83851 2077.39775,2007.07656 C2154.98344,1959.01048 2247.04407,1905.15331 2351.84265,1903.99509 C2453.16725,1902.25777 2458.37823,2020.97518 2381.95053,2039.50668 L2381.95053,2039.50668 Z" id="Shape" fill="#FFFFFF"></path>
        </g>
    </g>
</svg>