<svg xmlns="http://www.w3.org/2000/svg" width="900" height="710.001">
  <rect fill="#FFF" width="900" height="710.001"/>
  <rect x="80" y="100.004" width="10" height="10"/>
  <rect x="80" y="80.004" width="10" height="10"/>
  <rect x="90" y="110.004" width="10" height="10"/>
  <rect x="100" y="100.004" width="10" height="10"/>
  <rect x="90" y="90.004" width="10" height="10"/>
  <rect x="100" y="80.004" width="10" height="10"/>
  <rect x="110" y="110.004" width="10" height="10"/>
  <rect x="120" y="100.004" width="10" height="10"/>
  <rect x="110" y="90.004" width="10" height="10"/>
  <rect x="120" y="80.004" width="10" height="10"/>
  <rect x="130" y="110.004" width="10" height="10"/>
  <rect x="140" y="100.004" width="10" height="10"/>
  <rect x="130" y="90.004" width="10" height="10"/>
  <rect x="140" y="80.004" width="10" height="10"/>
  <rect x="150" y="110.004" width="10" height="10"/>
  <rect x="160" y="100.004" width="10" height="10"/>
  <rect x="150" y="90.004" width="10" height="10"/>
  <rect x="160" y="80.004" width="10" height="10"/>
  <rect x="170" y="110.004" width="10" height="10"/>
  <rect x="180" y="100.004" width="10" height="10"/>
  <rect x="170" y="90.004" width="10" height="10"/>
  <rect x="180" y="80.004" width="10" height="10"/>
  <rect x="190" y="110.004" width="10" height="10"/>
  <rect x="200" y="100.004" width="10" height="10"/>
  <rect x="190" y="90.004" width="10" height="10"/>
  <rect x="200" y="80.004" width="10" height="10"/>
  <rect x="210" y="110.004" width="10" height="10"/>
  <rect x="220" y="100.004" width="10" height="10"/>
  <rect x="210" y="90.004" width="10" height="10"/>
  <rect x="220" y="80.004" width="10" height="10"/>
  <rect x="230" y="110.004" width="10" height="10"/>
  <rect x="240" y="100.004" width="10" height="10"/>
  <rect x="230" y="90.004" width="10" height="10"/>
  <rect x="240" y="80.004" width="10" height="10"/>
  <rect x="250" y="110.004" width="10" height="10"/>
  <rect x="260" y="100.004" width="10" height="10"/>
  <rect x="250" y="90.004" width="10" height="10"/>
  <rect x="260" y="80.004" width="10" height="10"/>
  <rect x="270" y="110.004" width="10" height="10"/>
  <rect x="280" y="100.004" width="10" height="10"/>
  <rect x="270" y="90.004" width="10" height="10"/>
  <rect x="280" y="80.004" width="10" height="10"/>
  <rect x="290" y="110.004" width="10" height="10"/>
  <rect x="300" y="100.004" width="10" height="10"/>
  <rect x="290" y="90.004" width="10" height="10"/>
  <rect x="300" y="80.004" width="10" height="10"/>
  <rect x="310" y="110.004" width="10" height="10"/>
  <rect x="320" y="100.004" width="10" height="10"/>
  <rect x="310" y="90.004" width="10" height="10"/>
  <rect x="320" y="80.004" width="10" height="10"/>
  <rect x="330" y="110.004" width="10" height="10"/>
  <rect x="340" y="100.004" width="10" height="10"/>
  <rect x="330" y="90.004" width="10" height="10"/>
  <rect x="340" y="80.004" width="10" height="10"/>
  <rect x="350" y="110.004" width="10" height="10"/>
  <rect x="360" y="100.004" width="10" height="10"/>
  <rect x="350" y="90.004" width="10" height="10"/>
  <rect x="360" y="80.004" width="10" height="10"/>
  <rect x="370" y="110.004" width="10" height="10"/>
  <rect x="380" y="100.004" width="10" height="10"/>
  <rect x="370" y="90.004" width="10" height="10"/>
  <rect x="380" y="80.004" width="10" height="10"/>
  <g>
    <rect x="80" y="140.004" width="10" height="10"/>
    <rect x="80" y="120.004" width="10" height="10"/>
    <rect x="100" y="140.004" width="10" height="10"/>
    <rect x="90" y="130.004" width="10" height="10"/>
    <rect x="100" y="120.004" width="10" height="10"/>
    <rect x="120" y="140.004" width="10" height="10"/>
    <rect x="110" y="130.004" width="10" height="10"/>
    <rect x="120" y="120.004" width="10" height="10"/>
    <rect x="140" y="140.004" width="10" height="10"/>
    <rect x="130" y="130.004" width="10" height="10"/>
    <rect x="140" y="120.004" width="10" height="10"/>
    <rect x="160" y="140.004" width="10" height="10"/>
    <rect x="150" y="130.004" width="10" height="10"/>
    <rect x="160" y="120.004" width="10" height="10"/>
    <rect x="180" y="140.004" width="10" height="10"/>
    <rect x="170" y="130.004" width="10" height="10"/>
    <rect x="180" y="120.004" width="10" height="10"/>
    <rect x="200" y="140.004" width="10" height="10"/>
    <rect x="190" y="130.004" width="10" height="10"/>
    <rect x="200" y="120.004" width="10" height="10"/>
    <rect x="220" y="140.004" width="10" height="10"/>
    <rect x="210" y="130.004" width="10" height="10"/>
    <rect x="220" y="120.004" width="10" height="10"/>
    <rect x="240" y="140.004" width="10" height="10"/>
    <rect x="230" y="130.004" width="10" height="10"/>
    <rect x="240" y="120.004" width="10" height="10"/>
    <rect x="260" y="140.004" width="10" height="10"/>
    <rect x="250" y="130.004" width="10" height="10"/>
    <rect x="260" y="120.004" width="10" height="10"/>
    <rect x="280" y="140.004" width="10" height="10"/>
    <rect x="270" y="130.004" width="10" height="10"/>
    <rect x="280" y="120.004" width="10" height="10"/>
    <rect x="300" y="140.004" width="10" height="10"/>
    <rect x="290" y="130.004" width="10" height="10"/>
    <rect x="300" y="120.004" width="10" height="10"/>
    <rect x="320" y="140.004" width="10" height="10"/>
    <rect x="310" y="130.004" width="10" height="10"/>
    <rect x="320" y="120.004" width="10" height="10"/>
    <rect x="340" y="140.004" width="10" height="10"/>
    <rect x="330" y="130.004" width="10" height="10"/>
    <rect x="340" y="120.004" width="10" height="10"/>
    <rect x="360" y="140.004" width="10" height="10"/>
    <rect x="350" y="130.004" width="10" height="10"/>
    <rect x="360" y="120.004" width="10" height="10"/>
    <rect x="380" y="140.004" width="10" height="10"/>
    <rect x="370" y="130.004" width="10" height="10"/>
    <rect x="380" y="120.004" width="10" height="10"/>
  </g>
  <g>
    <rect x="80" y="179.724" width="10" height="10"/>
    <rect x="90" y="189.724" width="10" height="10"/>
    <rect x="100" y="179.724" width="10" height="10"/>
    <rect x="110" y="189.724" width="10" height="10"/>
    <rect x="120" y="179.724" width="10" height="10"/>
    <rect x="130" y="189.724" width="10" height="10"/>
    <rect x="140" y="179.724" width="10" height="10"/>
    <rect x="150" y="189.724" width="10" height="10"/>
    <rect x="160" y="179.724" width="10" height="10"/>
    <rect x="170" y="189.724" width="10" height="10"/>
    <rect x="180" y="179.724" width="10" height="10"/>
    <rect x="190" y="189.724" width="10" height="10"/>
    <rect x="200" y="179.724" width="10" height="10"/>
    <rect x="210" y="189.724" width="10" height="10"/>
    <rect x="220" y="179.724" width="10" height="10"/>
    <rect x="230" y="189.724" width="10" height="10"/>
    <rect x="240" y="179.724" width="10" height="10"/>
    <rect x="250" y="189.724" width="10" height="10"/>
    <rect x="260" y="179.724" width="10" height="10"/>
    <rect x="270" y="189.724" width="10" height="10"/>
    <rect x="280" y="179.724" width="10" height="10"/>
    <rect x="290" y="189.724" width="10" height="10"/>
    <rect x="300" y="179.724" width="10" height="10"/>
    <rect x="310" y="189.724" width="10" height="10"/>
    <rect x="320" y="179.724" width="10" height="10"/>
    <rect x="330" y="189.724" width="10" height="10"/>
    <rect x="340" y="179.724" width="10" height="10"/>
    <rect x="350" y="189.724" width="10" height="10"/>
    <rect x="360" y="179.724" width="10" height="10"/>
    <rect x="370" y="189.724" width="10" height="10"/>
    <rect x="380" y="179.724" width="10" height="10"/>
    <rect x="390" y="189.724" width="10" height="10"/>
    <rect x="400" y="179.724" width="10" height="10"/>
    <rect x="410" y="189.724" width="10" height="10"/>
    <rect x="420" y="179.724" width="10" height="10"/>
    <rect x="430" y="189.724" width="10" height="10"/>
    <rect x="440" y="179.724" width="10" height="10"/>
    <rect x="450" y="189.724" width="10" height="10"/>
    <rect x="460" y="179.724" width="10" height="10"/>
    <rect x="470" y="189.724" width="10" height="10"/>
    <rect x="480" y="179.724" width="10" height="10"/>
    <rect x="490" y="189.724" width="10" height="10"/>
    <rect x="500" y="179.724" width="10" height="10"/>
  </g>
  <g>
    <rect x="80" y="219.726" width="10" height="10"/>
    <rect x="90" y="229.726" width="10" height="10"/>
    <rect x="100" y="219.726" width="10" height="10"/>
    <rect x="110" y="229.726" width="10" height="10"/>
    <rect x="120" y="219.726" width="10" height="10"/>
    <rect x="130" y="229.726" width="10" height="10"/>
    <rect x="140" y="219.726" width="10" height="10"/>
    <rect x="150" y="229.726" width="10" height="10"/>
    <rect x="160" y="219.726" width="10" height="10"/>
    <rect x="170" y="229.726" width="10" height="10"/>
    <rect x="180" y="219.726" width="10" height="10"/>
    <rect x="190" y="229.726" width="10" height="10"/>
    <rect x="200" y="219.726" width="10" height="10"/>
    <rect x="210" y="229.726" width="10" height="10"/>
    <rect x="220" y="219.726" width="10" height="10"/>
    <rect x="230" y="229.726" width="10" height="10"/>
    <rect x="240" y="219.726" width="10" height="10"/>
    <rect x="250" y="229.726" width="10" height="10"/>
    <rect x="260" y="219.726" width="10" height="10"/>
    <rect x="270" y="229.726" width="10" height="10"/>
    <rect x="280" y="219.726" width="10" height="10"/>
    <rect x="290" y="229.726" width="10" height="10"/>
    <rect x="300" y="219.726" width="10" height="10"/>
    <rect x="310" y="229.726" width="10" height="10"/>
    <rect x="320" y="219.726" width="10" height="10"/>
    <rect x="330" y="229.726" width="10" height="10"/>
    <rect x="340" y="219.726" width="10" height="10"/>
    <rect x="350" y="229.726" width="10" height="10"/>
    <rect x="360" y="219.726" width="10" height="10"/>
    <rect x="370" y="229.726" width="10" height="10"/>
    <rect x="380" y="219.726" width="10" height="10"/>
    <rect x="390" y="229.726" width="10" height="10"/>
    <rect x="400" y="219.726" width="10" height="10"/>
    <rect x="410" y="229.726" width="10" height="10"/>
    <rect x="420" y="219.726" width="10" height="10"/>
    <rect x="430" y="229.726" width="10" height="10"/>
    <rect x="440" y="219.726" width="10" height="10"/>
    <rect x="450" y="229.726" width="10" height="10"/>
    <rect x="460" y="219.726" width="10" height="10"/>
    <rect x="470" y="229.726" width="10" height="10"/>
    <rect x="480" y="219.726" width="10" height="10"/>
    <rect x="490" y="229.726" width="10" height="10"/>
    <rect x="500" y="219.726" width="10" height="10"/>
  </g>
  <g>
    <rect x="80" y="259.728" width="10" height="10"/>
    <rect x="90" y="269.728" width="10" height="10"/>
    <rect x="100" y="259.728" width="10" height="10"/>
    <rect x="110" y="269.728" width="10" height="10"/>
    <rect x="120" y="259.728" width="10" height="10"/>
    <rect x="130" y="269.728" width="10" height="10"/>
    <rect x="140" y="259.728" width="10" height="10"/>
    <rect x="150" y="269.728" width="10" height="10"/>
    <rect x="160" y="259.728" width="10" height="10"/>
    <rect x="170" y="269.728" width="10" height="10"/>
    <rect x="180" y="259.728" width="10" height="10"/>
    <rect x="190" y="269.728" width="10" height="10"/>
    <rect x="200" y="259.728" width="10" height="10"/>
    <rect x="210" y="269.728" width="10" height="10"/>
    <rect x="220" y="259.728" width="10" height="10"/>
    <rect x="230" y="269.728" width="10" height="10"/>
    <rect x="240" y="259.728" width="10" height="10"/>
    <rect x="250" y="269.728" width="10" height="10"/>
    <rect x="260" y="259.728" width="10" height="10"/>
    <rect x="270" y="269.728" width="10" height="10"/>
    <rect x="280" y="259.728" width="10" height="10"/>
    <rect x="290" y="269.728" width="10" height="10"/>
    <rect x="300" y="259.728" width="10" height="10"/>
    <rect x="310" y="269.728" width="10" height="10"/>
    <rect x="320" y="259.728" width="10" height="10"/>
    <rect x="330" y="269.728" width="10" height="10"/>
    <rect x="340" y="259.728" width="10" height="10"/>
    <rect x="350" y="269.728" width="10" height="10"/>
    <rect x="360" y="259.728" width="10" height="10"/>
    <rect x="370" y="269.728" width="10" height="10"/>
    <rect x="380" y="259.728" width="10" height="10"/>
    <rect x="390" y="269.728" width="10" height="10"/>
    <rect x="400" y="259.728" width="10" height="10"/>
    <rect x="410" y="269.728" width="10" height="10"/>
    <rect x="420" y="259.728" width="10" height="10"/>
    <rect x="430" y="269.728" width="10" height="10"/>
    <rect x="440" y="259.728" width="10" height="10"/>
    <rect x="450" y="269.728" width="10" height="10"/>
    <rect x="460" y="259.728" width="10" height="10"/>
    <rect x="470" y="269.728" width="10" height="10"/>
    <rect x="480" y="259.728" width="10" height="10"/>
    <rect x="490" y="269.728" width="10" height="10"/>
    <rect x="500" y="259.728" width="10" height="10"/>
  </g>
  <g>
    <rect x="80" y="299.729" width="10" height="10"/>
    <rect x="90" y="309.729" width="10" height="10"/>
    <rect x="100" y="299.729" width="10" height="10"/>
    <rect x="110" y="309.729" width="10" height="10"/>
    <rect x="120" y="299.729" width="10" height="10"/>
    <rect x="130" y="309.729" width="10" height="10"/>
    <rect x="140" y="299.729" width="10" height="10"/>
    <rect x="150" y="309.729" width="10" height="10"/>
    <rect x="160" y="299.729" width="10" height="10"/>
    <rect x="170" y="309.729" width="10" height="10"/>
    <rect x="180" y="299.729" width="10" height="10"/>
    <rect x="190" y="309.729" width="10" height="10"/>
    <rect x="200" y="299.729" width="10" height="10"/>
    <rect x="210" y="309.729" width="10" height="10"/>
    <rect x="220" y="299.729" width="10" height="10"/>
    <rect x="230" y="309.729" width="10" height="10"/>
    <rect x="240" y="299.729" width="10" height="10"/>
    <rect x="250" y="309.729" width="10" height="10"/>
    <rect x="260" y="299.729" width="10" height="10"/>
    <rect x="270" y="309.729" width="10" height="10"/>
    <rect x="280" y="299.729" width="10" height="10"/>
    <rect x="290" y="309.729" width="10" height="10"/>
  </g>
  <g>
    <rect x="80" y="530.026" width="10" height="10"/>
    <rect x="90" y="540.026" width="10" height="10"/>
    <rect x="100" y="530.026" width="10" height="10"/>
    <rect x="110" y="540.026" width="10" height="10"/>
    <rect x="120" y="530.026" width="10" height="10"/>
    <rect x="130" y="540.026" width="10" height="10"/>
    <rect x="140" y="530.026" width="10" height="10"/>
    <rect x="150" y="540.026" width="10" height="10"/>
    <rect x="160" y="530.026" width="10" height="10"/>
    <rect x="170" y="540.026" width="10" height="10"/>
    <rect x="180" y="530.026" width="10" height="10"/>
    <rect x="190" y="540.026" width="10" height="10"/>
    <rect x="200" y="530.026" width="10" height="10"/>
    <rect x="210" y="540.026" width="10" height="10"/>
    <rect x="220" y="530.026" width="10" height="10"/>
    <rect x="230" y="540.026" width="10" height="10"/>
    <rect x="240" y="530.026" width="10" height="10"/>
    <rect x="250" y="540.026" width="10" height="10"/>
    <rect x="260" y="530.026" width="10" height="10"/>
    <rect x="270" y="540.026" width="10" height="10"/>
    <rect x="280" y="530.026" width="10" height="10"/>
    <rect x="290" y="540.026" width="10" height="10"/>
    <rect x="300" y="530.026" width="10" height="10"/>
    <rect x="310" y="540.026" width="10" height="10"/>
    <rect x="320" y="530.026" width="10" height="10"/>
    <rect x="330" y="540.026" width="10" height="10"/>
    <rect x="340" y="530.026" width="10" height="10"/>
    <rect x="350" y="540.026" width="10" height="10"/>
    <rect x="360" y="530.026" width="10" height="10"/>
    <rect x="370" y="540.026" width="10" height="10"/>
    <rect x="380" y="530.026" width="10" height="10"/>
    <rect x="390" y="540.026" width="10" height="10"/>
    <rect x="400" y="530.026" width="10" height="10"/>
    <rect x="410" y="540.026" width="10" height="10"/>
    <rect x="420" y="530.026" width="10" height="10"/>
    <rect x="430" y="540.026" width="10" height="10"/>
    <rect x="440" y="530.026" width="10" height="10"/>
    <rect x="450" y="540.026" width="10" height="10"/>
    <rect x="460" y="530.026" width="10" height="10"/>
    <rect x="470" y="540.026" width="10" height="10"/>
    <rect x="480" y="530.026" width="10" height="10"/>
    <rect x="490" y="540.026" width="10" height="10"/>
    <rect x="500" y="530.026" width="10" height="10"/>
  </g>
  <g>
    <rect x="80" y="570.028" width="10" height="10"/>
    <rect x="90" y="580.028" width="10" height="10"/>
    <rect x="100" y="570.028" width="10" height="10"/>
    <rect x="110" y="580.028" width="10" height="10"/>
    <rect x="120" y="570.028" width="10" height="10"/>
    <rect x="130" y="580.028" width="10" height="10"/>
    <rect x="140" y="570.028" width="10" height="10"/>
    <rect x="150" y="580.028" width="10" height="10"/>
    <rect x="160" y="570.028" width="10" height="10"/>
    <rect x="170" y="580.028" width="10" height="10"/>
    <rect x="180" y="570.028" width="10" height="10"/>
    <rect x="190" y="580.028" width="10" height="10"/>
    <rect x="200" y="570.028" width="10" height="10"/>
    <rect x="210" y="580.028" width="10" height="10"/>
    <rect x="220" y="570.028" width="10" height="10"/>
    <rect x="230" y="580.028" width="10" height="10"/>
    <rect x="240" y="570.028" width="10" height="10"/>
    <rect x="250" y="580.028" width="10" height="10"/>
    <rect x="260" y="570.028" width="10" height="10"/>
    <rect x="270" y="580.028" width="10" height="10"/>
    <rect x="280" y="570.028" width="10" height="10"/>
    <rect x="290" y="580.028" width="10" height="10"/>
    <rect x="300" y="570.028" width="10" height="10"/>
    <rect x="310" y="580.028" width="10" height="10"/>
    <rect x="320" y="570.028" width="10" height="10"/>
    <rect x="330" y="580.028" width="10" height="10"/>
    <rect x="340" y="570.028" width="10" height="10"/>
    <rect x="350" y="580.028" width="10" height="10"/>
    <rect x="360" y="570.028" width="10" height="10"/>
    <rect x="370" y="580.028" width="10" height="10"/>
    <rect x="380" y="570.028" width="10" height="10"/>
    <rect x="390" y="580.028" width="10" height="10"/>
    <rect x="400" y="570.028" width="10" height="10"/>
    <rect x="410" y="580.028" width="10" height="10"/>
    <rect x="420" y="570.028" width="10" height="10"/>
    <rect x="430" y="580.028" width="10" height="10"/>
    <rect x="440" y="570.028" width="10" height="10"/>
    <rect x="450" y="580.028" width="10" height="10"/>
    <rect x="460" y="570.028" width="10" height="10"/>
    <rect x="470" y="580.028" width="10" height="10"/>
    <rect x="480" y="570.028" width="10" height="10"/>
    <rect x="490" y="580.028" width="10" height="10"/>
    <rect x="500" y="570.028" width="10" height="10"/>
  </g>
  <g>
    <rect x="80" y="610.03" width="10" height="10"/>
    <rect x="90" y="620.03" width="10" height="10"/>
    <rect x="100" y="610.03" width="10" height="10"/>
    <rect x="110" y="620.03" width="10" height="10"/>
    <rect x="120" y="610.03" width="10" height="10"/>
    <rect x="130" y="620.03" width="10" height="10"/>
    <rect x="140" y="610.03" width="10" height="10"/>
    <rect x="150" y="620.03" width="10" height="10"/>
    <rect x="160" y="610.03" width="10" height="10"/>
    <rect x="170" y="620.03" width="10" height="10"/>
    <rect x="180" y="610.03" width="10" height="10"/>
    <rect x="190" y="620.03" width="10" height="10"/>
  </g>
  <g>
    <rect x="80.004" y="480.021" width="10" height="10"/>
    <rect x="80.004" y="460.021" width="10" height="10"/>
    <rect x="90.004" y="490.021" width="10" height="10"/>
    <rect x="100.004" y="480.021" width="10" height="10"/>
    <rect x="90.004" y="470.021" width="10" height="10"/>
    <rect x="100.004" y="460.021" width="10" height="10"/>
    <rect x="110.004" y="490.021" width="10" height="10"/>
    <rect x="120.004" y="480.021" width="10" height="10"/>
    <rect x="110.004" y="470.021" width="10" height="10"/>
    <rect x="120.004" y="460.021" width="10" height="10"/>
    <rect x="130.004" y="490.021" width="10" height="10"/>
    <rect x="140.004" y="480.021" width="10" height="10"/>
    <rect x="130.004" y="470.021" width="10" height="10"/>
    <rect x="140.004" y="460.021" width="10" height="10"/>
    <rect x="150.004" y="490.021" width="10" height="10"/>
    <rect x="160.004" y="480.021" width="10" height="10"/>
    <rect x="150.004" y="470.021" width="10" height="10"/>
    <rect x="160.004" y="460.021" width="10" height="10"/>
    <rect x="170.004" y="490.021" width="10" height="10"/>
    <rect x="180.004" y="480.021" width="10" height="10"/>
    <rect x="170.004" y="470.021" width="10" height="10"/>
    <rect x="180.004" y="460.021" width="10" height="10"/>
    <rect x="190.004" y="490.021" width="10" height="10"/>
    <rect x="200.004" y="480.021" width="10" height="10"/>
    <rect x="190.004" y="470.021" width="10" height="10"/>
    <rect x="200.004" y="460.021" width="10" height="10"/>
    <rect x="210.004" y="490.021" width="10" height="10"/>
    <rect x="220.004" y="480.021" width="10" height="10"/>
    <rect x="210.004" y="470.021" width="10" height="10"/>
    <rect x="220.004" y="460.021" width="10" height="10"/>
    <rect x="230.004" y="490.021" width="10" height="10"/>
    <rect x="240.004" y="480.021" width="10" height="10"/>
    <rect x="230.004" y="470.021" width="10" height="10"/>
    <rect x="240.004" y="460.021" width="10" height="10"/>
    <rect x="250.004" y="490.021" width="10" height="10"/>
    <rect x="260.004" y="480.021" width="10" height="10"/>
    <rect x="250.004" y="470.021" width="10" height="10"/>
    <rect x="260.004" y="460.021" width="10" height="10"/>
    <rect x="270.004" y="490.021" width="10" height="10"/>
    <rect x="280.004" y="480.021" width="10" height="10"/>
    <rect x="270.004" y="470.021" width="10" height="10"/>
    <rect x="280.004" y="460.021" width="10" height="10"/>
    <rect x="290.004" y="490.021" width="10" height="10"/>
    <rect x="300.004" y="480.021" width="10" height="10"/>
    <rect x="290.004" y="470.021" width="10" height="10"/>
    <rect x="300.004" y="460.021" width="10" height="10"/>
    <rect x="310.004" y="490.021" width="10" height="10"/>
    <rect x="320.004" y="480.021" width="10" height="10"/>
    <rect x="310.004" y="470.021" width="10" height="10"/>
    <rect x="320.004" y="460.021" width="10" height="10"/>
  </g>
  <g>
    <rect x="80.004" y="430.021" width="10" height="10"/>
    <rect x="80.004" y="410.021" width="10" height="10"/>
    <rect x="90.004" y="440.021" width="10" height="10"/>
    <rect x="100.004" y="430.021" width="10" height="10"/>
    <rect x="90.004" y="420.021" width="10" height="10"/>
    <rect x="100.004" y="410.021" width="10" height="10"/>
    <rect x="110.004" y="440.021" width="10" height="10"/>
    <rect x="120.004" y="430.021" width="10" height="10"/>
    <rect x="110.004" y="420.021" width="10" height="10"/>
    <rect x="120.004" y="410.021" width="10" height="10"/>
    <rect x="130.004" y="440.021" width="10" height="10"/>
    <rect x="140.004" y="430.021" width="10" height="10"/>
    <rect x="130.004" y="420.021" width="10" height="10"/>
    <rect x="140.004" y="410.021" width="10" height="10"/>
    <rect x="150.004" y="440.021" width="10" height="10"/>
    <rect x="160.004" y="430.021" width="10" height="10"/>
    <rect x="150.004" y="420.021" width="10" height="10"/>
    <rect x="160.004" y="410.021" width="10" height="10"/>
    <rect x="170.004" y="440.021" width="10" height="10"/>
    <rect x="180.004" y="430.021" width="10" height="10"/>
    <rect x="170.004" y="420.021" width="10" height="10"/>
    <rect x="180.004" y="410.021" width="10" height="10"/>
    <rect x="190.004" y="440.021" width="10" height="10"/>
    <rect x="200.004" y="430.021" width="10" height="10"/>
    <rect x="190.004" y="420.021" width="10" height="10"/>
    <rect x="200.004" y="410.021" width="10" height="10"/>
    <rect x="210.004" y="440.021" width="10" height="10"/>
    <rect x="220.004" y="430.021" width="10" height="10"/>
    <rect x="210.004" y="420.021" width="10" height="10"/>
    <rect x="220.004" y="410.021" width="10" height="10"/>
    <rect x="230.004" y="440.021" width="10" height="10"/>
    <rect x="240.004" y="430.021" width="10" height="10"/>
    <rect x="230.004" y="420.021" width="10" height="10"/>
    <rect x="240.004" y="410.021" width="10" height="10"/>
    <rect x="250.004" y="440.021" width="10" height="10"/>
    <rect x="260.004" y="430.021" width="10" height="10"/>
    <rect x="250.004" y="420.021" width="10" height="10"/>
    <rect x="260.004" y="410.021" width="10" height="10"/>
    <rect x="270.004" y="440.021" width="10" height="10"/>
    <rect x="280.004" y="430.021" width="10" height="10"/>
    <rect x="270.004" y="420.021" width="10" height="10"/>
    <rect x="280.004" y="410.021" width="10" height="10"/>
    <rect x="290.004" y="440.021" width="10" height="10"/>
    <rect x="300.004" y="430.021" width="10" height="10"/>
    <rect x="290.004" y="420.021" width="10" height="10"/>
    <rect x="300.004" y="410.021" width="10" height="10"/>
    <rect x="310.004" y="440.021" width="10" height="10"/>
    <rect x="320.004" y="430.021" width="10" height="10"/>
    <rect x="310.004" y="420.021" width="10" height="10"/>
    <rect x="320.004" y="410.021" width="10" height="10"/>
    <rect x="330.004" y="440.021" width="10" height="10"/>
    <rect x="340.004" y="430.021" width="10" height="10"/>
    <rect x="330.004" y="420.021" width="10" height="10"/>
    <rect x="340.004" y="410.021" width="10" height="10"/>
    <rect x="350.004" y="440.021" width="10" height="10"/>
    <rect x="360.004" y="430.021" width="10" height="10"/>
    <rect x="350.004" y="420.021" width="10" height="10"/>
    <rect x="360.004" y="410.021" width="10" height="10"/>
    <rect x="370.004" y="440.021" width="10" height="10"/>
    <rect x="380.004" y="430.021" width="10" height="10"/>
    <rect x="370.004" y="420.021" width="10" height="10"/>
    <rect x="380.004" y="410.021" width="10" height="10"/>
    <rect x="390.004" y="440.021" width="10" height="10"/>
    <rect x="400.004" y="430.021" width="10" height="10"/>
    <rect x="390.004" y="420.021" width="10" height="10"/>
    <rect x="400.004" y="410.021" width="10" height="10"/>
    <rect x="410.004" y="440.021" width="10" height="10"/>
    <rect x="420.004" y="430.021" width="10" height="10"/>
    <rect x="410.004" y="420.021" width="10" height="10"/>
    <rect x="420.004" y="410.021" width="10" height="10"/>
    <rect x="430.004" y="440.021" width="10" height="10"/>
    <rect x="440.004" y="430.021" width="10" height="10"/>
    <rect x="430.004" y="420.021" width="10" height="10"/>
    <rect x="440.004" y="410.021" width="10" height="10"/>
    <rect x="450.004" y="440.021" width="10" height="10"/>
    <rect x="460.004" y="430.021" width="10" height="10"/>
    <rect x="450.004" y="420.021" width="10" height="10"/>
    <rect x="460.004" y="410.021" width="10" height="10"/>
    <rect x="470.004" y="440.021" width="10" height="10"/>
    <rect x="480.004" y="430.021" width="10" height="10"/>
    <rect x="470.004" y="420.021" width="10" height="10"/>
    <rect x="480.004" y="410.021" width="10" height="10"/>
    <rect x="490.004" y="440.021" width="10" height="10"/>
    <rect x="500.004" y="430.021" width="10" height="10"/>
    <rect x="490.004" y="420.021" width="10" height="10"/>
    <rect x="500.004" y="410.021" width="10" height="10"/>
  </g>
  <polygon points="859.999,30.001 599.999,30.001 599.999,40.001 589.999,40.001 589.999,670 599.999,670 599.999,680 859.999,680 859.999,670 869.999,670 869.999,40.001 859.999,40.001"/>
  <g fill="#FFF">
    <rect x="809.997" y="80.003" width="10" height="10"/>
    <rect x="809.997" y="60.003" width="10" height="10"/>
    <rect x="829.997" y="80.003" width="10" height="10"/>
    <rect x="819.997" y="70.003" width="10" height="10"/>
    <rect x="829.997" y="60.003" width="10" height="10"/>
  </g>
  <rect x="620.001" y="120.006" fill="#FFF" width="220" height="9.999"/>
  <rect x="620.001" y="150.007" fill="#FFF" width="170" height="9.999"/>
</svg>
