<?xml version="1.0" encoding="UTF-8"?>
<svg width="600px" height="287px" viewBox="0 0 600 287" version="1.1" xmlns="http://www.w3.org/2000/svg" xmlns:xlink="http://www.w3.org/1999/xlink">
    <!-- Generator: Sketch 60 (88103) - https://sketch.com -->
    <title>Artboard</title>
    <desc>Created with Sketch.</desc>
    <defs>
        <polygon id="path-1" points="0.648020319 0.767738481 496.387528 0.767738481 496.387528 87.1408071 0.648020319 87.1408071 0.648020319 0.767738481"></polygon>
    </defs>
    <g id="Artboard" stroke="none" stroke-width="1" fill="none" fill-rule="evenodd">
        <g id="bonnier" transform="translate(50.000000, 99.000000)">
            <g id="g12" transform="translate(250.187369, 44.443151) scale(-1, 1) rotate(-180.000000) translate(-250.187369, -44.443151) translate(1.109878, 0.406693)">
                <g id="g32" transform="translate(1.505622, 0.394341)">
                    <g id="g34-Clipped">
                        <mask id="mask-2" fill="white">
                            <use xlink:href="#path-1"></use>
                        </mask>
                        <g id="path38"></g>
                        <g id="g34" mask="url(#mask-2)">
                            <g transform="translate(11.890281, 4.978849)" id="g40">
                                <g transform="translate(233.097499, 37.916980) scale(-1, 1) rotate(-180.000000) translate(-233.097499, -37.916980) translate(0.409084, 0.181080)">
                                    <g id="g42" transform="translate(0.748515, 0.633169)" fill="#231F20" fill-rule="nonzero">
                                        <path d="M417.234399,15.8888002 L432.770363,15.8888002 C440.386897,15.8888002 445.056712,19.3068783 445.056712,25.9424384 L445.056712,26.1440276 C445.056712,32.0755153 440.689793,36.0973678 433.075265,36.0973678 L417.234399,36.0973678 L445.081787,72.2900685 L463.74099,72.2900685 L444.882196,47.7527958 C454.390326,44.4181339 460.896575,36.9494048 460.896575,25.3396571 L460.896575,25.1380679 C460.896575,18.5035008 458.765269,12.9732053 454.804552,9.05264389 C450.133733,4.42800999 443.127003,1.91559347 434.090268,1.91559347 L401.598139,1.91559347 L401.598139,72.2900685 L417.234399,72.2900685 L417.234399,15.8888002 Z M276.981457,1.91559347 L276.981457,45.2463376 L243.677928,1.91559347 L222.04292,1.91658652 L229.258267,11.3028952 L229.258267,72.2900685 L244.691928,72.2900685 L244.691928,28.5164241 L278.37157,72.2900685 L292.415118,72.2900685 L292.415118,1.91559347 L276.981457,1.91559347 Z M198.65974,1.91559347 L198.65974,45.2463376 L165.356211,1.91559347 L143.721203,1.91658652 L150.93655,11.3028952 L150.93655,72.2900685 L166.370211,72.2900685 L166.370211,28.5164241 L200.050856,72.2900685 L214.093401,72.2900685 L214.093401,1.91559347 L198.65974,1.91559347 Z M337.969893,1.91559347 L391.58351,1.91559347 L391.58351,15.6882041 L353.505857,15.6882041 L353.505857,29.964291 L387.013991,29.964291 L387.013991,43.7378946 L353.505857,43.7378946 L353.505857,58.5174579 L392.091012,58.5174579 L392.091012,72.2900685 L337.969893,72.2900685 L337.969893,1.91559347 Z M307.158737,1.91559347 L322.796001,1.91559347 L322.796001,72.2900685 L307.158737,72.2900685 L307.158737,1.91559347 Z M126.121133,37.3039236 L126.121133,37.1023345 C126.121133,25.0377699 117.184694,14.9841316 104.594445,14.9841316 C92.0031939,14.9841316 83.2703576,24.8371738 83.2703576,36.9017384 L83.2703576,37.1023345 C83.2703576,49.166899 92.2067963,59.2215304 104.797045,59.2215304 C117.389299,59.2215304 126.121133,49.3684882 126.121133,37.3039236 L126.121133,37.3039236 Z M66.9229935,37.3039236 L66.9229935,37.1023345 C66.9229935,17.0953559 82.8651588,0.709037707 104.797045,0.709037707 C126.729934,0.709037707 142.468497,16.8947598 142.468497,36.9017384 L142.468497,37.1023345 C142.468497,57.110306 126.527335,73.4966243 104.594445,73.4966243 C82.6615565,73.4966243 66.9229935,57.3109022 66.9229935,37.3039236 L66.9229935,37.3039236 Z M34.7548231,58.718054 C41.660253,58.718054 45.8225673,56.3049425 45.8225673,51.0775272 L45.8225673,50.8759381 C45.8225673,46.1510061 42.2690541,43.2354113 34.2473216,43.2354113 L16.1728478,43.2354113 L16.1728478,58.718054 L34.7548231,58.718054 L34.7548231,58.718054 Z M30.5925088,30.3664762 C37.4969357,30.3664762 41.8638553,28.1549539 41.8638553,22.9265456 L41.8638553,22.7259495 C41.8638553,18.1013156 38.2080395,15.4866149 31.6065087,15.4866149 L16.1728478,15.4866149 L16.1728478,30.3664762 L30.5925088,30.3664762 L30.5925088,30.3664762 Z M0.9417863,1.91559347 L33.9434225,1.91559347 C42.0654518,1.91559347 48.4633802,4.12612279 52.5243948,8.14797533 C55.7740089,11.3644643 57.397813,15.2860188 57.397813,20.1112488 L57.397813,20.3128379 C57.397813,28.2552519 53.133196,32.6782967 48.0581814,35.4935934 C56.2815104,38.6107774 61.3585309,43.3357094 61.3585309,52.7865663 L61.3585309,52.9871624 C61.3585309,65.8551044 50.7982881,72.2900685 34.7548231,72.2900685 L0.9417863,72.2900685 L0.9417863,1.91559347 Z" id="path44"></path>
                                    </g>
                                </g>
                            </g>
                        </g>
                    </g>
                </g>
            </g>
        </g>
    </g>
</svg>