<?xml version="1.0" encoding="UTF-8"?>
<svg width="600px" height="287px" viewBox="0 0 600 287" version="1.1" xmlns="http://www.w3.org/2000/svg" xmlns:xlink="http://www.w3.org/1999/xlink">
    <!-- Generator: Sketch 60 (88103) - https://sketch.com -->
    <title>Artboard</title>
    <desc>Created with Sketch.</desc>
    <g id="Artboard" stroke="none" stroke-width="1" fill="none" fill-rule="evenodd">
        <g id="goodrx" transform="translate(67.000000, 82.000000)" fill="#000000" fill-rule="nonzero">
            <path d="M74.4175314,35.0199651 C72.7832712,27.9416704 68.7879111,22.9957742 62.4359658,20.1837869 C58.8845346,18.6358346 54.9388344,17.8611034 50.5928457,17.8611034 C42.2785842,17.8611034 35.4450889,21.0083546 30.0968743,27.3013467 C24.7471549,33.595849 22.0745525,43.0602555 22.0745525,55.6915457 C22.0745525,68.4209987 24.9698718,77.4278153 30.7635201,82.7150161 C36.5556635,88.0007066 43.1438693,90.6465723 50.5236229,90.6465723 C57.763426,90.6465723 63.6970248,88.5609898 68.3214095,84.3913351 C72.9457943,80.2201701 75.7944634,74.7577865 76.8704267,68.0011638 L52.9750133,68.0011638 L52.9750133,50.703364 L96,50.703364 L96,106.326951 L81.7039847,106.326951 L79.5324952,93.3890906 C75.374612,98.2881706 71.6365802,101.741992 68.3199047,103.750554 C62.6210615,107.251192 55.6130044,109 47.297238,109 C33.6106844,109 22.3980939,104.247409 13.6624761,94.7361865 C4.55516193,85.1751275 0,72.1043699 0,55.517873 C0,38.747132 4.60030724,25.3003353 13.8054362,15.1805032 C23.0075556,5.05916094 35.1772267,0 50.3144496,0 C63.4412014,0 73.9871461,3.34055642 81.9507791,10.0201591 C89.914412,16.7012719 94.4816127,25.0345406 95.6508763,35.0199651 L74.4175314,35.0199651 Z" id="Path"></path>
            <path d="M176.337401,96.9791528 C169.894165,104.993051 160.115783,109 146.999248,109 C133.882714,109 124.102828,104.993051 117.662599,96.9791528 C111.220866,88.9652547 108,79.317661 108,68.0348562 C108,56.9430029 111.220866,47.3287499 117.662599,39.1981592 C124.102828,31.0675686 133.882714,27 146.999248,27 C160.115783,27 169.895668,31.0675686 176.337401,39.1981592 C182.780637,47.3302654 186,56.9430029 186,68.0348562 C186,79.3161455 182.780637,88.9652547 176.337401,96.9791528 Z M160.372911,85.8630517 C163.500549,81.6818215 165.064369,75.7411104 165.064369,68.0348562 C165.064369,60.331633 163.500549,54.4000148 160.372911,50.241517 C157.245272,46.0845346 152.764328,44.0052857 146.930079,44.0052857 C141.094327,44.0052857 136.601353,46.0845346 133.45116,50.241517 C130.300966,54.4000148 128.725117,60.3301175 128.725117,68.0348562 C128.725117,75.7411104 130.300966,81.6818215 133.45116,85.8630517 C136.602857,90.0427663 141.094327,92.1326236 146.930079,92.1326236 C152.764328,92.1326236 157.245272,90.0442818 160.372911,85.8630517 Z" id="Shape"></path>
            <path d="M261.337587,96.9791528 C254.895979,104.993051 245.116282,109 232,109 C218.883718,109 209.104021,104.993051 202.660909,96.9791528 C196.219301,88.9652547 193,79.317661 193,68.0348562 C193,56.9430029 196.220804,47.3287499 202.660909,39.1981592 C209.104021,31.0675686 218.883718,27 232,27 C245.116282,27 254.895979,31.0675686 261.337587,39.1981592 C267.780699,47.3302654 271,56.9430029 271,68.0348562 C270.998496,79.3161455 267.780699,88.9652547 261.337587,96.9791528 Z M245.371901,85.8630517 C248.497976,81.6818215 250.063269,75.7411104 250.063269,68.0348562 C250.063269,60.331633 248.497976,54.4000148 245.371901,50.241517 C242.242819,46.0845346 237.763465,44.0052857 231.927825,44.0052857 C226.093689,44.0052857 221.600802,46.0845346 218.450669,50.241517 C215.300536,54.4000148 213.723214,60.3301175 213.723214,68.0348562 C213.723214,75.7411104 215.299032,81.6818215 218.450669,85.8630517 C221.600802,90.0427663 226.093689,92.1326236 231.927825,92.1326236 C237.764969,92.1326236 242.242819,90.0442818 245.371901,85.8630517 Z" id="Shape"></path>
            <path d="M321.15239,31.8543621 C324.73178,33.877221 327.631805,36.6786784 329.862938,40.2557397 L329.862938,4 L350,4 L350,106.629766 L330.697929,106.629766 L330.697929,96.1007187 C327.865243,100.612098 324.636011,103.889699 321.011729,105.93352 C317.388943,107.975843 312.884777,109 307.496239,109 C298.622584,109 291.152552,105.409463 285.093626,98.2283889 C279.030211,91.0458175 276,81.8329008 276,70.5836494 C276,57.6139948 278.983823,47.4128569 284.951468,39.9757437 C290.923603,32.5386305 298.900914,28.8193252 308.887891,28.8193252 C313.48633,28.8223198 317.573,29.8330006 321.15239,31.8543621 Z M326.02916,85.9954083 C328.956119,81.8134358 330.419599,76.3976842 330.419599,69.7496506 C330.419599,60.4528848 328.074739,53.8048513 323.383523,49.8085446 C320.501456,47.3918946 317.157001,46.1835696 313.350158,46.1835696 C307.541131,46.1835696 303.279382,48.3786185 300.561919,52.7717109 C297.844455,57.163306 296.484227,62.6134957 296.484227,69.1222799 C296.484227,76.141645 297.866901,81.7550409 300.630753,85.9594729 C303.394605,90.1668996 307.586023,92.2676183 313.208,92.2676183 C318.829977,92.2676183 323.1022,90.1773807 326.02916,85.9954083 Z" id="Shape"></path>
            <path d="M377.653083,59.897442 L377.653083,106.407801 L368,106.264623 L368,4 L408.033872,4 C419.291584,4 427.908653,6.11037862 433.867218,10.3311359 C439.830247,14.5504017 442.810274,21.4005565 442.810274,30.8830917 C442.810274,37.3335422 441.509303,42.4506511 438.905874,46.2433669 C436.303932,50.0360827 432.06908,53.2605622 426.201315,55.9138227 C429.228975,56.9578263 431.595729,58.4731229 433.301578,60.4656782 C435.00445,62.4582336 436.283093,64.7326699 437.133041,67.2934615 C437.982988,69.8527617 460.075672,114.662886 460.720203,116.173708 C461.372177,117.693479 462.835397,119.636817 463.655574,120.467546 C464.371554,121.192382 465.334629,121.530938 466,122.005214 L466,122.856822 L455.354071,123 C453.746465,121.468298 451.809894,118.77626 450.784301,115.888844 C449.593481,112.537593 426.84287,67.4605021 425.565715,65.8005364 C424.29005,64.1420622 422.747938,62.8832922 420.952777,62.0316836 C419.153151,61.1770921 417.142154,60.6088559 414.91681,60.323992 C412.694442,60.0406196 410.400626,59.897442 408.03536,59.897442 L377.653083,59.897442 Z M407.748075,51.6483225 C411.339885,51.6483225 414.680134,51.2709897 417.755426,50.5103586 C420.826253,49.7527103 423.50262,48.5431576 425.777086,46.8831919 C428.047086,45.2262091 429.840758,43.1143391 431.170011,40.5550389 C432.493309,37.9927559 433.157191,34.9144368 433.157191,31.3081502 C433.157191,27.5169259 432.469493,24.3864066 431.098562,21.9210668 C429.726142,19.4572184 427.88186,17.5108975 425.56125,16.0895612 C423.242128,14.6667335 420.594043,13.6704558 417.612528,13.103711 C414.629524,12.5339834 411.531905,12.250611 408.313714,12.250611 L377.651594,12.250611 L377.651594,51.6498139 L407.748075,51.6498139 L407.748075,51.6483225 Z" id="Shape"></path>
            <path d="M465.858168,61.2825177 C464.035472,62.1461005 462.476826,63.420338 461.177703,65.0976814 C459.886124,66.7780444 430.199425,112.590204 428.420486,115.801464 C426.917668,118.517522 425.419376,121.449476 423.791323,123 L413,122.855063 L413,121.99299 C413.67144,121.512886 414.64616,121.168661 415.373427,120.436427 C416.204806,119.598511 417.688009,117.628274 418.348887,116.089828 C419.005238,114.560441 447.949582,68.8901987 449.455418,66.6089512 C451.383733,63.6754874 451.383733,63.6754874 453.114388,61.6599577 C454.839008,59.644428 462.755964,60.0294168 466,60.0294168" id="Path"></path>
        </g>
    </g>
</svg>