<?xml version="1.0" encoding="UTF-8"?>
<svg width="600px" height="287px" viewBox="0 0 600 287" version="1.1" xmlns="http://www.w3.org/2000/svg" xmlns:xlink="http://www.w3.org/1999/xlink">
    <!-- Generator: Sketch 60 (88103) - https://sketch.com -->
    <title>Artboard</title>
    <desc>Created with Sketch.</desc>
    <g id="Artboard" stroke="none" stroke-width="1" fill="none" fill-rule="evenodd">
        <g id="goodrx" transform="translate(101.000000, 91.000000)" fill="#000000" fill-rule="nonzero">
            <path d="M63.5649748,29.8794198 C62.1690441,23.8401408 58.7563407,19.6202477 53.3307208,17.2210292 C50.2972066,15.9002993 46.926921,15.2392901 43.2147224,15.2392901 C36.1129573,15.2392901 30.2760134,17.9245594 25.7077468,23.2938096 C21.1381948,28.6643483 18.8553469,36.739484 18.8553469,47.5166399 C18.8553469,58.3775493 21.3284321,66.0622645 26.2771734,70.5733623 C31.2246293,75.0831717 36.8520551,77.3406534 43.1555946,77.3406534 C49.3395931,77.3406534 54.4078753,75.5612115 58.3578706,72.0036162 C62.3078659,68.4447323 64.7411042,63.7841665 65.6601561,58.0193416 L45.2494905,58.0193416 L45.2494905,43.2606684 L82,43.2606684 L82,90.719325 L69.7888203,90.719325 L67.9340063,79.6806002 C64.3824811,83.8605492 61.189579,86.8073875 58.3565853,88.5211151 C53.4888234,91.5078974 47.5027746,93 40.3997241,93 C28.7091263,93 19.1317052,88.9450371 11.6700317,80.8299573 C3.89086748,72.6723565 0,61.5202422 0,47.3684604 C0,33.0594796 3.9294291,21.5865246 11.7921435,12.9521725 C19.652287,4.31653181 30.0472145,0 42.9769257,0 C54.1893595,0 63.197354,2.85019951 69.9996238,8.54931002 C76.8018936,14.249709 80.7030442,21.3597456 81.7017901,29.8794198 L63.5649748,29.8794198 Z" id="Path"></path>
            <path d="M150.700075,82.7383012 C145.1655,89.5794337 136.766121,93 125.499354,93 C114.232587,93 105.831916,89.5794337 100.299925,82.7383012 C94.7666416,75.8971686 92,67.6614179 92,58.0297553 C92,48.5611 94.7666416,40.3538109 100.299925,33.4130628 C105.831916,26.4723146 114.232587,23 125.499354,23 C136.766121,23 145.166792,26.4723146 150.700075,33.4130628 C156.23465,40.3551046 159,48.5611 159,58.0297553 C159,67.6601242 156.23465,75.8971686 150.700075,82.7383012 Z M136.986987,73.2489466 C139.673549,69.6796038 141.01683,64.608265 141.01683,58.0297553 C141.01683,51.4538331 139.673549,46.3902565 136.986987,42.8403194 C134.300426,39.2916759 130.45141,37.5167073 125.43994,37.5167073 C120.427178,37.5167073 116.567829,39.2916759 113.861893,42.8403194 C111.155958,46.3902565 109.802344,51.4525394 109.802344,58.0297553 C109.802344,64.608265 111.155958,69.6796038 113.861893,73.2489466 C116.569121,76.8169956 120.427178,78.6010202 125.43994,78.6010202 C130.45141,78.6010202 134.300426,76.8182893 136.986987,73.2489466 Z" id="Shape"></path>
            <path d="M223.700235,82.7383012 C218.167059,89.5794337 209.76655,93 198.5,93 C187.23345,93 178.832941,89.5794337 173.298473,82.7383012 C167.765297,75.8971686 165,67.6614179 165,58.0297553 C165,48.5611 167.766588,40.3538109 173.298473,33.4130628 C178.832941,26.4723146 187.23345,23 198.5,23 C209.76655,23 218.167059,26.4723146 223.700235,33.4130628 C229.234703,40.3551046 232,48.5611 232,58.0297553 C231.998708,67.6601242 229.234703,75.8971686 223.700235,82.7383012 Z M209.98612,73.2489466 C212.671338,69.6796038 214.015885,64.608265 214.015885,58.0297553 C214.015885,51.4538331 212.671338,46.3902565 209.98612,42.8403194 C207.298319,39.2916759 203.450669,37.5167073 198.438004,37.5167073 C193.42663,37.5167073 189.567356,39.2916759 186.861472,42.8403194 C184.155589,46.3902565 182.800709,51.4525394 182.800709,58.0297553 C182.800709,64.608265 184.154297,69.6796038 186.861472,73.2489466 C189.567356,76.8169956 193.42663,78.6010202 198.438004,78.6010202 C203.451961,78.6010202 207.298319,76.8182893 209.98612,73.2489466 Z" id="Shape"></path>
            <path d="M274.440548,26.8751676 C277.487867,28.6090466 279.956807,31.0102958 281.856285,34.0763483 L281.856285,3 L299,3 L299,90.9683712 L282.567156,90.9683712 L282.567156,81.9434732 C280.155545,85.8103699 277.406333,88.6197416 274.320796,90.3715883 C271.236532,92.1221516 267.401905,93 262.814365,93 C255.259767,93 248.900146,89.9223968 243.741871,83.7671905 C238.579774,77.6107007 236,69.713915 236,60.0716995 C236,48.9548527 238.540281,40.2110202 243.620844,33.8363517 C248.705229,27.4616833 255.496724,24.2737073 263.999151,24.2737073 C267.914038,24.2762741 271.39323,25.1425719 274.440548,26.8751676 Z M278.592393,73.2817785 C281.084264,69.6972307 282.330199,65.0551579 282.330199,59.3568434 C282.330199,51.388187 280.3339,45.6898725 276.340027,42.2644668 C273.886375,40.1930525 271.039068,39.1573453 267.798107,39.1573453 C262.852584,39.1573453 259.224339,41.0388158 256.910823,44.8043236 C254.597306,48.568548 253.439274,53.2401392 253.439274,58.8190971 C253.439274,64.8356957 254.616416,69.6471779 256.969425,73.2509768 C259.322434,76.8573425 262.890803,78.6579585 267.677081,78.6579585 C272.463358,78.6579585 276.100522,76.8663263 278.592393,73.2817785 Z" id="Shape"></path>
            <path d="M322.274071,50.9120931 L322.274071,90.7781148 L314,90.6553911 L314,3 L348.314747,3 C357.964215,3 365.350274,4.80889596 370.457615,8.42668789 C375.568784,12.0432014 378.123092,17.9147627 378.123092,26.04265 C378.123092,31.5716076 377.007974,35.9577009 374.776463,39.2086002 C372.546228,42.4594994 368.916354,45.2233391 363.886842,47.4975623 C366.481978,48.3924225 368.510625,49.6912482 369.972781,51.3991528 C371.432386,53.1070574 372.528366,55.0565742 373.256892,57.2515384 C373.985419,59.4452243 392.922004,97.8539022 393.47446,99.1488927 C394.033294,100.451553 395.287483,102.117272 395.990492,102.829325 C396.604189,103.450613 397.429682,103.740804 398,104.147326 L398,104.877276 L388.874918,105 C387.49697,103.687112 385.837052,101.379651 384.957972,98.9047237 C383.937269,96.0322225 364.436745,57.3947161 363.342042,55.9718884 C362.248614,54.550339 360.926804,53.4713933 359.388095,52.7414431 C357.845558,52.0089361 356.121846,51.5218764 354.214408,51.2777075 C352.309522,51.0348168 350.343394,50.9120931 348.316023,50.9120931 L322.274071,50.9120931 Z M348.069778,43.8414192 C351.148473,43.8414192 354.011544,43.5179912 356.647508,42.8660216 C359.279645,42.2166088 361.573674,41.1798494 363.523216,39.7570216 C365.468931,38.3367507 367.006364,36.5265763 368.145724,34.3328905 C369.279979,32.1366479 369.849021,29.4980887 369.849021,26.4069859 C369.849021,23.1573651 369.259565,20.4740628 368.084481,18.3609144 C366.908122,16.2490444 365.327308,14.5807693 363.338214,13.362481 C361.350396,12.1429144 359.080608,11.2889621 356.525024,10.8031809 C353.968164,10.3148429 351.313061,10.0719523 348.554612,10.0719523 L322.272795,10.0719523 L322.272795,43.8426976 L348.069778,43.8426976 L348.069778,43.8414192 Z" id="Shape"></path>
            <path d="M397.879576,52.0993009 C396.332005,52.8395147 395.008626,53.9317183 393.905597,55.3694412 C392.808973,56.8097523 367.603285,96.0773179 366.092866,98.8298262 C364.816888,101.157876 363.544753,103.67098 362.162444,105 L353,104.875768 L353,104.136849 C353.570091,103.725331 354.397683,103.430281 355.015174,102.802652 C355.721061,102.084438 356.980385,100.395663 357.541508,99.0769955 C358.098787,97.7660924 382.674173,58.6201703 383.952713,56.6648154 C385.589962,54.1504178 385.589962,54.1504178 387.059386,52.4228209 C388.523686,50.695224 395.24563,51.0252144 398,51.0252144" id="Path"></path>
        </g>
    </g>
</svg>