<?xml version="1.0" encoding="UTF-8"?>
<svg width="600px" height="287px" viewBox="0 0 600 287" version="1.1" xmlns="http://www.w3.org/2000/svg" xmlns:xlink="http://www.w3.org/1999/xlink">
    <!-- Generator: Sketch 60 (88103) - https://sketch.com -->
    <title>Artboard</title>
    <desc>Created with Sketch.</desc>
    <g id="Artboard" stroke="none" stroke-width="1" fill="none" fill-rule="evenodd">
        <g id="pearson" transform="translate(50.000000, 60.000000)" fill-rule="nonzero">
            <path d="M308.153917,111.652096 C307.976058,111.19121 307.485721,110.92513 307.004988,111.034413 L306.856038,111.077175 C305.433143,111.381264 304.337106,111.295745 303.567953,110.782586 C302.476742,110.055623 301.947943,108.411636 301.947943,105.760351 L301.947943,81.7990173 C301.947943,72.4387493 296.304356,67.6920966 285.16138,67.6920966 C275.18654,67.6920966 267.370111,72.3579759 267.370111,78.3162369 C267.370111,81.3808932 269.259334,83.5950489 272.047479,83.9276473 C273.86938,84.1462178 275.609579,83.3289693 276.869045,82.0128305 C279.320703,79.4565741 279.008226,76.4109249 276.032619,73.1467101 C277.792024,71.3269215 280.907052,70.253103 284.459549,70.253103 C290.247358,70.253103 292.718223,73.6456052 292.718223,81.5994588 L292.718223,87.6575003 C291.362601,88.070872 290.093508,88.4604867 287.766865,89.0021484 C283.079894,90.0902192 276.647922,91.5393977 271.797497,94.1859323 C267.793151,96.3573239 265.75973,99.7830855 265.75973,104.368191 C265.75973,109.361919 269.076649,115.191893 278.421757,115.191893 C283.656734,115.191893 288.343705,112.740169 293.155668,107.475612 C293.573905,112.944478 295.669822,114.997087 300.755775,114.997087 C303.202607,114.997087 305.159127,114.431668 307.485795,113.31984 C308.115528,113.015749 308.413576,112.293536 308.15399,111.652096 L308.153917,111.652096 Z M292.71815,104.330182 C291.583651,105.893393 287.872551,110.545018 283.248075,110.545018 C277.003566,110.545018 275.691233,106.211737 275.691233,102.576912 C275.691233,96.5996441 280.325312,93.8343269 292.71815,90.8076823 L292.71815,104.330182 Z M412.473857,115.396204 C399.234964,115.396204 389.25052,105.142671 389.25052,91.5441501 C389.25052,78.2307136 399.667607,67.3975075 412.473857,67.3975075 C425.438734,67.3975075 435.601061,77.8268417 435.601061,91.149783 C435.601061,106.126211 423.597601,115.396204 412.473857,115.396204 Z M411.973917,69.953764 C406.253405,69.953764 399.682037,72.3864829 399.682037,91.3445916 C399.682037,105.807868 403.998861,112.835197 412.877665,112.835197 C421.371892,112.835197 425.164743,106.211737 425.164743,91.3445916 C425.164743,76.9525841 420.847919,69.953764 411.973917,69.953764 L411.973917,69.953764 Z M207.799851,68.2527605 C207.799851,79.285525 205.050161,85.3578212 190.984441,85.3578212 L183.528554,85.3578212 L183.528554,52.0314645 L191.287293,52.0314645 C205.838534,52.0314645 207.799851,60.2323906 207.799851,68.2527605 Z M183.528554,105.760354 L183.528554,88.4224775 L190.282597,88.4224775 C200.358383,88.4224775 208.020979,86.3176045 213.06368,82.1601251 C218.337122,77.8125894 219.442767,72.3057095 219.442767,68.4523214 C219.442767,52.6016331 203.968552,49.2756495 190.984441,49.2756495 L191.037333,49.2709855 L164.708563,49.2709855 C164.112476,49.2709855 163.626953,49.7556284 163.626953,50.3400517 L163.626953,50.4113129 L163.626953,50.3924114 C163.626953,50.9340706 163.958648,51.4187134 164.477819,51.6040197 C166.823708,52.4592726 173.193182,51.261919 173.193182,58.0136642 L173.193182,105.750851 C173.193182,109.224129 171.635665,111.675853 164.516277,112.34105 C163.949032,112.393311 163.526003,112.84945 163.526003,113.400613 L163.526003,113.566922 C163.526003,114.156096 164.006719,114.631236 164.602805,114.631236 L192.734246,114.631236 C193.33033,114.631236 193.815853,114.156096 193.815853,113.566922 L193.815853,113.419638 C193.815853,112.868476 193.373597,112.402838 192.806352,112.355324 C185.071648,111.742394 183.518938,109.376194 183.518938,105.750871 L183.518938,88.4557368 L183.528554,105.760354 Z M240.733633,67.3737431 C228.489824,67.3737431 218.524601,78.3304916 218.524601,91.800725 C218.524601,105.437258 227.864893,115.334435 240.733633,115.334435 C251.544912,115.334435 256.808729,108.948547 259.822823,104.149628 C260.120871,103.674488 259.991127,103.047303 259.529576,102.719454 L259.38528,102.619669 C258.918977,102.291821 258.270013,102.386861 257.909493,102.833477 C253.933967,107.760684 250.453592,110.611527 244.444654,110.611527 C236.844552,110.611527 228.725276,105.437245 228.725276,90.9074481 L228.725276,90.802925 C228.710822,90.1614853 228.725276,89.2824754 228.749284,88.4604818 L259.846733,88.4604818 C259.933213,88.4604818 260.000584,88.3939582 260.005483,88.3084349 L260.025082,88.0613623 C260.467353,82.1078513 258.760815,76.7530182 255.222748,72.9946558 C251.766405,69.3170693 246.757355,67.3737431 240.733998,67.3737431 L240.733633,67.3737431 Z M228.922466,85.4005829 C229.946389,75.4606439 233.869023,70.0107803 240.031789,70.0107803 C243.113173,70.0107803 245.401375,70.8565309 247.016578,72.5955462 C249.237481,74.9759986 250.179682,79.285525 249.809532,85.4005829 L228.922466,85.4005829 Z M369.627722,85.9327397 L369.617923,85.9327397 C361.114068,83.5712919 357.80195,81.186087 357.80195,77.4182223 C357.80195,73.127703 361.248687,70.0107803 365.998129,70.0107803 C371.584046,70.0107803 373.978011,72.6525625 379.876382,82.3976953 L379.953307,82.5259803 C379.982215,82.5782419 380.035132,82.6067414 380.035132,82.6067414 L380.900417,82.6067414 C381.496514,82.6067414 381.982024,82.126851 381.982024,81.5376753 L381.982024,67.5305326 C381.982024,67.4450093 381.909999,67.3737481 381.909999,67.3737481 L380.751467,67.3737481 C380.429386,67.3737481 380.121734,67.5162951 379.919842,67.7633652 L378.035445,70.0250326 C375.660712,68.7326509 371.79096,67.3737481 367.906779,67.3737481 C358.138656,67.3737481 351.317306,73.3367614 351.317306,81.8797883 C351.317306,89.9001605 356.696506,92.903048 365.98392,95.3832835 C375.006922,97.8255047 378.208502,100.367506 378.208502,105.085652 C378.208502,110.335955 373.064856,112.692653 369.411401,112.692653 C362.614108,112.692653 359.744236,110.198165 353.230538,98.6332435 L353.153613,98.4954587 C353.124704,98.4431972 353.071788,98.4099354 353.071788,98.4099354 L352.196874,98.4099354 C351.600802,98.4099354 351.115267,98.8945782 351.115267,99.4790015 L351.115267,115.172893 C351.115267,115.263179 351.187293,115.33444 351.278672,115.33444 L352.384312,115.33444 C352.667931,115.33444 352.946748,115.220417 353.148664,115.020849 L356.124271,112.079727 C359.60947,114.21786 364.820415,115.33444 368.204656,115.33444 C373.285807,115.33444 377.46321,113.742719 380.285016,110.735079 C382.803947,108.050535 384.188429,104.249411 384.188429,100.030163 C384.188429,92.722504 380.241752,88.9023728 369.627551,85.9327446 L369.627722,85.9327397 Z M318.167195,109.000811 C318.167195,111.419278 317.547066,112.212762 313.64848,112.455085 C313.081242,112.493084 312.638972,112.958732 312.638972,113.519399 C312.638972,114.108572 313.124507,114.583712 313.720579,114.583712 L332.963602,114.583712 C333.55007,114.583712 334.025977,114.113324 334.025977,113.538403 C334.025977,112.968235 333.578929,112.497847 333.002064,112.474089 C328.550646,112.260281 327.396915,111.547565 327.396915,109.000811 L327.396915,81.1100636 C330.564835,75.9025226 332.838611,73.1752171 336.684329,72.3532235 C336.496916,73.0136703 336.376678,73.7976521 336.376678,74.4390918 C336.376678,77.8268417 338.770642,80.1930419 342.198148,80.1930419 C345.563133,80.1930419 347.918635,77.8268417 347.918635,74.4390918 C347.918635,71.2366433 345.894842,67.4925356 340.183934,67.4925356 C335.50659,67.4925356 331.035941,70.1438202 327.195024,76.4869459 L327.195024,69.3123243 C327.195024,68.5806089 326.584522,67.9914332 325.844203,68.0104403 L313.720579,68.3335363 C313.129308,68.3524378 312.672633,68.8181791 312.672633,69.3978501 L312.672633,69.549897 C312.672633,70.0773039 313.057209,70.5286874 313.571554,70.5999585 C317.614363,71.1653747 318.171997,73.0659367 318.167195,75.0377699 L318.167195,109.000811 Z M451.262753,67.9819309 C451.54157,67.9819309 451.810759,68.0912161 452.007849,68.2860223 C452.22417,68.485593 452.339558,68.751658 452.34436,69.0462471 L452.382822,77.0000982 C452.382822,77.0000982 456.334301,67.6683396 469.150154,67.6683396 L469.265541,67.6683396 C477.255027,67.6683396 481.836238,72.704829 481.836238,81.4854261 L481.836238,108.95805 C481.836238,111.376514 482.46117,112.170001 486.354954,112.412321 C486.922216,112.445583 487.364462,112.911218 487.364462,113.476637 C487.364462,114.061058 486.878952,114.540951 486.287657,114.540951 L468.996352,114.540951 C468.400256,114.540951 467.914746,114.061058 467.914746,113.471885 C467.914746,112.901716 468.35219,112.436078 468.900196,112.388564 C472.044083,112.122486 472.544023,111.338505 472.544023,108.95805 L472.544023,84.1652175 C472.544023,75.9737937 470.188521,72.7903548 464.145928,72.7903548 C460.059854,72.7903548 456.718877,76.3111444 454.632589,79.2665179 C454.632589,79.2665179 453.565387,80.587409 452.411681,83.0771468 L452.536623,108.953297 C452.536623,111.333752 453.026936,112.117734 456.079492,112.383814 C456.627498,112.431338 457.060141,112.901716 457.060141,113.448128 C457.060141,114.061058 456.574631,114.540951 455.983336,114.540951 L438.797791,114.540951 C438.206496,114.540951 437.720986,114.061058 437.720986,113.471885 C437.720986,112.911218 438.168058,112.44558 438.730494,112.407571 C442.624278,112.165238 443.244408,111.376514 443.244408,108.95805 L443.244408,75.0425198 C443.244408,73.0659343 442.686774,71.1558699 438.624734,70.5857013 C438.110364,70.5144401 437.720986,70.0582944 437.720986,69.5308899 L437.720986,69.3741053 C437.720986,68.789682 438.182463,68.3240463 438.773758,68.3050392 L451.262753,67.9819309 Z" id="wordmark" fill="#3D3935"></path>
            <path d="M113.483576,19.683898 C143.956097,36.8459729 151.05145,75.3228517 129.847115,114.255866 C111.214603,148.475488 70.5268876,163.090808 40.2081957,145.672159 C9.88469684,128.244004 3.96709566,79.6323781 16.9992782,51.6608544 C35.9202186,11.0363405 79.8143015,0.716288413 113.483576,19.683898" id="thumbprint" fill="#007FA3"></path>
            <path d="M112.776926,49.2043785 C118.742599,55.4999902 120.598158,65.0503144 119.56462,72.8853829 C118.377256,81.8180244 112.897105,90.0854692 103.787555,95.5638398 C96.5624116,99.9161254 87.0682896,101.645636 77.7279982,101.731162 C77.6510731,103.194595 77.3578486,108.235837 77.2088269,109.034073 C76.9925056,110.20767 76.5742826,110.844357 76.0647245,111.500051 C75.0600306,112.797186 73.3198415,113.628681 71.5892681,114.118077 C70.2192311,114.498189 68.8588073,114.669238 67.8925711,114.669238 C67.7339436,114.669238 67.5752989,114.655001 67.4166616,114.640739 C66.4023545,114.526691 65.2726743,114.051563 64.5756368,113.286588 C63.8785994,112.512109 63.4844144,111.54282 63.3930792,110.440495 L63.3161541,109.4427 C63.119064,108.587447 62.0374522,65.1786092 62.2441604,65.9530887 C62.4027879,60.7503002 70.8970299,59.8475332 75.5070858,60.7645549 C80.1267573,61.6815766 78.9586194,67.2312157 78.8336332,74.049482 C78.8336332,74.049482 78.6125101,83.0153854 78.1846691,92.4896861 C84.0686201,92.2663779 88.7411691,90.6081312 93.1108681,88.4652465 C101.941601,84.1319656 106.61415,77.4942507 106.61415,67.7206109 C106.61415,57.9469712 96.9902379,46.9997349 79.2278182,46.9997349 C61.465401,46.9997349 53.8412633,51.4280439 45.2412713,58.4601234 C43.3039897,60.0470917 41.8089665,61.6435648 40.4004718,62.6936239 C38.9871705,63.7436854 35.232787,63.9052322 34.2328996,61.4440063 C33.0166907,58.4791281 35.2808579,55.1721516 36.6124396,53.5709261 C38.7035495,51.0574338 43.8520054,45.9971874 49.5628994,43.0560662 C56.1054303,39.6825686 64.1045266,36.0477437 75.2426935,35.7674118 C85.3184775,35.5203392 101.230142,36.3233257 112.690387,49.1188601 M74.2524292,121.074133 C73.3246506,120.361422 72.2863055,119.872027 71.2335383,119.667718 C70.8778109,119.596432 70.5076588,119.558433 70.1471224,119.558433 C68.166579,119.558433 66.2196817,120.637001 64.9505955,122.447288 C63.8930217,123.94873 63.4555723,125.749512 63.7343868,127.488527 C63.9170473,128.605107 64.33528,129.569643 64.9602087,130.287106 C65.6572462,131.094845 66.7244332,131.717278 68.0512059,132.09264 C68.8155431,132.301711 69.599109,132.415734 70.382675,132.415734 L70.3875747,132.415734 C72.0989193,132.415734 73.6372068,131.902584 74.8341867,130.952303 C76.2234525,129.826218 76.9781764,128.234497 76.9637542,126.45272 C76.9446454,124.385859 75.9350248,122.366512 74.2525223,121.07413" id="interrobang" fill="#FFFFFF"></path>
        </g>
    </g>
</svg>