<?xml version="1.0" encoding="UTF-8"?>
<svg width="600px" height="287px" viewBox="0 0 600 287" version="1.1" xmlns="http://www.w3.org/2000/svg" xmlns:xlink="http://www.w3.org/1999/xlink">
    <!-- Generator: Sketch 60 (88103) - https://sketch.com -->
    <title>Artboard</title>
    <desc>Created with Sketch.</desc>
    <g id="Artboard" stroke="none" stroke-width="1" fill="none" fill-rule="evenodd">
        <g id="squafactor-logo" transform="translate(38.000000, 103.000000)" fill="#000000" fill-rule="nonzero">
            <g id="Group">
                <path d="M42.0245737,11.3451026 L66.8118682,27.0521561 L75.324672,21.656171 L42.0221087,0.928415005 L8.99762806,21.7894293 L17.2715616,27.032155 L42.0245737,11.3451026 Z M42.167537,60.8620057 L-8.51748252e-05,34.1348908 L-8.51748252e-05,44.6412413 L42.1655189,71.2802691 L84.3246248,45.0387717 L84.3246248,34.1441045 L42.167537,60.8620057 Z" id="Shape"></path>
                <path d="M47.320035,39.6364943 L47.320035,35.3551223 L51.3209855,32.8926368 L53.5053185,34.9605135 L53.5053185,30.1281271 L44.8473107,24.5970852 L35.9437116,30.271274 L35.9437116,39.0140193 L42.1505069,42.88258 L47.320035,39.6364943 Z M43.5599707,29.0425032 L44.8130267,28.2681171 L46.0559991,29.0582338 L46.0559991,30.0795878 L44.7874816,30.8568955 L43.5599707,30.064981 L43.5599707,29.0425032 L43.5599707,29.0425032 Z M29.8133277,65.7948453 L29.8839131,72.471961 L42.024574,80.1398687 L54.162994,72.5834222 L54.2333551,65.7948453 L42.0245737,73.5321917 L29.8133277,65.7948453 Z M42.167537,44.3356217 L-8.51748252e-05,17.609407 L-8.51748252e-05,32.1703856 L42.1655189,58.8076119 L84.3246248,32.5658932 L84.3246248,17.6183958 L42.167537,44.3356217 Z" id="Shape"></path>
            </g>
            <g id="Group" transform="translate(110.139860, 3.681818)">
                <path d="M227.335919,10.3804747 L242.683167,10.3804747 L242.683167,2.74762309 L218.4554,2.74762309 L218.4554,63.948637 L227.33592,63.948637 L227.33592,37.7920908 L241.351907,37.7920908 L241.351907,30.159237 L227.33592,30.159237 L227.33592,10.3804747 L227.335919,10.3804747 Z M252.732039,2.74762309 L242.59107,63.948637 L250.951051,63.948637 L253.202608,48.0809119 L264.577811,48.0809119 L266.927067,63.948637 L275.629667,63.948637 L265.488697,2.74762309 L252.732039,2.74762309 Z M254.28245,40.629632 L258.936146,8.4330488 L263.497073,40.629632 L254.28245,40.629632 Z M286.840171,2.7422296 L279.760359,9.74878519 L279.760359,56.9476987 L286.840171,63.9486329 L301.189365,63.9486329 L308.28912,56.9476987 L308.28912,45.0653857 L299.407032,45.0653857 L299.407032,53.8470073 L296.346994,56.7717428 L291.605907,56.7717428 L288.631692,53.8470073 L288.631692,13.031051 L291.605907,10.025641 L296.346994,10.025641 L299.407032,13.031051 L299.407032,21.463007 L308.28912,21.463007 L308.28912,9.74878556 L301.189365,2.7422296 L286.840171,2.7422296 L286.840171,2.7422296 Z M311.703428,10.5523855 L322.377485,10.5523855 L322.377485,63.9443635 L331.268312,63.9443635 L331.268312,10.5523855 L341.855201,10.5523855 L341.855201,2.75279163 L311.703428,2.75279163 L311.703428,10.5523855 Z M353.505799,2.7422296 L346.425764,9.74878519 L346.425764,56.9476987 L353.505799,63.9486329 L369.052001,63.9486329 L376.126659,56.9476987 L376.126659,9.74878556 L369.052001,2.7422296 L353.505799,2.7422296 L353.505799,2.7422296 Z M367.250173,53.6602662 L364.280887,56.6748896 L358.277137,56.6748896 L355.307851,53.6602662 L355.307851,13.031051 L358.277137,10.025641 L364.280887,10.025641 L367.250173,13.031051 L367.250173,53.6602662 Z M408.182216,36.9012967 L414.182185,30.9527244 L414.182185,9.74878556 L407.102374,2.74762309 L384.29169,2.74762309 L384.29169,63.948637 L393.178707,63.948637 L393.178707,37.9693951 L399.649245,37.9693951 L405.669158,63.948637 L414.63281,63.948637 L408.182216,36.9012967 Z M405.300322,27.9383238 L402.249247,30.9527244 L393.178707,30.9527244 L393.178707,9.74878556 L402.249247,9.74878556 L405.300322,12.7726227 L405.300322,27.9383238 Z" id="Shape"></path>
                <path d="M13.0801448,29.1823759 L10.7398519,26.8709024 L10.7398519,13.031051 L13.7089134,10.025641 L18.6492079,10.025641 L21.6996106,13.031051 L21.6996106,19.9506391 L30.5868521,19.9506391 L30.5868521,9.74878556 L23.4915791,2.74222996 L8.85578628,2.74222996 L1.8539549,9.74878556 L1.8539549,30.9527233 L7.86871358,36.9012956 L19.5504585,36.9012956 L21.8737212,39.2134431 L21.8737212,53.6602648 L18.8228702,56.6748882 L13.4386732,56.6748882 L10.4693874,53.6602648 L10.4693874,46.7402264 L1.58729969,46.7402264 L1.58729969,56.9476987 L8.59473315,63.9486329 L23.6708435,63.9486329 L30.7663404,56.9476987 L30.7663404,35.2129728 L24.6646388,29.1823759 L13.0801448,29.1823759 Z M44.3879467,2.74762309 L37.3027574,9.75193167 L37.3027574,56.9476991 L44.3879467,63.9443635 L52.1991555,63.9443635 L52.1991555,69.0945044 L59.6534048,76.4581408 L65.124769,71.0509199 L60.0213442,65.9917906 L60.0213442,63.9443635 L67.0139885,56.9476991 L67.0139885,9.75193167 L59.9292475,2.74762309 L44.3879467,2.74762309 Z M58.1224893,53.6550977 L55.168217,56.6685974 L49.1487528,56.6685974 L46.1951527,53.6550977 L46.1951527,13.0357703 L49.1487528,10.021147 L55.168217,10.021147 L58.1224893,13.0357703 L58.1224893,53.6550977 L58.1224893,53.6550977 Z M95.0152644,53.4879056 L91.9648616,56.5023044 L86.8403734,56.5023044 L83.7998303,53.4879056 L83.7998303,2.7422296 L74.9074351,2.7422296 L74.9074351,56.9476987 L81.9975542,63.9486329 L96.8070093,63.9486329 L103.897352,56.9476987 L103.897352,2.7422296 L95.0152647,2.7422296 L95.0152647,53.4879056 L95.0152644,53.4879056 Z M118.342901,2.74762309 L108.196777,63.948637 L116.540625,63.948637 L118.783443,48.0809119 L130.183295,48.0809119 L132.518209,63.948637 L141.230445,63.948637 L131.083873,2.74762309 L118.342901,2.74762309 Z M119.863285,40.629632 L124.531322,8.4330488 L129.113088,40.629632 L119.863285,40.629632 Z M176.126666,30.9527244 L176.126666,9.74878556 L169.052456,2.74762309 L146.257234,2.74762309 L146.257234,63.948637 L155.139097,63.948637 L155.139097,37.9693951 L161.593725,37.9693951 L167.613638,63.948637 L176.597458,63.948637 L170.127817,36.9012992 L176.126666,30.9527244 Z M167.254885,27.9383238 L164.204483,30.9527244 L155.139097,30.9527244 L155.139097,9.74878556 L164.204483,9.74878556 L167.254885,12.7726227 L167.254885,27.9383238 Z M192.27724,56.316011 L192.27724,36.8055657 L206.830796,36.8055657 L206.830796,29.0913639 L192.27724,29.0913639 L192.27724,10.3804747 L208.181775,10.3804747 L208.181775,2.74762309 L183.400979,2.74762309 L183.400979,63.948637 L208.351852,63.948637 L208.351852,56.316014 L192.27724,56.316014 L192.27724,56.316011 Z" id="Shape"></path>
            </g>
        </g>
    </g>
</svg>