<?xml version="1.0" encoding="UTF-8"?>
<svg width="600px" height="400px" viewBox="0 0 600 400" version="1.1" xmlns="http://www.w3.org/2000/svg" xmlns:xlink="http://www.w3.org/1999/xlink">
    <!-- Generator: Sketch 53.2 (72643) - https://sketchapp.com -->
    <title>Artboard</title>
    <desc>Created with Sketch.</desc>
    <g id="Artboard" stroke="none" stroke-width="1" fill="none" fill-rule="evenodd">
        <g id="squafactor-logo" transform="translate(38.000000, 160.000000)" fill="#000000" fill-rule="nonzero">
            <g id="Group">
                <path d="M42.0245737,11.3127804 L66.8118682,26.9750845 L75.324672,21.5944726 L42.0221087,0.925769948 L8.99762806,21.7273512 L17.2715616,26.9551403 L42.0245737,11.3127804 Z M42.167537,60.6886097 L-8.51748252e-05,34.0376404 L-8.51748252e-05,44.5140583 L42.1655189,71.0771915 L84.3246248,44.9104561 L84.3246248,34.0468279 L42.167537,60.6886097 Z" id="Shape"></path>
                <path d="M47.320035,39.5235699 L47.320035,35.2543954 L51.3209855,32.7989256 L53.5053185,34.8609109 L53.5053185,30.042292 L44.8473107,24.527008 L35.9437116,30.185031 L35.9437116,38.9028682 L42.1505069,42.7604074 L47.320035,39.5235699 Z M43.5599707,28.9597611 L44.8130267,28.1875812 L46.0559991,28.9754468 L46.0559991,29.993891 L44.7874816,30.7689841 L43.5599707,29.9793258 L43.5599707,28.9597611 L43.5599707,28.9597611 Z M29.8133277,65.6073956 L29.8839131,72.2654882 L42.024574,79.91155 L54.162994,72.3766318 L54.2333551,65.6073956 L42.0245737,73.3226983 L29.8133277,65.6073956 Z M42.167537,44.2093094 L-8.51748252e-05,17.5592377 L-8.51748252e-05,32.0787321 L42.1655189,58.6400688 L84.3246248,32.4731128 L84.3246248,17.5682009 L42.167537,44.2093094 Z" id="Shape"></path>
            </g>
            <g id="Group" transform="translate(110.139860, 3.671329)">
                <path d="M227.335919,10.3509007 L242.683167,10.3509007 L242.683167,2.7397951 L218.4554,2.7397951 L218.4554,63.7664471 L227.33592,63.7664471 L227.33592,37.6844211 L241.351907,37.6844211 L241.351907,30.0733132 L227.33592,30.0733132 L227.33592,10.3509007 L227.335919,10.3509007 Z M252.732039,2.7397951 L242.59107,63.7664471 L250.951051,63.7664471 L253.202608,47.9439292 L264.577811,47.9439292 L266.927067,63.7664471 L275.629667,63.7664471 L265.488697,2.7397951 L252.732039,2.7397951 Z M254.28245,40.5138781 L258.936146,8.40902302 L263.497073,40.5138781 L254.28245,40.5138781 Z M286.840171,2.73441698 L279.760359,9.72101087 L279.760359,56.7854546 L286.840171,63.7664431 L301.189365,63.7664431 L308.28912,56.7854546 L308.28912,44.9369943 L299.407032,44.9369943 L299.407032,53.693597 L296.346994,56.6099999 L291.605907,56.6099999 L288.631692,53.693597 L288.631692,12.9939255 L291.605907,9.9970779 L296.346994,9.9970779 L299.407032,12.9939255 L299.407032,21.4018589 L308.28912,21.4018589 L308.28912,9.72101124 L301.189365,2.73441734 L286.840171,2.73441734 L286.840171,2.73441698 Z M311.703428,10.5223217 L322.377485,10.5223217 L322.377485,63.7621858 L331.268312,63.7621858 L331.268312,10.5223217 L341.855201,10.5223217 L341.855201,2.74494892 L311.703428,2.74494892 L311.703428,10.5223217 Z M353.505799,2.73441698 L346.425764,9.72101087 L346.425764,56.7854546 L353.505799,63.7664431 L369.052001,63.7664431 L376.126659,56.7854546 L376.126659,9.72101124 L369.052001,2.73441734 L353.505799,2.73441734 L353.505799,2.73441698 Z M367.250173,53.507388 L364.280887,56.5134227 L358.277137,56.5134227 L355.307851,53.507388 L355.307851,12.9939255 L358.277137,9.9970779 L364.280887,9.9970779 L367.250173,12.9939255 L367.250173,53.507388 Z M408.182216,36.7961648 L414.182185,30.86454 L414.182185,9.72101124 L407.102374,2.7397951 L384.29169,2.7397951 L384.29169,63.7664471 L393.178707,63.7664471 L393.178707,37.8612201 L399.649245,37.8612201 L405.669158,63.7664471 L414.63281,63.7664471 L408.182216,36.7961648 Z M405.300322,27.8587274 L402.249247,30.86454 L393.178707,30.86454 L393.178707,9.72101124 L402.249247,9.72101124 L405.300322,12.7362335 L405.300322,27.8587274 Z" id="Shape"></path>
                <path d="M13.0801448,29.0992352 L10.7398519,26.7943472 L10.7398519,12.9939255 L13.7089134,9.9970779 L18.6492079,9.9970779 L21.6996106,12.9939255 L21.6996106,19.8937997 L30.5868521,19.8937997 L30.5868521,9.72101124 L23.4915791,2.73441734 L8.85578628,2.73441734 L1.8539549,9.72101124 L1.8539549,30.8645389 L7.86871358,36.7961637 L19.5504585,36.7961637 L21.8737212,39.1017239 L21.8737212,53.5073865 L18.8228702,56.5134212 L13.4386732,56.5134212 L10.4693874,53.5073865 L10.4693874,46.6070633 L1.58729969,46.6070633 L1.58729969,56.7854546 L8.59473315,63.7664431 L23.6708435,63.7664431 L30.7663404,56.7854546 L30.7663404,35.1126509 L24.6646388,29.0992352 L13.0801448,29.0992352 Z M44.3879467,2.7397951 L37.3027574,9.72414839 L37.3027574,56.7854549 L44.3879467,63.7621858 L52.1991555,63.7621858 L52.1991555,68.897654 L59.6534048,76.2403113 L65.124769,70.8484956 L60.0213442,65.8037798 L60.0213442,63.7621858 L67.0139885,56.7854549 L67.0139885,9.72414839 L59.9292475,2.7397951 L44.3879467,2.7397951 Z M58.1224893,53.5022342 L55.168217,56.5071484 L49.1487528,56.5071484 L46.1951527,53.5022342 L46.1951527,12.9986314 L49.1487528,9.99259668 L55.168217,9.99259668 L58.1224893,12.9986314 L58.1224893,53.5022342 L58.1224893,53.5022342 Z M95.0152644,53.3355184 L91.9648616,56.3413292 L86.8403734,56.3413292 L83.7998303,53.3355184 L83.7998303,2.73441698 L74.9074351,2.73441698 L74.9074351,56.7854546 L81.9975542,63.7664431 L96.8070093,63.7664431 L103.897352,56.7854546 L103.897352,2.73441698 L95.0152647,2.73441698 L95.0152647,53.3355184 L95.0152644,53.3355184 Z M118.342901,2.7397951 L108.196777,63.7664471 L116.540625,63.7664471 L118.783443,47.9439292 L130.183295,47.9439292 L132.518209,63.7664471 L141.230445,63.7664471 L131.083873,2.7397951 L118.342901,2.7397951 Z M119.863285,40.5138781 L124.531322,8.40902302 L129.113088,40.5138781 L119.863285,40.5138781 Z M176.126666,30.86454 L176.126666,9.72101124 L169.052456,2.7397951 L146.257234,2.7397951 L146.257234,63.7664471 L155.139097,63.7664471 L155.139097,37.8612201 L161.593725,37.8612201 L167.613638,63.7664471 L176.597458,63.7664471 L170.127817,36.7961673 L176.126666,30.86454 Z M167.254885,27.8587274 L164.204483,30.86454 L155.139097,30.86454 L155.139097,9.72101124 L164.204483,9.72101124 L167.254885,12.7362335 L167.254885,27.8587274 Z M192.27724,56.1555666 L192.27724,36.7007065 L206.830796,36.7007065 L206.830796,29.0084825 L192.27724,29.0084825 L192.27724,10.3509007 L208.181775,10.3509007 L208.181775,2.7397951 L183.400979,2.7397951 L183.400979,63.7664471 L208.351852,63.7664471 L208.351852,56.1555695 L192.27724,56.1555695 L192.27724,56.1555666 Z" id="Shape"></path>
            </g>
        </g>
    </g>
</svg>