<?xml version="1.0" encoding="UTF-8"?>
<svg width="600px" height="400px" viewBox="0 0 600 400" version="1.1" xmlns="http://www.w3.org/2000/svg" xmlns:xlink="http://www.w3.org/1999/xlink">
    <!-- Generator: Sketch 53.2 (72643) - https://sketchapp.com -->
    <title>Artboard</title>
    <desc>Created with Sketch.</desc>
    <g id="Artboard" stroke="none" stroke-width="1" fill="none" fill-rule="evenodd">
        <g id="yola" transform="translate(188.000000, 127.000000)" fill="#141B21">
            <polygon id="Path" points="148.25925 116.14725 148.25025 116.154 134.694 116.154 134.68725 116.14725 134.68725 0.009 134.69625 0 148.2525 0 148.25925 0.00675"></polygon>
            <path d="M124.75575,60.5565 C124.56225,51.2055 121.73625,43.92 116.3475,38.89125 C111.339,34.21575 104.51025,31.84425 96.05475,31.84425 C87.59925,31.84425 80.775,34.21575 75.76425,38.89125 C70.36425,43.92 67.5495,51.2055 67.356,60.5565 L67.3425,60.5565 L67.3425,88.74675 L67.356,88.74675 C67.5495,98.09775 70.3755,105.3855 75.76425,110.41425 C80.775,115.08975 87.59925,117.45 96.05475,117.45 C104.51025,117.45 111.339,115.08075 116.3475,110.40525 C121.73625,105.3765 124.56225,98.08875 124.75575,88.73775 L124.75575,60.5565 Z M111.195,87.70275 C111.195,98.89425 106.52625,103.887 96.05475,103.887 C85.58325,103.887 80.91675,98.89425 80.91675,87.70275 L80.91675,61.60275 C80.91675,50.41125 85.5855,45.42075 96.05475,45.42075 C106.524,45.42075 111.195,50.4 111.195,61.6005 L111.195,87.70275 L111.195,87.70275 Z" id="Shape"></path>
            <path d="M43.8525,33.67125 L43.8525,87.70275 C43.8525,98.89425 39.1815,103.887 28.71225,103.887 C18.243,103.887 13.572,98.89425 13.572,87.70275 L13.572,33.678 L0,33.678 L0,88.74675 L0.01125,88.74675 C0.207,98.09775 3.033,105.3855 8.4195,110.41425 C13.43025,115.08975 20.25,117.45 28.71225,117.45 C34.82775,117.45 40.34475,114.75 44.7345,110.7495 L43.85925,110.6775 L43.85925,115.884 C43.85925,127.0755 39.18825,132.59025 28.719,132.59025 C18.936,132.59025 15.27975,128.10375 14.40675,126.29025 L14.391,126.29025 L3.366,133.2225 C5.0535,136.73025 13.32675,145.638 28.719,145.638 C37.1745,145.638 44.001,143.26875 49.01175,138.59325 C54.39825,133.5645 57.22425,126.27675 57.42,116.92575 L57.43125,116.92575 L57.43125,33.67125 L43.8525,33.67125 Z" id="Path"></path>
            <path d="M217.17,87.70275 L217.17,60.5565 L217.1565,60.5565 C216.963,51.2055 214.137,43.92 208.74825,38.89125 C203.73975,34.21575 196.91325,31.84425 188.45775,31.84425 L188.45775,31.87575 C173.06775,31.87575 164.79675,40.74525 163.107,44.25075 L163.107,44.262 L174.132,51.19425 L174.14775,51.19425 C174.26925,50.92425 177.1065,45.15975 188.46,45.15975 C198.92925,45.15975 203.598,50.41125 203.598,61.60275 L203.598,62.5815 C199.5615,59.78925 194.54175,57.94875 188.45325,57.94875 L186.36525,57.94875 C177.90975,57.94875 171.081,60.32025 166.0725,64.9935 C160.6725,70.0245 157.85775,77.31 157.66425,86.661 L157.66425,88.749 C157.85775,98.1 160.68375,105.38775 166.0725,110.4165 C171.0855,115.08975 177.91425,117.45 186.36975,117.45 L188.45775,117.45 C196.9155,117.45 203.3415,113.8635 207.9135,109.13625 C207.9135,109.1475 207.83475,109.13625 207.8415,109.13625 C208.434615,110.040522 209.117584,110.882548 209.88,111.6495 C214.91775,116.703 221.175,117.45 224.98425,117.45 L225,117.43425 L225,103.89375 C218.34225,103.8825 217.17,99.57375 217.17,87.70275 L217.17,87.70275 Z M188.45775,103.887 L186.36975,103.887 C175.89825,103.887 171.2295,98.89425 171.2295,87.70275 C171.2295,76.51125 175.89825,71.52075 186.36975,71.52075 L188.45775,71.52075 C198.927,71.52075 203.59575,76.51125 203.59575,87.70275 C203.59575,98.89425 198.927,103.887 188.45775,103.887 Z" id="Shape"></path>
        </g>
    </g>
</svg>