<?xml version="1.0" encoding="UTF-8"?>
<svg width="600px" height="287px" viewBox="0 0 600 287" version="1.1" xmlns="http://www.w3.org/2000/svg" xmlns:xlink="http://www.w3.org/1999/xlink">
    <!-- Generator: Sketch 60 (88103) - https://sketch.com -->
    <title>Artboard</title>
    <desc>Created with Sketch.</desc>
    <g id="Artboard" stroke="none" stroke-width="1" fill="none" fill-rule="evenodd">
        <g id="yola" transform="translate(188.000000, 70.000000)" fill="#141B21">
            <polygon id="Path" points="148.25925 116.306574 148.25025 116.313333 134.694 116.313333 134.68725 116.306574 134.68725 0.00901234568 134.69625 0 148.2525 0 148.25925 0.00675925926"></polygon>
            <path d="M124.75575,60.6395679 C124.56225,51.2757407 121.73625,43.9802469 116.3475,38.9445988 C111.339,34.2626852 104.51025,31.8879321 96.05475,31.8879321 C87.59925,31.8879321 80.775,34.2626852 75.76425,38.9445988 C70.36425,43.9802469 67.5495,51.2757407 67.356,60.6395679 L67.3425,60.6395679 L67.3425,88.8684877 L67.356,88.8684877 C67.5495,98.2323148 70.3755,105.530062 75.76425,110.56571 C80.775,115.247623 87.59925,117.611111 96.05475,117.611111 C104.51025,117.611111 111.339,115.238611 116.3475,110.556698 C121.73625,105.521049 124.56225,98.2233025 124.75575,88.8594753 L124.75575,60.6395679 Z M111.195,87.8230556 C111.195,99.0299074 106.52625,104.029506 96.05475,104.029506 C85.58325,104.029506 80.91675,99.0299074 80.91675,87.8230556 L80.91675,61.6872531 C80.91675,50.4804012 85.5855,45.4830556 96.05475,45.4830556 C106.524,45.4830556 111.195,50.4691358 111.195,61.685 L111.195,87.8230556 L111.195,87.8230556 Z" id="Shape"></path>
            <path d="M43.8525,33.7174383 L43.8525,87.8230556 C43.8525,99.0299074 39.1815,104.029506 28.71225,104.029506 C18.243,104.029506 13.572,99.0299074 13.572,87.8230556 L13.572,33.7241975 L0,33.7241975 L0,88.8684877 L0.01125,88.8684877 C0.207,98.2323148 3.033,105.530062 8.4195,110.56571 C13.43025,115.247623 20.25,117.611111 28.71225,117.611111 C34.82775,117.611111 40.34475,114.907407 44.7345,110.90142 L43.85925,110.829321 L43.85925,116.042963 C43.85925,127.249815 39.18825,132.77213 28.719,132.77213 C18.936,132.77213 15.27975,128.279475 14.40675,126.463488 L14.391,126.463488 L3.366,133.405247 C5.0535,136.917809 13.32675,145.837778 28.719,145.837778 C37.1745,145.837778 44.001,143.465278 49.01175,138.783364 C54.39825,133.747716 57.22425,126.449969 57.42,117.086142 L57.43125,117.086142 L57.43125,33.7174383 L43.8525,33.7174383 Z" id="Path"></path>
            <path d="M217.17,87.8230556 L217.17,60.6395679 L217.1565,60.6395679 C216.963,51.2757407 214.137,43.9802469 208.74825,38.9445988 C203.73975,34.2626852 196.91325,31.8879321 188.45775,31.8879321 L188.45775,31.9194753 C173.06775,31.9194753 164.79675,40.801142 163.107,44.3114506 L163.107,44.322716 L174.132,51.2644753 L174.14775,51.2644753 C174.26925,50.9941049 177.1065,45.2216975 188.46,45.2216975 C198.92925,45.2216975 203.598,50.4804012 203.598,61.6872531 L203.598,62.6673457 C199.5615,59.8712654 194.54175,58.0282407 188.45325,58.0282407 L186.36525,58.0282407 C177.90975,58.0282407 171.081,60.4029938 166.0725,65.0826543 C160.6725,70.1205556 157.85775,77.4160494 157.66425,86.7798765 L157.66425,88.8707407 C157.85775,98.2345679 160.68375,105.532315 166.0725,110.567963 C171.0855,115.247623 177.91425,117.611111 186.36975,117.611111 L188.45775,117.611111 C196.9155,117.611111 203.3415,114.019691 207.9135,109.285957 C207.9135,109.297222 207.83475,109.285957 207.8415,109.285957 C208.434615,110.191469 209.117584,111.03465 209.88,111.802654 C214.91775,116.863086 221.175,117.611111 224.98425,117.611111 L225,117.59534 L225,104.036265 C218.34225,104.025 217.17,99.7103395 217.17,87.8230556 L217.17,87.8230556 Z M188.45775,104.029506 L186.36975,104.029506 C175.89825,104.029506 171.2295,99.0299074 171.2295,87.8230556 C171.2295,76.6162037 175.89825,71.618858 186.36975,71.618858 L188.45775,71.618858 C198.927,71.618858 203.59575,76.6162037 203.59575,87.8230556 C203.59575,99.0299074 198.927,104.029506 188.45775,104.029506 Z" id="Shape"></path>
        </g>
    </g>
</svg>